<svg width="11" height="19" viewBox="0 0 11 19" fill="none" xmlns="http://www.w3.org/2000/svg">
<g clip-path="url(#clip0_121_282)">
<path d="M7.89586 6.91903C8.58051 6.91903 9.24562 6.92221 9.91028 6.91767C10.2524 6.9154 10.5581 7.00717 10.7344 7.31111C10.8325 7.48057 10.9007 7.69318 10.9043 7.88763C10.9216 8.80625 10.9148 9.72533 10.9102 10.644C10.9075 11.2191 10.53 11.5976 9.95299 11.603C9.33603 11.6089 8.71953 11.6044 8.10257 11.6044C8.03669 11.6044 7.97082 11.6044 7.87995 11.6044C7.87995 11.6943 7.87995 11.7707 7.87995 11.8474C7.87995 13.9573 7.88177 16.0667 7.87632 18.1765C7.87632 18.3478 7.85815 18.5331 7.79227 18.688C7.63781 19.0515 7.33614 19.2246 6.94361 19.226C5.97592 19.2291 5.00824 19.2296 4.041 19.226C3.49446 19.2237 3.13146 18.8757 3.09694 18.3332C3.09239 18.261 3.09376 18.1883 3.09376 18.1156C3.09376 16.0299 3.09376 13.9445 3.09376 11.8588C3.09376 11.7811 3.09376 11.7039 3.09376 11.6039C3.01153 11.6039 2.94701 11.6039 2.88296 11.6039C2.39911 11.6039 1.91527 11.6062 1.43142 11.6035C0.828547 11.5994 0.456464 11.2323 0.454193 10.6317C0.450558 9.71307 0.450104 8.79399 0.454193 7.87536C0.456919 7.29021 0.819915 6.92676 1.40462 6.91994C1.89437 6.91449 2.38412 6.91858 2.87432 6.91858C2.93929 6.91858 3.00426 6.91858 3.09376 6.91858C3.09376 6.82226 3.09149 6.74549 3.09376 6.66916C3.12147 5.92727 3.08603 5.17628 3.19234 4.44575C3.40133 3.01738 4.12459 1.89568 5.41712 1.19149C6.04589 0.848941 6.72236 0.655404 7.44427 0.652678C8.35153 0.649498 9.2588 0.666307 10.1656 0.644954C10.5263 0.636322 10.9011 0.941167 10.9811 1.29053C11.0052 1.39548 11.0165 1.50588 11.017 1.61355C11.0197 2.44177 11.0197 3.26998 11.0184 4.0982C11.017 4.73015 10.6499 5.09632 10.0134 5.10178C9.47505 5.10632 8.93714 5.10814 8.39878 5.11223C8.34472 5.11223 8.28975 5.11586 8.23659 5.1254C7.96673 5.17356 7.9054 5.22808 7.89904 5.50612C7.88813 5.96952 7.89586 6.43292 7.89586 6.91903ZM1.55227 10.514C1.64086 10.514 1.70674 10.514 1.77261 10.514C2.35913 10.514 2.9461 10.5118 3.53262 10.5149C3.93696 10.5172 4.16912 10.7489 4.18502 11.1555C4.18729 11.21 4.18593 11.2645 4.18593 11.3186C4.18593 13.5134 4.18593 15.7077 4.18593 17.9025V18.1274H6.78597C6.78597 18.0397 6.78597 17.9625 6.78597 17.8853C6.78597 15.6728 6.78597 13.4598 6.78597 11.2473C6.78597 10.7353 7.00495 10.5149 7.51151 10.5145C8.21297 10.514 8.91488 10.5145 9.61634 10.5145H9.81033V8.0103C9.73492 8.0103 9.6695 8.0103 9.60453 8.0103C8.8908 8.0103 8.17708 8.01257 7.46335 8.00939C7.06537 8.00757 6.80187 7.79631 6.79505 7.42196C6.78324 6.73367 6.77279 6.04221 6.8214 5.35619C6.87547 4.59476 7.29707 4.15635 8.05214 4.06685C8.57778 4.00461 9.11342 4.02596 9.64451 4.01097C9.73355 4.00824 9.8226 4.01097 9.91801 4.01097V1.72713C9.89256 1.71941 9.87621 1.70941 9.8594 1.70941C9.07934 1.71168 8.29838 1.6926 7.51923 1.72395C6.71509 1.75575 5.97456 2.0029 5.35806 2.54399C4.57755 3.22864 4.24953 4.12727 4.20228 5.13358C4.16912 5.83958 4.1882 6.54786 4.18502 7.25523C4.18275 7.7845 3.96195 8.00939 3.43858 8.00984C2.94883 8.0103 2.45863 8.00984 1.96888 8.00984C1.83167 8.00984 1.69492 8.00984 1.55136 8.00984V10.514H1.55227Z" fill="white"/>
</g>
<defs>
<clipPath id="clip0_121_282">
<rect width="10.5687" height="18.5837" fill="white" transform="translate(0.00012207 0.362549)"/>
</clipPath>
</defs>
</svg>
