<svg width="31" height="22" viewBox="0 0 31 22" fill="none" xmlns="http://www.w3.org/2000/svg">
<g clip-path="url(#clip0_121_447)">
<path d="M0.488068 11.5743C0.623478 11.8163 0.729143 12.0825 0.902124 12.2957C1.1659 12.6219 1.5463 12.7549 1.96349 12.7744C2.09029 12.7806 2.2171 12.7783 2.3439 12.7783C11.1409 12.7783 19.9379 12.7791 28.7357 12.7744C28.9861 12.7744 29.2483 12.7534 29.4847 12.6787C30.1406 12.4709 30.5469 11.8171 30.4811 11.1369C30.4154 10.4597 29.8863 9.90792 29.2022 9.8153C29.0386 9.79273 28.8711 9.78884 28.7059 9.78884C19.9285 9.78728 11.1503 9.79429 2.37286 9.77872C1.43985 9.77717 0.7855 10.0784 0.48885 10.9921V11.575L0.488068 11.5743Z" fill="#67132F"/>
<path d="M0.488068 2.56058C0.74061 3.16903 1.21126 3.61674 2.08264 3.75631C2.259 3.78454 2.44371 3.79159 2.62425 3.79159C11.2024 3.79316 19.7805 3.79316 28.3586 3.79238C29.4522 3.79238 30.2652 3.30311 30.4561 2.54255C30.6273 1.8604 30.0961 1.14375 29.207 0.899115C28.9565 0.830115 28.6748 0.797184 28.4076 0.797184C19.7919 0.791695 11.1742 0.792479 2.55746 0.794048C1.58277 0.794048 0.906536 1.16335 0.574682 1.85099C0.553812 1.89411 0.51833 1.93253 0.489109 1.97331V2.56058H0.488068Z" fill="#67132F"/>
<path d="M0.488068 20.6126C0.641834 20.7849 0.76285 20.9689 0.95648 21.1262C1.50178 21.5694 2.27631 21.7917 3.25585 21.7917C5.65203 21.7917 8.04821 21.7917 10.4444 21.7917C16.1779 21.7917 21.9099 21.7933 27.6434 21.7902C29.1383 21.7902 30.2517 21.282 30.4567 20.5234C30.7002 19.6215 29.4971 18.8221 27.8413 18.7986C26.9899 18.7861 26.137 18.7955 25.2856 18.7955C18.1327 18.7955 10.9797 18.7955 3.82677 18.7955C1.8805 18.7955 1.22415 19.0374 0.488068 20.0262V20.6126Z" fill="#67132F"/>
</g>
<defs>
<clipPath id="clip0_121_447">
<rect width="31" height="22" fill="white" transform="matrix(-1 0 0 1 31 0)"/>
</clipPath>
</defs>
</svg>
