<svg width="15" height="16" viewBox="0 0 15 16" fill="none" xmlns="http://www.w3.org/2000/svg">
<g clip-path="url(#clip0_121_274)">
<path d="M7.93684 1.78383C9.94323 1.78383 10.1828 1.78383 10.9614 1.81377C11.6801 1.84371 12.0993 1.96347 12.3389 2.08323C12.6983 2.23293 12.9378 2.38263 13.2074 2.65209C13.4769 2.92155 13.6266 3.16107 13.7763 3.52036C13.8662 3.78982 13.986 4.17904 14.0458 4.8976C14.0758 5.67604 14.0758 5.91557 14.0758 7.92155C14.0758 9.92754 14.0758 10.1671 14.0458 10.9455C14.0159 11.6641 13.8961 12.0832 13.7763 12.3228C13.6266 12.682 13.4769 12.9216 13.2074 13.191C12.9378 13.4605 12.6983 13.6102 12.3389 13.7599C12.0694 13.8497 11.6801 13.9695 10.9614 14.0293C10.1828 14.0293 9.94323 14.0293 7.93684 14.0293C5.93045 14.0293 5.69088 14.0293 4.91229 13.9994C4.19358 13.9695 3.77433 13.8497 3.53477 13.7299C3.17541 13.5802 2.93584 13.4305 2.66633 13.1611C2.39681 12.8916 2.24708 12.6521 2.09735 12.2928C2.00751 12.0233 1.88773 11.6341 1.82784 10.9156C1.79789 10.1371 1.79789 9.8976 1.79789 7.92155C1.79789 5.94551 1.79789 5.67604 1.82784 4.8976C1.85778 4.17904 1.97757 3.75988 2.09735 3.52036C2.24708 3.16107 2.39681 2.92155 2.66633 2.65209C2.93584 2.38263 3.17541 2.23293 3.53477 2.08323C3.80428 1.99341 4.19358 1.87365 4.91229 1.81377C5.69088 1.78383 5.93045 1.78383 7.93684 1.78383ZM7.93684 0.436523C5.90051 0.436523 5.66094 0.436523 4.85239 0.496404C4.04385 0.526344 3.50482 0.646104 3.02568 0.855685C2.54654 1.03533 2.1273 1.30479 1.70805 1.72395C1.28881 2.14311 1.04924 2.56227 0.839617 3.04131C0.65994 3.52036 0.540156 4.05928 0.480263 4.86766C0.450317 5.61616 0.450317 5.88562 0.450317 7.92155C0.450317 9.95748 0.450317 10.197 0.51021 11.0054C0.540156 11.8138 0.65994 12.3527 0.869563 12.8317C1.04924 13.3108 1.31875 13.7299 1.738 14.1491C2.15725 14.5683 2.57649 14.8078 3.05563 15.0174C3.53477 15.197 4.0738 15.3168 4.88234 15.3766C5.69088 15.4365 5.93045 15.4365 7.96679 15.4365C10.0031 15.4365 10.2427 15.4365 11.0512 15.3766C11.8598 15.3467 12.3988 15.2269 12.8779 15.0174C13.3571 14.8377 13.7763 14.5683 14.1956 14.1491C14.6148 13.7299 14.8544 13.3108 15.064 12.8317C15.2437 12.3527 15.3635 11.8138 15.4234 11.0054C15.4833 10.197 15.4234 9.92754 15.4234 7.89161C15.4234 5.85568 15.4234 5.61616 15.3635 4.80778C15.3335 3.9994 15.2137 3.46048 15.0041 2.98143C14.8244 2.50239 14.5549 2.08323 14.1357 1.66407C13.7164 1.24491 13.2972 1.00539 12.8181 0.795805C12.3389 0.616164 11.7999 0.496404 10.9913 0.436523C10.2127 0.436523 9.97318 0.436523 7.93684 0.436523Z" fill="white"/>
<path d="M7.93674 4.05859C5.81057 4.05859 4.10364 5.76518 4.10364 7.89093C4.10364 10.0167 5.81057 11.7532 7.93674 11.7532C10.0629 11.7532 11.7698 10.0466 11.7698 7.92087C11.7698 5.79512 10.0629 4.05859 7.93674 4.05859ZM7.93674 10.4059C6.55922 10.4059 5.45121 9.29812 5.45121 7.92087C5.45121 6.54362 6.55922 5.43584 7.93674 5.43584C9.31426 5.43584 10.4223 6.54362 10.4223 7.92087C10.4223 9.29812 9.31426 10.4059 7.93674 10.4059Z" fill="white"/>
<path d="M11.9195 4.80813C12.4286 4.80813 12.8179 4.4189 12.8179 3.90992C12.8179 3.40094 12.4286 3.01172 11.9195 3.01172C11.4104 3.01172 11.0211 3.40094 11.0211 3.90992C11.0211 4.4189 11.4404 4.80813 11.9195 4.80813Z" fill="white"/>
</g>
<defs>
<clipPath id="clip0_121_274">
<rect width="15" height="15" fill="white" transform="translate(0.00012207 0.154297)"/>
</clipPath>
</defs>
</svg>
