<svg width="15" height="15" viewBox="0 0 15 15" fill="none" xmlns="http://www.w3.org/2000/svg">
<g clip-path="url(#clip0_121_278)">
<path d="M0.450317 5.29959C1.58222 5.29813 2.71382 5.29638 3.84572 5.29492C4.01113 5.29492 4.17655 5.29492 4.35327 5.29492V14.9354H0.450317V5.29959ZM1.10677 14.2988H3.70171V5.92312H1.10677V14.2988Z" fill="white"/>
<path d="M0.450134 2.59102C0.469397 2.51494 0.488354 2.43885 0.508228 2.36306C0.743658 1.45647 1.66551 0.836723 2.6109 0.949828C3.62233 1.07051 4.36073 1.85205 4.36257 2.80441C4.36471 3.72995 3.63732 4.52489 2.67052 4.65374C1.63004 4.79221 0.6449 4.09987 0.478264 3.11341C0.473983 3.08746 0.459613 3.06327 0.450134 3.03791C0.450134 2.88894 0.450134 2.73998 0.450134 2.59102ZM3.70642 2.81111C3.7107 2.13044 3.12212 1.56462 2.40757 1.56287C1.69975 1.56112 1.09772 2.1351 1.10139 2.8082C1.10506 3.48508 1.6866 4.0407 2.39718 4.04653C3.11509 4.05236 3.70183 3.49878 3.70642 2.8114V2.81111Z" fill="white"/>
<path d="M9.57873 5.88254C9.87134 5.74815 10.137 5.59773 10.4226 5.50008C11.4879 5.13569 12.5207 5.25026 13.4964 5.77293C14.4638 6.29094 15.0838 7.07889 15.3394 8.11083C15.4073 8.38456 15.4431 8.67199 15.4446 8.95329C15.4535 10.9081 15.4492 12.8633 15.4492 14.8182C15.4492 14.8499 15.4455 14.882 15.4431 14.9231H11.545C11.5417 14.8686 11.5356 14.8106 11.5353 14.7529C11.5346 13.0819 11.5331 11.4107 11.5362 9.73978C11.5368 9.40921 11.4411 9.12353 11.1598 8.91656C10.8562 8.69297 10.5165 8.64983 10.1673 8.79588C9.81875 8.94192 9.62245 9.2072 9.58913 9.57362C9.5824 9.64767 9.5824 9.72229 9.5824 9.79692C9.58209 11.4495 9.5824 13.1018 9.5824 14.7543C9.5824 14.8088 9.5824 14.863 9.5824 14.9251H5.67731V5.30389H9.57842V5.88254H9.57873ZM14.7925 14.3001C14.7952 14.2506 14.7995 14.2101 14.7995 14.1693C14.7998 12.4424 14.8025 10.7155 14.7964 8.98886C14.7955 8.76264 14.7732 8.5309 14.7191 8.3111C14.4439 7.19579 13.7336 6.43466 12.5965 6.0694C11.7129 5.78547 10.8562 5.8735 10.0591 6.36236C9.68788 6.59003 9.40812 6.90777 9.1146 7.2124C9.06109 7.26808 9.00666 7.32288 8.9235 7.408V5.92422H6.3252V14.2978H8.92503C8.92503 14.2311 8.92503 14.1757 8.92503 14.1203C8.92503 12.6493 8.92105 11.1787 8.92625 9.70772C8.93053 8.56384 10.0377 7.803 11.1249 8.18866C11.7847 8.42275 12.189 8.99614 12.1899 9.71034C12.192 11.186 12.1905 12.6613 12.1905 14.1369V14.3001H14.7921H14.7925Z" fill="white"/>
</g>
<defs>
<clipPath id="clip0_121_278">
<rect width="15" height="14" fill="white" transform="translate(0.00012207 0.654297)"/>
</clipPath>
</defs>
</svg>
