<svg width="70" height="48" viewBox="0 0 70 48" fill="none" xmlns="http://www.w3.org/2000/svg">
<g clip-path="url(#clip0_121_349)">
<path d="M56.2114 18.0885C56.6548 17.6173 57.201 17.2548 57.8074 17.0291C57.8911 16.985 57.9647 16.9241 58.0237 16.8502C58.1732 16.6661 58.2501 16.4337 58.2401 16.1968V15.829L58.4507 16.0353C58.5392 16.1462 58.6509 16.2363 58.778 16.2993C58.9051 16.3624 59.0444 16.3968 59.1863 16.4002C59.2594 16.4016 59.3324 16.3919 59.4026 16.3713C59.9624 16.1212 60.5673 15.9875 61.1803 15.9783H61.2849C61.2849 15.9538 61.277 15.9105 61.277 15.842C61.2878 15.2416 61.4216 14.6498 61.67 14.1032C61.6888 14.0326 61.6973 13.9598 61.6953 13.8868C61.6919 13.7455 61.658 13.6066 61.5957 13.4797C61.5334 13.3529 61.4444 13.241 61.3347 13.1519L61.1299 12.9471H61.4948C61.733 12.9569 61.9663 12.8775 62.1489 12.7242C62.2225 12.6653 62.2829 12.5916 62.3263 12.5079C62.5594 11.9007 62.9216 11.3515 63.3879 10.8981C62.9149 10.4595 62.5514 9.91606 62.3263 9.3115C62.2831 9.22626 62.2227 9.15088 62.1489 9.0901C61.9643 8.94113 61.7318 8.86425 61.4948 8.87374H61.1299L61.3405 8.66314C61.4492 8.57295 61.5372 8.46034 61.5984 8.33301C61.6597 8.20568 61.6927 8.06663 61.6953 7.92536C61.6964 7.85458 61.6879 7.78399 61.67 7.71549C61.4203 7.1538 61.2849 6.54797 61.2719 5.9334C61.2719 5.8894 61.2763 5.86128 61.2763 5.83676H61.1378C60.5389 5.82625 59.9482 5.69502 59.4012 5.45091C59.3311 5.42949 59.2581 5.41926 59.1848 5.42062C59.0433 5.42308 58.904 5.45666 58.7769 5.51898C58.6497 5.5813 58.5379 5.67083 58.4492 5.78122L58.2386 5.98965V5.62039C58.248 5.3849 58.1711 5.15408 58.0223 4.97131C57.9622 4.89728 57.8888 4.83515 57.8059 4.78813C57.2001 4.5647 56.654 4.20463 56.2099 3.73589C55.7587 4.19866 55.2121 4.5577 54.6082 4.78813C54.5238 4.83572 54.4484 4.89771 54.3854 4.97131C54.2375 5.15486 54.1594 5.38477 54.1647 5.62039C54.1647 5.64996 54.1704 5.66944 54.1704 5.69756V5.98604L53.9606 5.77762C53.8715 5.66791 53.7596 5.57885 53.6327 5.51659C53.5059 5.45433 53.367 5.42036 53.2257 5.41702C53.1527 5.41651 53.08 5.42548 53.0093 5.4437C52.4629 5.69075 51.8716 5.82329 51.272 5.83315H51.135V5.92979C51.1264 6.54328 50.994 7.14872 50.7455 7.70972C50.7257 7.7786 50.7162 7.85007 50.7174 7.92175C50.7182 8.06393 50.751 8.2041 50.8134 8.33184C50.8759 8.45957 50.9663 8.57159 51.078 8.65954L51.2807 8.87013H50.9201C50.6811 8.85983 50.4466 8.93672 50.2602 9.08649C50.186 9.14615 50.1258 9.2212 50.0835 9.30646C49.8578 9.91104 49.4957 10.4555 49.0255 10.8974C49.4878 11.3521 49.8478 11.9001 50.0813 12.505C50.1252 12.589 50.1864 12.6628 50.2609 12.7213C50.4453 12.8754 50.6807 12.9549 50.9208 12.9442H51.2814L51.0787 13.1548C50.9681 13.2418 50.8783 13.3524 50.8159 13.4785C50.7535 13.6047 50.7201 13.7432 50.7181 13.8839C50.7161 13.9571 50.7256 14.0301 50.7463 14.1003C50.9912 14.6478 51.122 15.2394 51.1306 15.8391V15.9754H51.2302C51.842 15.9838 52.4459 16.1155 53.0057 16.3627C53.0752 16.3868 53.1485 16.3983 53.2221 16.3966C53.3636 16.3923 53.5026 16.3575 53.6294 16.2945C53.7563 16.2315 53.868 16.1418 53.957 16.0317L54.1668 15.8254V16.1261C54.1668 16.1478 54.1611 16.1709 54.1611 16.1932C54.155 16.4303 54.2332 16.6618 54.3817 16.8466C54.4422 16.9191 54.5155 16.9798 54.5981 17.0255C55.2063 17.2538 55.7554 17.6159 56.2049 18.0849M56.166 18.1671C55.722 17.6965 55.177 17.3328 54.5721 17.1034C54.4113 17.015 54.2791 16.8824 54.1912 16.7212C54.1034 16.56 54.0637 16.377 54.0767 16.1939V16.0288L54.0183 16.0951C53.9211 16.2121 53.8001 16.3068 53.6632 16.373C53.5264 16.4392 53.3769 16.4753 53.225 16.4788C53.1419 16.4794 53.0593 16.4675 52.9798 16.4435C52.4282 16.1992 51.8333 16.0678 51.2302 16.0569C51.185 16.0561 51.1399 16.0593 51.0953 16.0663H51.0506V16.0295L51.0427 15.992V15.9877C51.0484 15.9398 51.0511 15.8916 51.0506 15.8434C51.0399 15.2548 50.9111 14.6743 50.672 14.1363C50.6453 14.0574 50.6324 13.9745 50.6337 13.8911C50.6383 13.7388 50.6755 13.5892 50.7426 13.4523C50.8098 13.3155 50.9055 13.1946 51.0232 13.0978L51.0845 13.0329H50.9258C50.7421 13.0461 50.5584 13.0068 50.3962 12.9194C50.234 12.8321 50.1 12.7003 50.0099 12.5396C49.8415 12.1115 49.6101 11.7109 49.3234 11.3511C49.2107 11.2061 49.0857 11.0713 48.9498 10.9479L48.9238 10.9212L48.939 10.8881L48.9664 10.8534C49.4307 10.4149 49.7888 9.87618 50.0135 9.27833C50.1031 9.1182 50.2366 8.98698 50.3982 8.90011C50.5598 8.81323 50.7429 8.77431 50.9258 8.78791C50.95 8.78681 50.9742 8.7885 50.9979 8.79296H51.0867L51.0253 8.7295C50.9065 8.63179 50.8101 8.50954 50.7429 8.37112C50.6757 8.23269 50.6392 8.08137 50.6359 7.92752C50.636 7.84384 50.6489 7.76066 50.6741 7.68087C50.917 7.13067 51.0458 6.53694 51.0528 5.93556V5.76824L51.0852 5.76175L51.127 5.75093H51.1342C51.1342 5.75093 51.1804 5.75093 51.2785 5.75093C51.8669 5.74246 52.4475 5.61438 52.9848 5.37446C53.0639 5.3488 53.1469 5.33732 53.23 5.34057C53.3816 5.34322 53.5309 5.3784 53.6678 5.44372C53.8046 5.50904 53.9259 5.60299 54.0233 5.7192L54.0817 5.79132L54.0897 5.70045C54.0831 5.67528 54.0804 5.64926 54.0817 5.62328C54.071 5.44003 54.1117 5.25743 54.1992 5.09609C54.2868 4.93475 54.4177 4.8011 54.5772 4.71024C55.0072 4.54862 55.4088 4.3198 55.7671 4.03231C55.9142 3.91821 56.0495 3.78967 56.171 3.64863L56.1991 3.62771L56.2258 3.64647L56.2684 3.67603C56.704 4.13782 57.241 4.49211 57.8369 4.71096C57.9957 4.80267 58.1261 4.93646 58.2136 5.09758C58.3012 5.2587 58.3425 5.44087 58.3331 5.624V5.79204L58.3937 5.71992C58.4913 5.6035 58.6125 5.50907 58.7492 5.44281C58.8859 5.37656 59.0351 5.34 59.187 5.33552C59.2703 5.33556 59.3531 5.34896 59.4322 5.37519C59.9685 5.61611 60.5485 5.74425 61.1364 5.75165C61.2308 5.75165 61.2806 5.75165 61.2806 5.75165H61.2936L61.3657 5.76896V5.80719C61.3604 5.85 61.3579 5.89313 61.3585 5.93628C61.369 6.53927 61.4981 7.13428 61.7385 7.68736C61.7667 7.76447 61.7801 7.84617 61.7782 7.92824C61.775 8.08087 61.7385 8.23096 61.6713 8.368C61.604 8.50504 61.5076 8.62571 61.3888 8.72156L61.3318 8.79368H61.4191C61.4428 8.78934 61.467 8.78765 61.4912 8.78863C61.6741 8.77728 61.8566 8.81716 62.0181 8.90379C62.1797 8.99042 62.3139 9.12037 62.4056 9.27905C62.5687 9.70378 62.7932 10.1023 63.072 10.4618C63.1869 10.6064 63.3141 10.7408 63.4521 10.8635L63.4903 10.9227L63.4629 10.9494C62.994 11.3961 62.6323 11.9433 62.4049 12.5497C62.3115 12.7065 62.1769 12.8347 62.0156 12.9201C61.8543 13.0056 61.6727 13.0451 61.4905 13.0343H61.3303L61.3873 13.0993C61.5057 13.1955 61.6017 13.3163 61.669 13.4532C61.7362 13.5902 61.773 13.7401 61.7768 13.8926C61.7779 13.9756 61.7663 14.0583 61.7421 14.1378C61.5036 14.6759 61.3751 15.2563 61.3643 15.8449V15.9891V15.9934L61.3513 16.0656H61.313C61.2677 16.0586 61.2219 16.0555 61.176 16.0562C60.5742 16.0667 59.9807 16.1981 59.4308 16.4427C59.3513 16.4669 59.2686 16.4788 59.1855 16.4781C59.0334 16.4755 58.8837 16.4398 58.7467 16.3736C58.6097 16.3073 58.4888 16.2121 58.3923 16.0944L58.3317 16.0281V16.1932C58.3435 16.3762 58.3031 16.5588 58.2153 16.7198C58.1274 16.8808 57.9958 17.0135 57.8355 17.1026C57.4114 17.2677 57.0146 17.4958 56.6585 17.7791C56.5146 17.8914 56.3803 18.0154 56.2568 18.1498L56.1984 18.1938L56.166 18.1671Z" fill="#EC5615"/>
<path d="M56.2114 18.7593C56.697 18.2469 57.2932 17.8523 57.9545 17.6053C58.0471 17.5585 58.1283 17.4921 58.1925 17.4106C58.3639 17.2105 58.4526 16.9526 58.4406 16.6894V16.3007L58.6663 16.5279C58.764 16.647 58.8865 16.7434 59.0252 16.8104C59.164 16.8774 59.3157 16.9134 59.4697 16.9159C59.527 16.9177 59.5842 16.9119 59.6399 16.8985C59.6628 16.896 59.6854 16.8907 59.707 16.8827C60.3182 16.613 60.9769 16.4676 61.6448 16.455C61.684 16.4536 61.7233 16.4551 61.7624 16.4593C61.7624 16.4399 61.7544 16.3872 61.7544 16.3079C61.7712 15.6531 61.9147 15.0077 62.177 14.4075C62.2054 14.3327 62.2191 14.2531 62.2174 14.1731C62.2131 14.0174 62.1749 13.8645 62.1056 13.725C62.0362 13.5855 61.9373 13.4628 61.8157 13.3654L61.5907 13.1425H61.9109C61.9346 13.1475 61.9588 13.1497 61.983 13.149C62.2455 13.1591 62.5023 13.0718 62.7042 12.9038C62.7846 12.8374 62.8522 12.757 62.904 12.6665C63.1558 12.0014 63.551 11.3998 64.0615 10.9046C63.5456 10.4213 63.1493 9.82453 62.904 9.1615C62.8524 9.06987 62.7847 8.98828 62.7042 8.92062C62.5009 8.7557 62.2447 8.67011 61.983 8.67973H61.5878L61.8208 8.4576C61.9404 8.35947 62.0375 8.23673 62.1054 8.09772C62.1734 7.95871 62.2106 7.8067 62.2145 7.65202C62.2126 7.57358 62.2015 7.49564 62.1814 7.41979C61.9029 6.80799 61.7555 6.14471 61.7487 5.47255V5.35355C61.7285 5.35355 61.6765 5.36365 61.5979 5.36365C60.9436 5.35245 60.2984 5.20868 59.7012 4.94102C59.6248 4.91517 59.5446 4.90272 59.4639 4.90424C59.3098 4.9086 59.1584 4.94586 59.0198 5.01352C58.8813 5.08119 58.7588 5.1777 58.6605 5.29658L58.4348 5.52231V5.13214C58.4479 4.86879 58.3591 4.61051 58.1867 4.41094C58.122 4.32869 58.041 4.26068 57.9487 4.21117C57.2881 3.96872 56.6934 3.57502 56.2121 3.06157C55.7133 3.56569 55.1126 3.95761 54.4503 4.21117C54.3606 4.26412 54.2805 4.33164 54.213 4.41094C54.045 4.6128 53.9577 4.8697 53.9678 5.13214V5.52664L53.7471 5.3009C53.6484 5.18262 53.5258 5.08653 53.3873 5.01892C53.2489 4.95131 53.0977 4.9137 52.9437 4.90857C52.8633 4.90875 52.7832 4.91992 52.7057 4.94174C52.1094 5.21076 51.4646 5.35554 50.8105 5.36725C50.7261 5.36725 50.6778 5.35716 50.6496 5.35716C50.6496 5.38456 50.6554 5.42928 50.6554 5.47688C50.6477 6.14677 50.5021 6.8079 50.2277 7.41907C50.2076 7.49566 50.1962 7.5743 50.1939 7.65346C50.1991 7.80797 50.2369 7.95961 50.3049 8.09845C50.3729 8.23729 50.4695 8.36018 50.5883 8.45904L50.8162 8.68118H50.4254C50.164 8.67368 49.9085 8.75902 49.7042 8.92206C49.6239 8.98751 49.5589 9.06972 49.5138 9.16294C49.2686 9.82537 48.872 10.4213 48.3555 10.9032C48.8625 11.3992 49.2574 11.998 49.5138 12.6593C49.5573 12.7543 49.6225 12.8378 49.7042 12.9031C49.9072 13.0689 50.1633 13.156 50.4254 13.1483C50.4496 13.1496 50.4739 13.1474 50.4975 13.1418H50.8177L50.5898 13.3697C50.471 13.468 50.3743 13.5903 50.3063 13.7287C50.2383 13.8671 50.2005 14.0183 50.1953 14.1724C50.1936 14.2519 50.2051 14.3311 50.2292 14.4068C50.4956 15.0034 50.639 15.6475 50.6511 16.3007C50.6511 16.3851 50.6446 16.4391 50.6446 16.4586C50.6853 16.4546 50.7263 16.4531 50.7672 16.4543C51.4361 16.4667 52.0958 16.6121 52.7079 16.882C52.7848 16.9063 52.8652 16.9178 52.9459 16.9159C53.1003 16.9124 53.2522 16.8754 53.3909 16.8074C53.5297 16.7394 53.6519 16.6421 53.7493 16.5221L53.97 16.3007V16.6894C53.9609 16.9517 54.0481 17.2082 54.2152 17.4106C54.2805 17.4907 54.3611 17.5569 54.4524 17.6053C55.1137 17.8594 55.7124 18.2529 56.2078 18.7593M56.1681 18.8472C55.6815 18.3302 55.0831 17.9313 54.4186 17.6811C54.2454 17.5818 54.1033 17.4362 54.0084 17.2606C53.9135 17.0851 53.8695 16.8865 53.8813 16.6872C53.8805 16.6614 53.8822 16.6356 53.8863 16.6101V16.5048L53.8142 16.5769C53.7074 16.7048 53.5748 16.8087 53.425 16.8817C53.2752 16.9546 53.1117 16.995 52.9452 17.0002C52.8538 17.0043 52.7625 16.9898 52.6769 16.9577C52.0744 16.6921 51.4248 16.5496 50.7665 16.5387C50.7183 16.5381 50.6701 16.5405 50.6222 16.5459L50.5826 16.5502L50.5718 16.5055L50.5653 16.468V16.2971C50.5598 15.6538 50.419 15.0188 50.152 14.4335C50.1288 14.3475 50.1176 14.2586 50.1188 14.1695C50.1212 14.0027 50.1601 13.8383 50.2327 13.6881C50.3054 13.5378 50.41 13.4053 50.5393 13.2998L50.6114 13.2276H50.4297C50.2292 13.2409 50.0291 13.1972 49.8524 13.1015C49.6758 13.0057 49.5299 12.8619 49.4316 12.6867C49.2505 12.2172 48.9967 11.7791 48.6794 11.3886C48.5582 11.2268 48.4209 11.0777 48.2697 10.9436L48.2394 10.9191L48.2647 10.8837L48.2928 10.8426C48.8006 10.365 49.1905 9.77593 49.4316 9.12183C49.5315 8.94841 49.6779 8.80636 49.8543 8.71169C50.0306 8.61701 50.2299 8.57347 50.4297 8.58598H50.6114L50.5393 8.51386C50.4099 8.40825 50.3052 8.2756 50.2326 8.12521C50.16 7.97483 50.1211 7.81036 50.1188 7.64337C50.1188 7.55315 50.1299 7.46327 50.152 7.3758C50.4225 6.77535 50.5654 6.1253 50.5718 5.46678V5.31533L50.5653 5.28071L50.6049 5.27133L50.6475 5.26268H50.654C50.654 5.26268 50.7095 5.26268 50.8148 5.26268C51.458 5.25318 52.0926 5.11282 52.6798 4.85015C52.7659 4.82004 52.8568 4.80562 52.9481 4.8076C53.1143 4.81107 53.2778 4.85067 53.4273 4.92365C53.5767 4.99663 53.7085 5.10124 53.8135 5.23023L53.8921 5.30884V5.2057C53.8881 5.17873 53.8865 5.15147 53.887 5.12421C53.8755 4.92442 53.9196 4.72534 54.0145 4.54913C54.1093 4.37291 54.2512 4.22646 54.4243 4.12607C54.8943 3.94086 55.3351 3.68898 55.7333 3.37818C55.889 3.25044 56.036 3.11238 56.1732 2.96493L56.202 2.93536L56.2352 2.9606L56.2713 2.9844C56.7492 3.4932 57.3387 3.88402 57.9935 4.12607C58.1655 4.22743 58.3062 4.37418 58.4004 4.55024C58.4945 4.7263 58.5384 4.92488 58.5271 5.12421V5.30884L58.5993 5.23023C58.7055 5.1005 58.8387 4.99549 58.9897 4.92251C59.1406 4.84952 59.3057 4.81031 59.4733 4.8076C59.5622 4.80631 59.6505 4.82072 59.7344 4.85015C60.325 5.11325 60.963 5.2536 61.6095 5.26268C61.7068 5.26268 61.7681 5.26268 61.7681 5.26268H61.7768L61.8489 5.27782V5.31533C61.8489 5.31533 61.8446 5.37014 61.8446 5.46678C61.858 6.12711 62.0016 6.7783 62.2672 7.38301C62.2945 7.4673 62.3076 7.55551 62.3061 7.64409C62.302 7.81111 62.262 7.97529 62.1889 8.12549C62.1157 8.27569 62.0111 8.40838 61.8821 8.51458L61.81 8.5867H61.9903C62.1901 8.57296 62.3898 8.61598 62.5662 8.71078C62.7427 8.80559 62.8888 8.94833 62.9877 9.12255C63.1662 9.58752 63.4145 10.0226 63.724 10.4128C63.845 10.5727 63.9823 10.7197 64.1336 10.8513L64.1783 10.9191L64.1509 10.9436C63.6366 11.4314 63.239 12.029 62.9877 12.6918C62.8891 12.8663 62.7431 13.0093 62.5665 13.1043C62.39 13.1993 62.1902 13.2423 61.9903 13.2284H61.81L61.8821 13.3005C62.011 13.4066 62.1156 13.5391 62.1888 13.6892C62.2619 13.8393 62.302 14.0033 62.3061 14.1702C62.3077 14.2593 62.2945 14.348 62.2672 14.4328C62.0013 15.0227 61.859 15.6609 61.8489 16.3079C61.8481 16.3585 61.851 16.4091 61.8576 16.4593V16.4723L61.8489 16.4766L61.8381 16.5538L61.7999 16.5495C61.7508 16.5441 61.7014 16.5417 61.652 16.5423C60.9921 16.5533 60.3411 16.6973 59.738 16.9656C59.6535 16.9918 59.5654 17.0044 59.4769 17.0031C59.3094 16.9994 59.1446 16.9597 58.9938 16.8866C58.843 16.8136 58.7096 16.7089 58.6029 16.5798L58.5307 16.5077V16.6901C58.5436 16.8899 58.4997 17.0892 58.4041 17.265C58.3086 17.4409 58.1652 17.5861 57.9906 17.6839C57.5282 17.8651 57.096 18.1156 56.709 18.4268C56.5494 18.5497 56.4005 18.686 56.2641 18.8343L56.1984 18.879L56.1681 18.8472Z" fill="#EC5615"/>
<path d="M56.2179 19.4177C56.7392 18.8573 57.3843 18.4263 58.1016 18.1592C58.2032 18.1067 58.2933 18.0346 58.367 17.9472C58.5434 17.7283 58.6344 17.4528 58.623 17.1719V16.7543L58.8639 16.9851C58.9688 17.1164 59.1015 17.2228 59.2523 17.2969C59.4032 17.3709 59.5685 17.4108 59.7365 17.4135C59.824 17.415 59.9114 17.4048 59.9962 17.3832C60.6565 17.086 61.3707 16.9272 62.0948 16.9166C62.1374 16.9152 62.1801 16.9167 62.2225 16.9209V16.755C62.2328 16.0461 62.3876 15.3467 62.6775 14.6996C62.7037 14.6171 62.7164 14.5309 62.715 14.4443C62.7095 14.2756 62.6681 14.1101 62.5934 13.9587C62.5188 13.8074 62.4128 13.6737 62.2823 13.5666L62.0472 13.3293H62.379C62.4067 13.3349 62.4351 13.3371 62.4633 13.3358C62.7478 13.3439 63.0259 13.2506 63.248 13.0726C63.3351 13.0007 63.4057 12.9109 63.455 12.8093C63.732 12.0913 64.1605 11.4414 64.7113 10.9039C64.1511 10.3813 63.7209 9.73496 63.455 9.01653C63.405 8.91601 63.3344 8.82708 63.248 8.75546C63.026 8.57722 62.7479 8.48389 62.4633 8.49222H62.0479L62.283 8.25711C62.4131 8.15066 62.519 8.0177 62.5936 7.8671C62.6682 7.71649 62.7099 7.55171 62.7157 7.38373C62.7179 7.29735 62.7053 7.21123 62.6782 7.12915C62.3851 6.46572 62.2288 5.74994 62.2189 5.02468V4.89054C62.1979 4.89054 62.1417 4.89487 62.0494 4.89487C61.3421 4.88484 60.6443 4.73099 59.9983 4.44267C59.9123 4.41816 59.8231 4.40625 59.7337 4.40733C59.5652 4.40873 59.3991 4.44765 59.2475 4.52125C59.096 4.59485 58.9627 4.70129 58.8574 4.83284L58.6201 5.06291V4.65038C58.6322 4.36761 58.5413 4.09007 58.3641 3.86932C58.2886 3.78261 58.1989 3.70944 58.0987 3.65296C57.3833 3.38622 56.7388 2.95859 56.215 2.40311C55.6774 2.95219 55.0274 3.37854 54.3096 3.65296C54.2115 3.71113 54.123 3.78411 54.0471 3.86932C53.8667 4.08872 53.7728 4.36653 53.7832 4.65038V5.0694L53.5531 4.83284C53.4466 4.70106 53.3122 4.59455 53.1595 4.52097C53.0069 4.44739 52.8398 4.40858 52.6704 4.40733C52.5857 4.40635 52.5014 4.41653 52.4194 4.43762C51.7712 4.7277 51.0705 4.88231 50.3604 4.89198C50.2775 4.89198 50.2162 4.88765 50.1931 4.88765C50.1931 4.9165 50.1967 4.95977 50.1967 5.02035C50.1875 5.74577 50.031 6.46176 49.7366 7.12482C49.7125 7.20748 49.7014 7.29334 49.7034 7.37941C49.7084 7.54817 49.7496 7.71389 49.8243 7.86533C49.899 8.01676 50.0053 8.15038 50.1361 8.25711L50.3633 8.48861H49.9479C49.665 8.47793 49.3881 8.57162 49.1698 8.75185C49.0814 8.82401 49.0079 8.91269 48.9534 9.01293C48.6919 9.73031 48.2649 10.3759 47.7072 10.8974H47.7007C48.2541 11.432 48.682 12.0828 48.9534 12.8028C49.0071 12.9042 49.0807 12.9937 49.1698 13.0661C49.3907 13.2477 49.6708 13.3415 49.9566 13.3293C49.9832 13.3304 50.0098 13.3282 50.0359 13.3228H50.3633L50.1361 13.5601C50.0048 13.6664 49.8982 13.7999 49.8235 13.9515C49.7488 14.103 49.7078 14.2689 49.7034 14.4378C49.7021 14.5241 49.7133 14.6101 49.7366 14.6931C50.027 15.338 50.1821 16.0356 50.1924 16.7428C50.1924 16.8336 50.1866 16.8985 50.1866 16.9144C50.2283 16.9103 50.2702 16.9089 50.3121 16.9101C51.0364 16.9204 51.751 17.0792 52.4115 17.3767C52.4385 17.3809 52.4652 17.3867 52.4915 17.394C52.5503 17.4044 52.61 17.4088 52.6697 17.407C52.8392 17.4045 53.0061 17.3649 53.1586 17.2909C53.3112 17.2169 53.4456 17.1103 53.5524 16.9786L53.7824 16.7478V17.1726C53.7727 17.4546 53.8666 17.7304 54.0464 17.9479C54.1182 18.0334 54.205 18.1053 54.3024 18.1599C55.0229 18.4369 55.675 18.8662 56.2143 19.4184M56.1681 19.5042C55.6409 18.9435 54.9916 18.5117 54.2707 18.2421C54.0843 18.1356 53.9315 17.9791 53.8295 17.7902C53.7276 17.6013 53.6805 17.3876 53.6937 17.1733C53.6937 17.1438 53.7017 17.1142 53.7017 17.081V16.9562L53.6137 17.0363C53.4992 17.1771 53.3554 17.2913 53.1924 17.3711C53.0295 17.4509 52.8511 17.4944 52.6697 17.4986C52.5734 17.4973 52.4779 17.4818 52.3862 17.4524C51.732 17.1638 51.0264 17.0097 50.3114 16.9995C50.2584 16.9992 50.2055 17.0016 50.1527 17.0067H50.1159L50.1109 16.9699L50.1008 16.9216V16.9159C50.1084 16.859 50.1118 16.8016 50.1109 16.7442C50.0975 16.0478 49.9445 15.3611 49.6609 14.7248C49.6287 14.6321 49.6131 14.5345 49.6147 14.4364C49.6191 14.256 49.6619 14.0787 49.7404 13.9162C49.8189 13.7538 49.9312 13.61 50.0698 13.4945L50.152 13.4166H49.9522C49.7353 13.4322 49.5183 13.3858 49.3268 13.2828C49.1352 13.1797 48.9769 13.0243 48.8705 12.8346C48.6726 12.325 48.4001 11.8477 48.062 11.4181C47.9245 11.2467 47.773 11.087 47.6091 10.9407L47.5846 10.9162L47.6012 10.8808L47.6307 10.8397C48.1808 10.3199 48.6048 9.68123 48.8705 8.97254C48.9764 8.78536 49.1331 8.63191 49.3224 8.52985C49.5118 8.42778 49.7261 8.38124 49.9407 8.39558H50.1498L50.0676 8.31841C49.9283 8.20309 49.8155 8.05903 49.737 7.8961C49.6584 7.73317 49.616 7.5552 49.6126 7.37436C49.6119 7.27631 49.6275 7.17883 49.6587 7.08588C49.946 6.43334 50.0991 5.72967 50.1087 5.01675V4.85808L50.1022 4.81481L50.139 4.80904L50.183 4.7975L50.1888 4.80327C50.1888 4.80327 50.2515 4.80327 50.3561 4.80327C51.0563 4.79334 51.7472 4.64044 52.3862 4.35396C52.4757 4.32001 52.5712 4.30479 52.6668 4.30925C52.8481 4.31291 53.0264 4.35596 53.1894 4.43541C53.3524 4.51486 53.4962 4.62882 53.6108 4.76938L53.6988 4.85015V4.73115C53.6924 4.70326 53.6898 4.67464 53.6909 4.64605C53.677 4.43027 53.7245 4.21497 53.8277 4.02497C53.9309 3.83498 54.0857 3.67802 54.2743 3.57218C54.7823 3.37291 55.2574 3.09817 55.6835 2.75722C55.8564 2.62336 56.0178 2.47523 56.166 2.31441L56.1948 2.28267L56.228 2.30142L56.2691 2.33099C56.7868 2.8837 57.4261 3.30838 58.1362 3.57146C58.3218 3.68012 58.4739 3.83785 58.5756 4.0273C58.6774 4.21675 58.725 4.43059 58.7132 4.64533V4.85592L58.7983 4.76866C58.9115 4.62815 59.0541 4.51414 59.216 4.43465C59.378 4.35515 59.5554 4.31211 59.7358 4.30853C59.8323 4.3043 59.9287 4.3195 60.0192 4.35324C60.6579 4.63853 61.3478 4.79138 62.0472 4.80255C62.1626 4.80255 62.2167 4.80255 62.2167 4.80255L62.2217 4.79678L62.2268 4.80255L62.309 4.81409L62.3032 4.85736C62.3032 4.85736 62.2989 4.90929 62.2989 5.01603C62.3107 5.7297 62.4647 6.43385 62.7518 7.08732C62.7836 7.18012 62.7992 7.2777 62.798 7.3758C62.7939 7.55573 62.7509 7.73265 62.6722 7.89447C62.5934 8.05628 62.4806 8.19917 62.3415 8.31336L62.26 8.39774H62.4626C62.6778 8.38261 62.8929 8.42878 63.083 8.5309C63.273 8.63301 63.4303 8.78689 63.5365 8.9747C63.7326 9.47677 64.0024 9.94685 64.337 10.3695C64.4721 10.54 64.6209 10.6992 64.7819 10.8455L64.8187 10.9133L64.8 10.9378C64.2378 11.4644 63.8053 12.1141 63.5365 12.836C63.4292 13.0228 63.2717 13.1759 63.0819 13.2779C62.8922 13.3798 62.6776 13.4266 62.4626 13.413H62.2578L62.3393 13.4909C62.4788 13.6056 62.5919 13.7492 62.6707 13.9118C62.7495 14.0744 62.7922 14.2521 62.7958 14.4328C62.7972 14.5292 62.7816 14.6252 62.7497 14.7162C62.4665 15.3551 62.3159 16.0447 62.3068 16.7435V16.9238L62.2967 17.0002H62.2578C62.2027 16.9946 62.1473 16.9922 62.0919 16.993C61.377 17.0035 60.6714 17.1575 60.0171 17.4459C59.9256 17.4752 59.8297 17.4889 59.7337 17.4863C59.5539 17.4852 59.3765 17.4442 59.2144 17.3664C59.0523 17.2886 58.9095 17.1759 58.7961 17.0363L58.711 16.9505V17.1726C58.7241 17.3871 58.6771 17.6011 58.5751 17.7903C58.4732 17.9795 58.3204 18.1365 58.1341 18.2436C57.6309 18.4338 57.1605 18.7014 56.74 19.0369C56.5669 19.1698 56.4075 19.3196 56.264 19.4841L56.1977 19.5259L56.1681 19.5042Z" fill="#EC5615"/>
<path d="M56.2186 20.0798C56.7802 19.4765 57.4763 19.0144 58.2502 18.7311C58.3532 18.6649 58.4469 18.5851 58.5286 18.4938C58.7258 18.2588 58.8287 17.9588 58.817 17.6522V17.213L59.0694 17.4582C59.1846 17.5983 59.328 17.7125 59.4903 17.7933C59.6526 17.8741 59.8302 17.9196 60.0113 17.927C60.1048 17.9305 60.1982 17.9158 60.2861 17.8837C60.9991 17.5667 61.7689 17.3974 62.5492 17.3861H62.6934C62.6934 17.3709 62.6883 17.3067 62.6883 17.2058C62.6995 16.4422 62.8674 15.6891 63.1816 14.9931C63.2077 14.9029 63.2201 14.8093 63.2184 14.7155C63.2146 14.5329 63.171 14.3533 63.0905 14.1894C63.01 14.0254 62.8947 13.881 62.7525 13.7664L62.5138 13.519H62.8578C62.889 13.5242 62.9207 13.5264 62.9523 13.5255C63.2576 13.537 63.5562 13.4341 63.7896 13.237C63.8837 13.159 63.9625 13.0641 64.0218 12.9572C64.319 12.1824 64.7806 11.4811 65.3748 10.9018C64.7765 10.3348 64.314 9.64009 64.0218 8.86941C63.9657 8.7595 63.8865 8.66305 63.7896 8.5867C63.557 8.38813 63.2578 8.28506 62.9523 8.29822H62.5145L62.7532 8.05157C62.8954 7.93821 63.0109 7.79492 63.0914 7.63187C63.1719 7.46883 63.2156 7.29004 63.2191 7.10823C63.2211 7.01506 63.2087 6.92214 63.1824 6.83274C62.8649 6.1173 62.6954 5.34503 62.684 4.56239C62.6823 4.51424 62.6842 4.46601 62.6898 4.41815C62.6273 4.42547 62.5644 4.4286 62.5016 4.42753C61.7392 4.41765 60.9871 4.25019 60.2926 3.93567C60.2675 3.92675 60.242 3.91928 60.2161 3.91331C60.0029 3.87934 59.7844 3.90272 59.5831 3.98104C59.3819 4.05936 59.2051 4.18981 59.0709 4.35901L58.8185 4.60494V4.16934C58.8308 3.86151 58.728 3.56014 58.53 3.32409C58.4521 3.23102 58.3577 3.15304 58.2516 3.09403C57.4816 2.80621 56.7869 2.34728 56.22 1.75187V1.74466C55.6407 2.33588 54.9413 2.79602 54.169 3.09403C54.0602 3.15338 53.9626 3.23124 53.8805 3.32409C53.6862 3.56191 53.5852 3.86241 53.5964 4.16934V4.60855L53.3562 4.36262C53.2409 4.22106 53.0962 4.10636 52.932 4.02651C52.7678 3.94667 52.5882 3.90361 52.4057 3.90033C52.3112 3.9009 52.2171 3.91203 52.1252 3.9335C51.4313 4.25055 50.679 4.41954 49.9162 4.42969C49.8538 4.431 49.7914 4.42787 49.7294 4.42032C49.735 4.46818 49.7369 4.5164 49.7352 4.56456C49.7231 5.34688 49.5513 6.11849 49.2303 6.83201C49.2004 6.92147 49.186 7.01537 49.1878 7.10968C49.1954 7.29218 49.2417 7.47099 49.3236 7.63424C49.4055 7.7975 49.5212 7.94147 49.663 8.05661L49.9061 8.29966H49.4647C49.1588 8.28656 48.8592 8.38961 48.626 8.58814C48.5312 8.66484 48.4514 8.75851 48.3909 8.86436C48.1052 9.63993 47.6425 10.3381 47.0394 10.9032C47.6343 11.48 48.0956 12.1801 48.3909 12.9543C48.4493 13.0639 48.5293 13.1605 48.626 13.2385C48.8598 13.4359 49.1589 13.5388 49.4647 13.5269C49.4954 13.5277 49.5261 13.5256 49.5563 13.5204H49.9003L49.6566 13.77C49.5167 13.8866 49.403 14.0312 49.3228 14.1946C49.2425 14.358 49.1975 14.5364 49.1907 14.7184C49.1879 14.8108 49.2023 14.903 49.2332 14.9902C49.5467 15.6878 49.7129 16.4425 49.7215 17.2072C49.7236 17.2676 49.7219 17.3281 49.7164 17.3882H49.8643C50.644 17.3996 51.4134 17.5688 52.1259 17.8859C52.2161 17.9167 52.3111 17.9314 52.4064 17.9291C52.5888 17.9219 52.7676 17.8763 52.9311 17.7952C53.0946 17.7142 53.2393 17.5996 53.3555 17.4589L53.5957 17.2159V17.6551C53.5851 17.9608 53.6861 18.26 53.8798 18.4967C53.9596 18.592 54.0577 18.6702 54.1683 18.7268C54.9417 19.0257 55.6413 19.4882 56.2193 20.0827M56.1732 20.162C55.5998 19.5656 54.9013 19.104 54.1279 18.8105C53.9271 18.6951 53.7626 18.526 53.6528 18.3221C53.5431 18.1182 53.4926 17.8876 53.5069 17.6565C53.5069 17.6234 53.5149 17.5988 53.5149 17.5678V17.4236L53.4154 17.5231C53.293 17.6732 53.1392 17.7945 52.9647 17.8784C52.7902 17.9623 52.5993 18.0067 52.4057 18.0085C52.2994 18.0111 52.1934 17.9975 52.0913 17.9681C51.3896 17.6564 50.632 17.4903 49.8643 17.4798C49.7546 17.4798 49.689 17.4842 49.689 17.4842H49.6465L49.64 17.4467L49.632 17.3983V17.3868C49.632 17.3868 49.632 17.3147 49.632 17.2058C49.6226 16.4542 49.4589 15.7127 49.151 15.027C49.1221 14.9262 49.1076 14.8218 49.1077 14.7169C49.11 14.5233 49.1547 14.3326 49.2387 14.1581C49.3227 13.9837 49.4439 13.8298 49.5938 13.7072L49.6933 13.6135H49.4633C49.2316 13.6286 49.0003 13.5779 48.7961 13.4673C48.592 13.3567 48.4232 13.1906 48.3094 12.9882C48.0939 12.4426 47.7984 11.9321 47.4324 11.4737C47.2879 11.2857 47.1269 11.1109 46.9514 10.9515L46.9225 10.9248L46.9435 10.8917L46.9709 10.8505L46.9788 10.8462C47.5689 10.2857 48.0238 9.59837 48.3094 8.83623C48.4243 8.63514 48.5934 8.47042 48.7974 8.36087C49.0015 8.25132 49.2322 8.20137 49.4633 8.21672C49.4885 8.21672 49.5239 8.21672 49.5549 8.21672H49.6933L49.5938 8.12152C49.4443 7.99864 49.3234 7.84465 49.2394 7.67028C49.1555 7.49591 49.1105 7.30535 49.1077 7.11184C49.1064 7.00606 49.1215 6.90072 49.1524 6.79956C49.4651 6.09505 49.6319 5.33454 49.6429 4.56383C49.6437 4.50666 49.6401 4.44951 49.632 4.39291V4.35685L49.6703 4.34459L49.7178 4.3381H49.7315C49.7315 4.3381 49.7921 4.3381 49.9126 4.3381C50.665 4.32749 51.4073 4.16356 52.0941 3.85634C52.1937 3.82487 52.2977 3.80977 52.4021 3.81162C52.5956 3.81645 52.7858 3.86264 52.96 3.94711C53.1341 4.03158 53.2882 4.15235 53.4118 4.30132L53.5113 4.3994V4.26526C53.5113 4.23497 53.5033 4.20251 53.5033 4.16934C53.4899 3.93837 53.5408 3.70821 53.6505 3.50447C53.7601 3.30074 53.9241 3.13144 54.1243 3.01541C54.6756 2.80485 55.1909 2.50997 55.6517 2.14132C55.8386 1.99725 56.0121 1.83674 56.1703 1.66172L56.1984 1.6271L56.2316 1.65018L56.2727 1.68335C56.8325 2.27696 57.5222 2.73288 58.2877 3.01541C58.486 3.13273 58.6481 3.30257 58.7561 3.5062C58.864 3.70983 58.9135 3.93932 58.8992 4.16934V4.3994L58.9995 4.30492C59.1224 4.15494 59.2763 4.03323 59.4505 3.9481C59.6247 3.86297 59.8153 3.81642 60.0091 3.81162C60.1134 3.81187 60.2171 3.82692 60.3171 3.85634C61.0038 4.16329 61.7458 4.32721 62.498 4.3381C62.6198 4.3381 62.6804 4.3381 62.6804 4.3381H62.6956L62.7771 4.35685L62.772 4.39291C62.772 4.39291 62.7662 4.45565 62.7662 4.56383C62.7787 5.33421 62.9449 6.09433 63.2552 6.79956C63.2883 6.89907 63.3049 7.00335 63.3042 7.10823C63.2998 7.30115 63.2539 7.49085 63.1697 7.66445C63.0855 7.83805 62.9648 7.99148 62.816 8.11431L62.7158 8.21528H62.8506C62.8816 8.21528 62.9227 8.21528 62.9487 8.21528C63.1799 8.19889 63.4111 8.24839 63.6153 8.35804C63.8195 8.4677 63.9885 8.633 64.1026 8.83479C64.3128 9.37689 64.6033 9.88428 64.9644 10.3399C65.1089 10.526 65.2699 10.6985 65.4454 10.8556L65.4837 10.9241L65.4635 10.9508C64.8611 11.5208 64.396 12.2201 64.1033 12.9961C63.9884 13.1972 63.8192 13.3618 63.6152 13.4714C63.4112 13.5809 63.1805 13.6309 62.9494 13.6156H62.7172L62.8138 13.7094C62.9636 13.8324 63.085 13.9863 63.1699 14.1606C63.2548 14.3348 63.3011 14.5253 63.3057 14.7191C63.3064 14.8244 63.2898 14.9292 63.2566 15.0292C62.9503 15.7159 62.786 16.4575 62.7734 17.2094C62.7734 17.3205 62.7785 17.3897 62.7785 17.3897V17.4019L62.7633 17.482H62.7251C62.7251 17.482 62.6638 17.4777 62.5477 17.4777C61.7787 17.4885 61.02 17.6558 60.3178 17.9695C60.0782 18.0277 59.8269 18.0164 59.5934 17.937C59.3599 17.8575 59.1539 17.7132 58.9995 17.5209L58.8992 17.4257V17.6551C58.915 17.8859 58.8656 18.1165 58.7566 18.3206C58.6475 18.5246 58.4833 18.6939 58.2826 18.809C57.7414 19.0225 57.2343 19.3141 56.7775 19.6745C56.5944 19.8197 56.423 19.9791 56.2648 20.1512L56.1984 20.193L56.1732 20.162Z" fill="#EC5615"/>
<path d="M56.2114 20.7959C56.8335 20.1764 57.5787 19.6944 58.3988 19.3809C58.3988 19.3809 58.411 19.3809 58.4132 19.3744C58.4153 19.3679 58.4485 19.3521 58.4774 19.3348C58.5487 19.2855 58.6125 19.2262 58.667 19.1588C58.8656 18.9245 58.9686 18.624 58.9555 18.3172V17.5354L59.4336 18.02C59.5492 18.1615 59.6941 18.2762 59.8584 18.3561C60.0226 18.4361 60.2023 18.4794 60.3849 18.483C60.4695 18.4852 60.554 18.4755 60.6359 18.4542L60.6438 18.4506C61.4428 18.1004 62.303 17.9112 63.1752 17.8938H63.204V17.8181C63.2164 16.9657 63.4029 16.1249 63.7521 15.3472C63.757 15.3275 63.7606 15.3075 63.7629 15.2874C63.7775 15.2218 63.785 15.1548 63.7853 15.0876C63.7805 14.9035 63.7352 14.7227 63.6526 14.5582C63.5699 14.3936 63.452 14.2493 63.3071 14.1356L62.829 13.6567H63.6093C63.8182 13.6734 64.0276 13.6319 64.2144 13.5368C64.4011 13.4417 64.5579 13.2968 64.6673 13.118C64.6723 13.1122 64.6781 13.1079 64.6781 13.1057C64.9986 12.283 65.4821 11.5336 66.0996 10.9025C65.4756 10.2844 64.991 9.54006 64.6781 8.7194C64.6754 8.71221 64.6718 8.70542 64.6673 8.69921C64.663 8.68839 64.6478 8.66675 64.6348 8.64223C64.5847 8.57074 64.525 8.50644 64.4574 8.45111C64.2177 8.2572 63.9168 8.15493 63.6086 8.16263C63.575 8.16189 63.5414 8.16431 63.5083 8.16984H62.8283L63.3172 7.68087C63.4603 7.56676 63.5764 7.42244 63.6572 7.25824C63.7379 7.09404 63.7814 6.91402 63.7846 6.73105C63.7853 6.64719 63.7742 6.56366 63.7514 6.48295V6.46781C63.3956 5.67052 63.2074 4.80868 63.1982 3.93567V3.91692H63.1189C62.268 3.90195 61.429 3.71476 60.6525 3.36664C60.6315 3.36378 60.6109 3.35846 60.5911 3.35077C60.5242 3.34119 60.4568 3.33565 60.3892 3.33419C60.205 3.3382 60.024 3.38251 59.8588 3.464C59.6936 3.54548 59.5482 3.66217 59.4329 3.80585L58.9591 4.28473V3.50655C58.9739 3.29699 58.9312 3.08737 58.8356 2.90029C58.7401 2.71321 58.5952 2.55576 58.4168 2.44494H58.406C57.5837 2.12766 56.8363 1.64284 56.2114 1.02129C55.5817 1.63878 54.8334 2.12233 54.0118 2.44278H53.9952C53.9829 2.45143 53.9628 2.46658 53.9368 2.48533C53.8665 2.53696 53.8015 2.59543 53.7428 2.65986C53.5495 2.89822 53.4472 3.19757 53.4543 3.50439C53.4543 3.53107 53.4601 3.56569 53.4601 3.59742V4.28401L52.974 3.79936C52.8599 3.65635 52.7156 3.54035 52.5514 3.45968C52.3871 3.37901 52.2071 3.33566 52.0242 3.33274C51.9402 3.32869 51.8562 3.33968 51.7761 3.3652H51.7653C50.9889 3.71273 50.1501 3.89943 49.2996 3.91403H49.2166V3.9436C49.2021 4.81352 49.0138 5.67175 48.6628 6.46781C48.661 6.492 48.6578 6.51608 48.6534 6.53993C48.6344 6.60134 48.6249 6.66531 48.6253 6.7296C48.6311 6.9137 48.6765 7.09438 48.7586 7.25929C48.8406 7.42421 48.9572 7.56948 49.1005 7.6852L49.5772 8.16768H48.8971C48.8684 8.16206 48.8391 8.15964 48.8099 8.16047C48.6005 8.14831 48.3916 8.19165 48.2043 8.28612C48.017 8.38059 47.8579 8.52284 47.7433 8.69848C47.7403 8.70403 47.7388 8.71023 47.7389 8.71651C47.4226 9.53433 46.9412 10.2782 46.3247 10.9018C46.9349 11.5372 47.4153 12.2856 47.7389 13.105C47.739 13.1095 47.7405 13.1138 47.7433 13.1173C47.7582 13.1381 47.7715 13.16 47.7829 13.1829C47.8326 13.253 47.8913 13.3163 47.9575 13.3712C48.1953 13.5664 48.4966 13.6676 48.8041 13.6553H49.5794L49.1005 14.1342C48.9589 14.2504 48.8435 14.3953 48.7621 14.5594C48.6806 14.7236 48.635 14.9031 48.6281 15.0862C48.6285 15.1703 48.6411 15.2538 48.6657 15.3343V15.3458C49.015 16.1234 49.2015 16.9643 49.2137 17.8166V17.8924H49.2339C50.1074 17.9091 50.9688 18.0983 51.7689 18.4491C51.7905 18.4546 51.8117 18.4616 51.8324 18.47C51.8968 18.4803 51.9619 18.4856 52.0271 18.4859C52.2114 18.4796 52.3923 18.4344 52.5579 18.3534C52.7236 18.2724 52.8703 18.1573 52.9884 18.0157L53.463 17.5339V18.2191C53.463 18.2515 53.4572 18.2797 53.4572 18.3157C53.4429 18.5243 53.4855 18.7328 53.5806 18.919C53.6756 19.1053 53.8194 19.2622 53.9966 19.373C54.0018 19.376 54.0074 19.3781 54.0132 19.3795C54.8351 19.6966 55.5835 20.1781 56.2128 20.7945M56.0744 21.1479C56.0339 21.0967 55.9898 21.0485 55.9424 21.0036C55.8458 20.9149 55.708 20.7808 55.5212 20.6365C55.024 20.2419 54.4708 19.9235 53.8798 19.6918H53.8704C53.6371 19.5578 53.4444 19.363 53.3129 19.1282C53.1815 18.8933 53.1162 18.6273 53.124 18.3583C52.8344 18.6529 52.4402 18.8213 52.0271 18.827C51.8995 18.8277 51.7726 18.8089 51.6506 18.7715H51.6456V18.7643C50.8843 18.4308 50.0642 18.2526 49.2332 18.24C49.1186 18.24 49.0601 18.2458 49.0601 18.2458L48.9058 18.2559L48.8777 18.1116L48.8582 18.0395L48.8697 18.0128C48.8697 18.0128 48.8697 17.9472 48.8697 17.8195C48.8576 17.0106 48.6809 16.2126 48.3505 15.4742H48.344C48.3087 15.3491 48.2912 15.2197 48.2921 15.0898C48.2933 14.8858 48.3351 14.6842 48.4151 14.4966C48.4951 14.309 48.6116 14.1392 48.758 13.9972C48.4881 14.0055 48.2211 13.9402 47.9856 13.8083C47.75 13.6765 47.5548 13.4829 47.4209 13.2485L47.4166 13.2421C47.1224 12.4755 46.6795 11.7748 46.1134 11.1801C46.0203 11.0929 45.9627 11.0453 45.9627 11.0453L45.8473 10.9508L45.9295 10.8239L45.9742 10.7597L45.9915 10.7431C45.9915 10.7431 46.0377 10.7063 46.1357 10.6104C46.2666 10.4862 46.3871 10.3516 46.4963 10.208C46.8879 9.72021 47.2001 9.17381 47.4216 8.58886V8.58237L47.4259 8.5766C47.5611 8.34309 47.7565 8.15016 47.9917 8.01796C48.2269 7.88577 48.4933 7.81916 48.763 7.82511C48.6168 7.6833 48.5002 7.51376 48.4202 7.32641C48.3402 7.13906 48.2984 6.93764 48.2971 6.73393C48.2958 6.60681 48.3133 6.48019 48.3491 6.35818L48.3555 6.35025C48.6888 5.59401 48.8671 4.7786 48.8798 3.95226C48.8798 3.83254 48.8748 3.76907 48.8748 3.76907L48.8596 3.62483L49.0104 3.59093L49.0825 3.57723L49.1106 3.58156C49.1106 3.58156 49.1698 3.58661 49.3025 3.58661C50.1106 3.57049 50.9073 3.39271 51.6456 3.06373H51.6506V3.05075C51.7719 3.01031 51.8992 2.9908 52.0271 2.99306C52.2319 2.99371 52.4345 3.0354 52.6229 3.11567C52.8113 3.19594 52.9817 3.31316 53.124 3.4604C53.1157 3.19179 53.1808 2.926 53.3123 2.69166C53.4438 2.45731 53.6368 2.26329 53.8704 2.1305H53.8762C54.6436 1.83168 55.3445 1.38441 55.9388 0.814306C55.986 0.770767 56.0301 0.724018 56.0708 0.674393L56.1717 0.553952L56.2972 0.639775L56.365 0.677999L56.3729 0.697471C56.3729 0.697471 56.4155 0.746513 56.5071 0.841712C56.5987 0.93691 56.7335 1.0523 56.9138 1.19582C57.4038 1.58301 57.9475 1.89689 58.5278 2.12761H58.5358H58.5415C58.777 2.25891 58.9718 2.4524 59.1047 2.68694C59.2377 2.92149 59.3035 3.18805 59.2952 3.45751C59.5825 3.16398 59.9742 2.99598 60.3849 2.99017C60.512 2.98766 60.6387 3.00718 60.7592 3.04787L60.7635 3.05147H60.7714C61.5113 3.38111 62.3098 3.55891 63.1196 3.57435C63.248 3.57435 63.3071 3.5693 63.3071 3.5693L63.3331 3.56497L63.5538 3.61329L63.543 3.75753C63.543 3.75753 63.5386 3.821 63.5386 3.93423C63.5502 4.76302 63.7292 5.58092 64.0651 6.33871V6.34953C64.1067 6.47035 64.127 6.5975 64.125 6.72528C64.1242 6.92907 64.0826 7.13064 64.0026 7.31807C63.9225 7.5055 63.8057 7.67497 63.6591 7.81645C63.9283 7.81032 64.1943 7.87687 64.429 8.00911C64.6636 8.14136 64.8583 8.33441 64.9925 8.56795V8.58021C65.2806 9.33367 65.7188 10.0207 66.2806 10.5996C66.325 10.6476 66.3732 10.692 66.4248 10.7323L66.4428 10.7489L66.5654 10.9393L66.4479 11.0337C66.4479 11.0337 66.3967 11.0813 66.3116 11.1686C66.1796 11.302 66.0549 11.4423 65.938 11.5891C65.5399 12.0838 65.2214 12.6376 64.994 13.2305V13.2471C64.861 13.4815 64.6665 13.6752 64.4315 13.8071C64.1965 13.939 63.9299 14.0043 63.6605 13.9957C63.8065 14.138 63.9228 14.3079 64.0028 14.4954C64.0827 14.6829 64.1248 14.8845 64.1264 15.0883C64.1291 15.2173 64.1088 15.3458 64.0665 15.4677V15.4735C63.7358 16.2119 63.5584 17.0098 63.5451 17.8188C63.5451 17.9465 63.5502 18.0121 63.5502 18.0121V18.0337L63.5069 18.2566L63.3562 18.2465C63.3562 18.2465 63.2992 18.2407 63.1788 18.2407C62.3506 18.2536 61.5334 18.4318 60.7751 18.765L60.7635 18.7737C60.6425 18.8122 60.5162 18.8309 60.3892 18.8292C60.1856 18.827 59.9845 18.7844 59.7974 18.7039C59.6104 18.6235 59.4411 18.5067 59.2995 18.3604C59.3074 18.6303 59.2414 18.8972 59.1085 19.1322C58.9757 19.3672 58.7811 19.5615 58.5459 19.6939H58.5322C57.781 19.9868 57.0948 20.4247 56.5129 20.9827C56.4213 21.0794 56.3787 21.1219 56.3787 21.1219L56.365 21.1421L56.1782 21.2633L56.0744 21.1479Z" fill="#EC5615"/>
<mask id="mask0_121_349" style="mask-type:luminance" maskUnits="userSpaceOnUse" x="49" y="4" width="14" height="14">
<path d="M54.7281 5.25538C54.5787 5.34086 54.4579 5.46864 54.3809 5.62264C54.3039 5.77664 54.2741 5.94997 54.2954 6.12082V6.3004L54.1779 6.17275C54.0731 6.03626 53.9304 5.93365 53.7676 5.87773C53.6049 5.82181 53.4293 5.81506 53.2627 5.85831C52.7214 6.10589 52.1304 6.22558 51.5355 6.20809L51.5102 6.21386C51.5256 6.81491 51.4045 7.41163 51.1561 7.95917C51.1131 8.12622 51.1195 8.30218 51.1745 8.46567C51.2296 8.62917 51.3309 8.77315 51.4662 8.88014L51.5939 9.0013H51.4179C51.2476 8.97727 51.074 9.00499 50.9197 9.08087C50.7654 9.15675 50.6374 9.27728 50.5525 9.42681C50.3439 9.98109 50.0111 10.4802 49.5796 10.8858L49.5638 10.9147C50.0006 11.3262 50.3389 11.8311 50.5532 12.3917C50.6374 12.5423 50.7649 12.6642 50.9193 12.7414C51.0736 12.8185 51.2476 12.8475 51.4186 12.8244H51.5946L51.467 12.9427C51.3318 13.0488 51.2305 13.192 51.1754 13.3548C51.1203 13.5176 51.1139 13.6929 51.1568 13.8593C51.4041 14.3972 51.5243 14.9847 51.5081 15.5765V15.6097C52.1112 15.5912 52.7107 15.7108 53.2605 15.9595C53.4268 16.0028 53.6022 15.9964 53.7649 15.941C53.9276 15.8857 54.0704 15.7837 54.1757 15.6479L54.2933 15.5246V15.7013C54.2721 15.8721 54.3018 16.0454 54.3788 16.1994C54.4558 16.3534 54.5766 16.4812 54.726 16.5667C55.2871 16.7788 55.793 17.1151 56.2058 17.5504L56.2347 17.5382C56.6395 17.1053 57.1395 16.7724 57.6951 16.566C57.8435 16.4799 57.9629 16.3517 58.0383 16.1976C58.1137 16.0435 58.1416 15.8705 58.1184 15.7005V15.5239L58.2432 15.6472C58.3484 15.7831 58.4913 15.8851 58.654 15.9405C58.8167 15.9959 58.9921 16.0022 59.1584 15.9587C59.7065 15.7103 60.3043 15.5906 60.9058 15.609L60.9116 15.5758C60.8959 14.9848 61.0134 14.3979 61.2556 13.8586C61.3007 13.6919 61.2949 13.5156 61.239 13.3523C61.1831 13.1889 61.0796 13.046 60.9419 12.942L60.8243 12.8237H60.9996C61.1704 12.8449 61.3437 12.8151 61.4977 12.7381C61.6517 12.6611 61.7794 12.5403 61.865 12.391C62.0783 11.8307 62.4153 11.3258 62.8508 10.9139L62.8306 10.8851C62.402 10.4784 62.0715 9.97944 61.8643 9.42609C61.779 9.27683 61.651 9.15653 61.4968 9.08069C61.3425 9.00485 61.1691 8.97694 60.9988 9.00058H60.8236L60.9411 8.87942C61.0797 8.77504 61.1837 8.63142 61.2397 8.46719C61.2956 8.30297 61.3009 8.12572 61.2549 7.95845C61.0116 7.4094 60.8922 6.81353 60.9051 6.21314L60.8719 6.20737C60.2812 6.22438 59.6945 6.10468 59.1577 5.85758C58.9911 5.81424 58.8154 5.82095 58.6527 5.87687C58.4899 5.9328 58.3472 6.03546 58.2425 6.17203L58.1177 6.29968V6.1201C58.1409 5.95013 58.113 5.77712 58.0376 5.62303C57.9622 5.46893 57.8428 5.34072 57.6944 5.25466C57.1399 5.04809 56.6403 4.71697 56.234 4.28681L56.2051 4.26878C55.7923 4.70461 55.2865 5.04162 54.7253 5.25466" fill="white"/>
</mask>
<g mask="url(#mask0_121_349)">
<path d="M62.8558 4.26947H49.5658V17.5533H62.8558V4.26947Z" fill="url(#paint0_radial_121_349)"/>
</g>
<mask id="mask1_121_349" style="mask-type:luminance" maskUnits="userSpaceOnUse" x="1" y="0" width="68" height="48">
<path d="M68.7781 0.554657H1.22119V47.5547H68.7781V0.554657Z" fill="white"/>
</mask>
<g mask="url(#mask1_121_349)">
<path d="M56.2057 13.1403C55.7654 13.1391 55.3353 13.0074 54.9697 12.762C54.6041 12.5165 54.3194 12.1683 54.1515 11.7612C53.9836 11.3541 53.94 10.9065 54.0262 10.4746C54.1124 10.0428 54.3246 9.64619 54.6359 9.33482C54.9473 9.02344 55.3439 8.81126 55.7757 8.72504C56.2075 8.63882 56.6552 8.68242 57.0623 8.85034C57.4693 9.01826 57.8176 9.30298 58.063 9.66858C58.3084 10.0342 58.4401 10.4643 58.4414 10.9046C58.4414 11.4976 58.2058 12.0662 57.7866 12.4855C57.3673 12.9048 56.7987 13.1403 56.2057 13.1403Z" fill="white"/>
</g>
<mask id="mask2_121_349" style="mask-type:luminance" maskUnits="userSpaceOnUse" x="54" y="9" width="4" height="4">
<path d="M54.5846 10.9082C54.5846 11.2296 54.6799 11.5438 54.8585 11.8109C55.0371 12.0781 55.291 12.2863 55.588 12.4091C55.885 12.5319 56.2117 12.5639 56.5268 12.5009C56.842 12.4379 57.1314 12.2829 57.3584 12.0554C57.5854 11.8279 57.7397 11.5382 57.802 11.2229C57.8643 10.9076 57.8316 10.5809 57.7081 10.2842C57.5846 9.98749 57.3759 9.73408 57.1083 9.55605C56.8408 9.37802 56.5264 9.28338 56.2051 9.28409C55.7749 9.28505 55.3628 9.45658 55.059 9.76106C54.7552 10.0655 54.5846 10.4781 54.5846 10.9082Z" fill="white"/>
</mask>
<g mask="url(#mask2_121_349)">
<path d="M57.8335 9.28409H54.5846V12.5374H57.8335V9.28409Z" fill="url(#paint1_radial_121_349)"/>
</g>
<mask id="mask3_121_349" style="mask-type:luminance" maskUnits="userSpaceOnUse" x="3" y="0" width="66" height="48">
<path d="M68.7781 0.554657H3.38474V47.5547H68.7781V0.554657Z" fill="white"/>
</mask>
<g mask="url(#mask3_121_349)">
<path d="M27.6627 4.07556C26.0846 5.65712 25.1036 7.73687 24.8867 9.96056C24.6698 12.1842 25.2305 14.4144 26.4733 16.271C27.7161 18.1277 29.5641 19.4961 31.7025 20.1432C33.8409 20.7903 36.1376 20.676 38.2012 19.8199C40.2648 18.9637 41.9678 17.4186 43.0202 15.4477C44.0725 13.4768 44.4091 11.2021 43.9726 9.01088C43.536 6.8197 42.3534 4.84762 40.6261 3.43053C38.8988 2.01344 36.7337 1.23899 34.4995 1.23908C33.2289 1.23592 31.9703 1.48502 30.7967 1.97192C29.6231 2.45883 28.5579 3.17386 27.6627 4.07556ZM24.4895 10.9082C24.4895 8.92781 25.0767 6.99187 26.1769 5.34521C27.2772 3.69856 28.841 2.41514 30.6706 1.65727C32.5002 0.899398 34.5135 0.701104 36.4558 1.08746C38.3981 1.47382 40.1823 2.42749 41.5826 3.82785C42.9829 5.22822 43.9366 7.01239 44.3229 8.95476C44.7093 10.8971 44.511 12.9104 43.7531 14.7401C42.9953 16.5698 41.7119 18.1336 40.0653 19.2339C38.4186 20.3341 36.4827 20.9214 34.5024 20.9214C33.1872 20.9219 31.8849 20.6632 30.6697 20.1602C29.4546 19.6572 28.3504 18.9197 27.4204 17.9898C26.4903 17.0599 25.7526 15.9559 25.2493 14.7408C24.746 13.5257 24.4871 12.2234 24.4873 10.9082" fill="#C10A29"/>
<path d="M28.0226 4.43616C26.5291 5.93358 25.6009 7.90243 25.396 10.0074C25.1911 12.1123 25.7223 14.2232 26.899 15.9805C28.0757 17.7378 29.8252 19.0328 31.8495 19.645C33.8739 20.2572 36.0478 20.1487 38.0011 19.338C39.9544 18.5273 41.5662 17.0645 42.5621 15.1988C43.558 13.333 43.8764 11.1797 43.4629 9.10564C43.0495 7.03154 41.9299 5.1649 40.2947 3.82364C38.6596 2.48239 36.61 1.74946 34.4952 1.74969C33.2923 1.74733 32.1008 1.98354 30.9898 2.44467C29.8788 2.9058 28.8703 3.58269 28.0226 4.43616ZM25.1378 10.9053C25.138 9.05337 25.6873 7.24304 26.7164 5.70334C27.7455 4.16363 29.2081 2.96371 30.9192 2.25536C32.6303 1.547 34.5131 1.36203 36.3293 1.72384C38.1455 2.08565 39.8137 2.97798 41.1227 4.28798C42.4318 5.59797 43.323 7.26678 43.6835 9.08331C44.044 10.8998 43.8578 12.7825 43.1482 14.4932C42.4387 16.2038 41.2378 17.6656 39.6974 18.6937C38.157 19.7217 36.3464 20.2698 34.4945 20.2687C32.013 20.267 29.6336 19.2802 27.8792 17.5252C26.1248 15.7702 25.1388 13.3905 25.1378 10.909" fill="#C10A29"/>
<path d="M28.4243 4.8321C27.0231 6.2382 26.1526 8.08655 25.9611 10.0624C25.7697 12.0382 26.269 14.0193 27.3742 15.6683C28.4793 17.3173 30.1219 18.5322 32.0222 19.106C33.9224 19.6799 35.9629 19.5773 37.796 18.8157C39.6291 18.054 41.1415 16.6805 42.0756 14.9289C43.0098 13.1774 43.3079 11.1562 42.9191 9.20952C42.5304 7.26287 41.4789 5.51118 39.9437 4.25277C38.4085 2.99435 36.4845 2.30704 34.4995 2.3079C33.3703 2.30593 32.2518 2.52802 31.209 2.9613C30.1662 3.39459 29.2196 4.03047 28.4243 4.8321ZM25.6982 10.909C25.6982 9.16874 26.2142 7.46761 27.181 6.02068C28.1478 4.57374 29.5219 3.446 31.1296 2.78005C32.7373 2.1141 34.5064 1.93985 36.2131 2.27935C37.9199 2.61885 39.4876 3.45684 40.7181 4.68736C41.9486 5.91787 42.7865 7.48564 43.126 9.19242C43.4655 10.8992 43.2913 12.6683 42.6253 14.2761C41.9594 15.8838 40.8317 17.258 39.3848 18.2248C37.9379 19.1916 36.2368 19.7076 34.4966 19.7076C32.1635 19.7063 29.9264 18.7788 28.2767 17.1291C26.6269 15.4793 25.6995 13.2421 25.6982 10.909Z" fill="#C10A29"/>
<path d="M28.7819 5.19415C27.4616 6.5161 26.6403 8.25494 26.458 10.1145C26.2757 11.974 26.7438 13.8392 27.7823 15.3924C28.8209 16.9456 30.3658 18.0907 32.1539 18.6327C33.9419 19.1746 35.8626 19.0799 37.5887 18.3647C39.3148 17.6495 40.7395 16.3579 41.6203 14.7101C42.501 13.0623 42.7833 11.1601 42.419 9.3275C42.0547 7.49491 41.0663 5.84531 39.6223 4.65965C38.1783 3.474 36.3679 2.82564 34.4995 2.825C33.4375 2.82424 32.3857 3.03313 31.4046 3.43968C30.4235 3.84623 29.5322 4.44245 28.7819 5.19415ZM26.2867 10.9089C26.2868 9.28376 26.7689 7.69511 27.6719 6.34392C28.575 4.99273 29.8584 3.9397 31.36 3.31799C32.8615 2.69629 34.5137 2.53384 36.1076 2.8512C37.7014 3.16856 39.1654 3.95146 40.3143 5.1009C41.4632 6.25033 42.2454 7.71467 42.5621 9.30872C42.8787 10.9028 42.7156 12.5549 42.0932 14.0562C41.4709 15.5575 40.4173 16.8405 39.0657 17.743C37.7142 18.6455 36.1254 19.1269 34.5002 19.1263C33.4215 19.1259 32.3535 18.9131 31.3571 18.4999C30.3607 18.0867 29.4554 17.4813 28.6929 16.7183C27.9305 15.9552 27.3258 15.0494 26.9134 14.0527C26.5011 13.0559 26.2891 11.9877 26.2895 10.9089" fill="#C10A29"/>
<path d="M29.1195 5.53167C27.8785 6.77545 27.107 8.411 26.9366 10.1597C26.7661 11.9085 27.2071 13.6622 28.1846 15.1222C29.162 16.5823 30.6153 17.6583 32.2971 18.167C33.9788 18.6758 35.7848 18.5857 37.4076 17.9122C39.0304 17.2388 40.3695 16.0235 41.1969 14.4735C42.0243 12.9235 42.2887 11.1346 41.9451 9.41146C41.6016 7.68836 40.6713 6.13765 39.3128 5.02347C37.9542 3.9093 36.2514 3.30058 34.4944 3.30099C33.4958 3.30088 32.507 3.49785 31.5846 3.88064C30.6623 4.26342 29.8246 4.82449 29.1195 5.53167ZM26.7958 10.909C26.7965 9.38555 27.2489 7.89658 28.0959 6.63032C28.9428 5.36405 30.1462 4.37738 31.5539 3.79506C32.9615 3.21274 34.5103 3.06093 36.0042 3.35883C37.4982 3.65673 38.8702 4.39096 39.9469 5.46866C41.0236 6.54637 41.7565 7.91916 42.053 9.41342C42.3495 10.9077 42.1962 12.4563 41.6126 13.8635C41.029 15.2706 40.0412 16.4731 38.7742 17.3189C37.5072 18.1647 36.0178 18.6157 34.4944 18.615C32.4519 18.6133 30.4936 17.8006 29.05 16.3556C27.6064 14.9106 26.7956 12.9515 26.7958 10.909Z" fill="#C10A29"/>
<path d="M29.9907 6.40649C28.9487 7.44871 28.3002 8.81995 28.1558 10.2866C28.0113 11.7533 28.3798 13.2247 29.1984 14.4502C30.0171 15.6757 31.2353 16.5794 32.6455 17.0075C34.0557 17.4356 35.5707 17.3615 36.9324 16.7979C38.2941 16.2343 39.4183 15.216 40.1135 13.9165C40.8088 12.6171 41.032 11.1167 40.7451 9.67112C40.4583 8.22553 39.6792 6.92408 38.5405 5.98848C37.4018 5.05288 35.974 4.54099 34.5002 4.54002C33.6626 4.53844 32.833 4.70253 32.059 5.02286C31.2851 5.34319 30.5822 5.81342 29.9907 6.40649ZM28.0557 10.9082C28.057 9.63506 28.4357 8.39083 29.1438 7.33279C29.852 6.27475 30.8579 5.45038 32.0344 4.96385C33.2109 4.47732 34.5052 4.35046 35.7538 4.59932C37.0024 4.84818 38.1492 5.46157 39.0493 6.36199C39.9494 7.26241 40.5624 8.40945 40.8108 9.65815C41.0593 10.9068 40.932 12.2012 40.4451 13.3776C39.9582 14.5539 39.1335 15.5596 38.0752 16.2674C37.017 16.9752 35.7726 17.3535 34.4995 17.3543C32.7903 17.3538 31.1513 16.6744 29.9429 15.4655C28.7346 14.2567 28.0557 12.6175 28.0557 10.9082Z" fill="#C10A29"/>
<path d="M22.1824 13.0423C22.1393 12.2925 21.9251 11.5625 21.5564 10.9082C21.9252 10.2563 22.1394 9.52844 22.1824 8.78068C22.5255 9.43854 22.7047 10.1695 22.7047 10.9115C22.7047 11.6534 22.5255 12.3844 22.1824 13.0423ZM22.0778 13.2377L22.0504 13.3048V13.3264C21.6532 13.992 21.1 14.5509 20.4386 14.9549C20.4211 14.1569 20.2094 13.3752 19.822 12.6773C20.5082 12.27 21.0807 11.6963 21.4865 11.0092C21.8597 11.6916 22.0616 12.4543 22.075 13.2319V13.2384M21.4331 15.6559C21.0604 16.2993 20.5382 16.8436 19.9107 17.2425C20.2493 16.571 20.4299 15.831 20.4386 15.0789C21.0841 14.6975 21.6331 14.1726 22.0432 13.5449C22.0113 14.2865 21.8021 15.0097 21.4331 15.6537M19.7203 17.3615L19.6611 17.4164C19.6611 17.4207 19.6611 17.4207 19.6554 17.4286C18.9792 17.8042 18.2218 18.0096 17.4486 18.0272C17.831 17.3264 18.0372 16.5429 18.0493 15.7446C18.8464 15.7346 19.6287 15.528 20.3268 15.1431C20.3116 15.9173 20.1071 16.676 19.7311 17.3529C19.7253 17.3529 19.7253 17.3522 19.7203 17.3615ZM17.9527 19.1314C17.3093 19.5012 16.5867 19.7114 15.8454 19.7444C16.475 19.3361 17.0005 18.7864 17.38 18.139C18.1325 18.1281 18.8724 17.9456 19.5436 17.6053C19.1419 18.233 18.5965 18.7561 17.9527 19.1314ZM15.6268 19.7516H15.6153L15.5389 19.7718C15.5378 19.7731 15.5365 19.7741 15.535 19.7749C15.5335 19.7756 15.5319 19.776 15.5302 19.7761C14.7554 19.7644 13.9953 19.5631 13.3162 19.1898C14.0018 18.7792 14.574 18.2038 14.9807 17.5159C15.6756 17.9076 16.4576 18.1191 17.2553 18.1311C16.8506 18.7943 16.292 19.3502 15.6268 19.7516ZM13.208 20.4007C12.4657 20.3996 11.7345 20.22 11.0762 19.8771C11.8254 19.8352 12.5548 19.6212 13.208 19.2518C13.8617 19.6205 14.5912 19.8345 15.3405 19.8771C14.6808 20.2171 13.9502 20.3965 13.208 20.4007ZM10.7884 19.7516C10.1223 19.3519 9.56375 18.7956 9.16143 18.1311C9.95938 18.1195 10.7417 17.9079 11.4368 17.5159C11.8447 18.2009 12.4142 18.7757 13.0955 19.1898C12.4194 19.5623 11.6626 19.7643 10.8908 19.7783L10.7863 19.7523M8.4626 19.1321C7.82096 18.757 7.27938 18.2325 6.88393 17.6031C7.55236 17.9438 8.29011 18.1264 9.04027 18.1368C9.42102 18.7816 9.94425 19.3308 10.5699 19.7422C9.83011 19.7082 9.10913 19.498 8.46693 19.1292M6.76349 17.4178L6.70219 17.3637L6.69787 17.3572C6.3169 16.6812 6.10996 15.9211 6.09568 15.1453C6.79592 15.5313 7.58084 15.738 8.38039 15.7468C8.38275 16.5463 8.58928 17.332 8.98041 18.0294C8.20558 18.0132 7.44646 17.8077 6.76926 17.4308C6.76926 17.4228 6.76926 17.4228 6.76566 17.4185M4.98794 15.6559C4.62053 15.0111 4.41096 14.2885 4.37638 13.5471C4.78649 14.1742 5.33557 14.6984 5.98101 15.0789C5.98574 15.832 6.16809 16.5733 6.51324 17.2425C5.8861 16.8417 5.36289 16.298 4.9865 15.6559M4.34897 13.2399C4.34897 13.2399 4.34897 13.2399 4.3432 13.2319C4.35389 12.4573 4.55553 11.6973 4.93025 11.0193C5.34213 11.7034 5.91853 12.2736 6.607 12.6781C6.21353 13.3735 6.00101 14.1567 5.98894 14.9556C5.32617 14.5545 4.77099 13.998 4.37133 13.3344L4.34897 13.2399ZM3.72154 10.909C3.7231 10.1684 3.90162 9.43896 4.24224 8.78141C4.28159 9.52912 4.49416 10.2575 4.86318 10.909C4.49387 11.5637 4.28132 12.2952 4.24224 13.0459C3.90104 12.3852 3.72252 11.6526 3.72154 10.909ZM4.34897 8.58596L4.37133 8.49148C4.76866 7.82389 5.32421 7.26437 5.98894 6.86229C6.00108 7.66215 6.21358 8.44621 6.607 9.14273C5.91745 9.5458 5.34074 10.1163 4.93025 10.8015C4.55547 10.1232 4.35384 9.36297 4.3432 8.58812C4.34897 8.58812 4.34897 8.58812 4.34897 8.58452M4.98794 6.16128C5.36585 5.52034 5.88876 4.97692 6.51469 4.57464C6.1684 5.24123 5.98548 5.98058 5.98101 6.73175C5.33529 7.11675 4.78578 7.64383 4.37421 8.27296C4.40895 7.53096 4.6185 6.80766 4.98578 6.162M6.70219 4.46646L6.76494 4.4001C6.76674 4.39751 6.76797 4.39456 6.76854 4.39145C7.44562 4.01388 8.20466 3.8074 8.97969 3.78997C8.58898 4.48644 8.38245 5.2711 8.37967 6.06969C7.57979 6.08274 6.79531 6.29174 6.09496 6.67838C6.1075 5.90276 6.31456 5.1427 6.69715 4.4679C6.69715 4.4679 6.69715 4.4679 6.70147 4.4679M8.46693 2.69014C9.10892 2.32071 9.82999 2.11027 10.5699 2.07639C9.94305 2.48732 9.41958 3.03747 9.04027 3.68395C8.29015 3.68721 7.55137 3.86733 6.88393 4.20971C7.27953 3.58145 7.82304 3.05972 8.46693 2.69014ZM10.8007 2.06918L10.8778 2.05043C10.8851 2.05043 10.8851 2.05043 10.8959 2.0425C11.6678 2.05341 12.4251 2.25482 13.1005 2.62883C12.4192 3.04384 11.8497 3.61926 11.4418 4.30491C10.7458 3.9119 9.96279 3.69849 9.16359 3.68395C9.56678 3.01737 10.1293 2.46148 10.8007 2.0663M13.2109 1.41721C13.9531 1.41415 14.685 1.59161 15.3434 1.93432C14.5938 1.97378 13.8636 2.18737 13.2109 2.55816C12.5587 2.18676 11.8286 1.97312 11.0791 1.93432C11.7372 1.59159 12.4689 1.41412 13.2109 1.41721ZM15.5417 2.04538L15.6297 2.06413C16.2948 2.46488 16.853 3.02064 17.2567 3.68395C16.4589 3.69775 15.6772 3.91018 14.9821 4.30202C14.5754 3.6135 14.0033 3.03739 13.3176 2.62595C13.9961 2.25131 14.7566 2.04991 15.5317 2.03961C15.5317 2.04754 15.5374 2.04754 15.5403 2.04754M17.9541 2.68725C18.5993 3.05915 19.1451 3.58146 19.545 4.20971C18.8751 3.86723 18.1339 3.68713 17.3815 3.68395C17.0038 3.03385 16.478 2.48207 15.8468 2.07351C16.5883 2.10634 17.311 2.31683 17.9541 2.68725ZM19.6604 4.3965L19.7196 4.45492C19.7239 4.46285 19.7239 4.46285 19.7304 4.46429C20.108 5.14079 20.3126 5.90012 20.3261 6.67478C19.6283 6.28834 18.8462 6.07931 18.0486 6.06608C18.0367 5.26799 17.8287 4.48507 17.4428 3.78636C18.2178 3.80532 18.9767 4.0117 19.6547 4.38784C19.6564 4.38856 19.6578 4.38976 19.6589 4.3913C19.6599 4.39284 19.6604 4.39465 19.6604 4.3965ZM21.4324 6.15912C21.8012 6.80402 22.0104 7.52783 22.0425 8.27007C21.6313 7.64136 21.0826 7.11435 20.4379 6.72887C20.4286 5.98014 20.248 5.24348 19.91 4.57536C20.5363 4.97575 21.0582 5.51966 21.4324 6.162M19.6705 12.6427C19.2162 12.8974 18.7227 13.0746 18.2101 13.167C18.2342 13.1976 18.2547 13.2307 18.2714 13.2658C18.7793 13.1656 19.2683 12.986 19.7203 12.7336C20.1148 13.4306 20.3264 14.2161 20.3355 15.0169C19.6375 15.4129 18.8509 15.6262 18.0486 15.6371C17.9043 15.6371 17.9548 15.5968 17.9418 15.6977C17.9312 16.5136 17.7189 17.3141 17.3238 18.0279C16.5221 18.0231 15.7351 17.8131 15.0376 17.4178C15.2903 16.969 15.4674 16.4817 15.5619 15.9754C15.5329 15.9507 15.5012 15.9295 15.4675 15.9119C15.3763 16.423 15.199 16.9149 14.9432 17.3666C14.7084 17.228 14.4861 17.0692 14.279 16.892C14.2407 16.9101 14.2068 16.9324 14.1744 16.9469C14.3952 17.1398 14.634 17.311 14.8876 17.4582C14.4795 18.1494 13.9023 18.7255 13.2102 19.1321C12.5177 18.725 11.9394 18.1495 11.5291 17.4589C11.7859 17.3153 12.026 17.1438 12.2452 16.9476C12.212 16.9324 12.1767 16.9108 12.1399 16.8928C11.9343 17.0677 11.7154 17.2264 11.4851 17.3673C11.2282 16.9154 11.0488 16.4238 10.9543 15.9126C10.9202 15.9307 10.8878 15.952 10.8577 15.9761C10.957 16.4811 11.1339 16.9676 11.382 17.4185C10.6878 17.8142 9.90344 18.0244 9.10446 18.0287C8.70516 17.3115 8.48914 16.5069 8.47559 15.6862C8.43087 15.6747 8.45034 15.6747 8.43087 15.6379C7.61296 15.6289 6.81025 15.4157 6.09568 15.0176C6.10066 14.2171 6.30939 13.4311 6.70219 12.7336C7.15246 12.9848 7.63907 13.1643 8.14456 13.2658C8.17035 13.2357 8.19239 13.2025 8.21019 13.167C7.69953 13.0746 7.20834 12.8958 6.75773 12.6384C6.89782 12.4072 7.05448 12.1864 7.2265 11.9778C7.20991 11.9446 7.19548 11.9057 7.17745 11.8782C6.98438 12.0981 6.81223 12.3354 6.66325 12.5872C5.97262 12.1776 5.397 11.5997 4.9901 10.9075C5.39988 10.2173 5.97484 9.63986 6.66325 9.22711C6.81174 9.48305 6.98389 9.72451 7.17745 9.94831C7.19548 9.91369 7.20991 9.88196 7.2265 9.84662C7.05535 9.63661 6.89873 9.41517 6.75773 9.18384C7.2095 8.92815 7.70018 8.74834 8.21019 8.65159C8.18998 8.61897 8.16808 8.58743 8.14456 8.55711C7.639 8.65688 7.15227 8.83552 6.70219 9.08647C6.30924 8.39112 6.10047 7.60689 6.09568 6.8082C6.80866 6.40489 7.6118 6.18785 8.43087 6.17715C8.48929 6.19662 8.62199 6.11657 8.48496 6.11657C8.49825 5.3022 8.71122 4.50354 9.10518 3.79069C9.90448 3.7926 10.6895 4.00289 11.3827 4.40083C11.1337 4.853 10.9564 5.34104 10.8569 5.84756C10.8843 5.86342 10.924 5.88578 10.9536 5.90742C11.0482 5.39678 11.2276 4.90559 11.4844 4.45419C11.7143 4.59582 11.9342 4.75292 12.1428 4.92442C12.1785 4.90962 12.2125 4.89126 12.2445 4.86961C12.0219 4.67781 11.7822 4.50689 11.5284 4.359C11.9396 3.67051 12.5178 3.09679 13.2094 2.69086C13.9008 3.09582 14.4782 3.66951 14.8876 4.35827C14.637 4.50969 14.3985 4.68041 14.1744 4.86889C14.2058 4.89313 14.2412 4.91168 14.279 4.9237C14.4872 4.74913 14.7093 4.59186 14.9432 4.45347C15.1989 4.90471 15.3762 5.3961 15.4675 5.9067C15.5028 5.88506 15.5317 5.86342 15.5619 5.84684C15.4679 5.33859 15.2908 4.84931 15.0376 4.39866C15.7345 4.00193 16.5219 3.79177 17.3238 3.78853C17.718 4.50115 17.9303 5.30006 17.9418 6.1144C18.014 6.15912 18.0068 6.1144 18.0068 6.1144C18.001 6.12339 17.9973 6.13356 17.9959 6.14416C17.9945 6.15476 17.9955 6.16554 17.9988 6.1757C18.8183 6.18644 19.6219 6.40347 20.3355 6.80676C20.3269 7.60606 20.1152 8.39005 19.7203 9.08503C19.2685 8.83281 18.7794 8.65412 18.2714 8.55567C18.2552 8.5897 18.2346 8.62146 18.2101 8.65015C18.7227 8.74656 19.2161 8.92636 19.6705 9.18239C19.5283 9.41487 19.369 9.63641 19.1938 9.84518C19.2091 9.88049 19.2271 9.9145 19.2479 9.94687C19.4396 9.72212 19.611 9.48077 19.76 9.22567C20.4493 9.63666 21.0242 10.2145 21.4317 10.9061C21.0271 11.5996 20.4516 12.1779 19.76 12.5857C19.6105 12.3348 19.4392 12.0976 19.2479 11.8768C19.2264 11.9079 19.2082 11.9413 19.1938 11.9763C19.3708 12.1842 19.5302 12.4064 19.6705 12.6406M22.0504 8.49869L22.0778 8.58235V8.58812C22.0655 9.36337 21.8634 10.1238 21.4894 10.8029C21.0809 10.1192 20.5073 9.54881 19.8213 9.14417C20.2087 8.44527 20.4203 7.66263 20.4379 6.86373C21.1002 7.26695 21.6536 7.82633 22.0497 8.49293L22.0504 8.49869ZM22.3894 8.44821C22.3864 7.58506 22.1563 6.7379 21.7223 5.9918C21.2915 5.24689 20.6757 4.62584 19.9345 4.18879C19.4959 3.44593 18.8754 2.82693 18.1315 2.39012C17.3834 1.96141 16.5374 1.73312 15.6752 1.72733C14.9243 1.30274 14.0764 1.0796 13.2138 1.0796C12.3512 1.0796 11.5032 1.30274 10.7524 1.72733C9.88945 1.7298 9.04226 1.95837 8.29519 2.39024C7.54812 2.82212 6.92727 3.44223 6.49449 4.18879C5.7494 4.6228 5.13023 5.24345 4.69798 5.98959C4.26574 6.73572 4.03534 7.5816 4.02949 8.44388C3.60664 9.19456 3.38449 10.0416 3.38449 10.9032C3.38449 11.7648 3.60664 12.6118 4.02949 13.3625C4.03575 14.2254 4.26628 15.0718 4.69843 15.8186C5.13059 16.5655 5.74953 17.1872 6.49449 17.6226C6.92928 18.3673 7.5507 18.9858 8.29745 19.417C9.04545 19.8462 9.89143 20.0755 10.7538 20.0826C11.5047 20.5072 12.3526 20.7304 13.2152 20.7304C14.0778 20.7304 14.9257 20.5072 15.6766 20.0826C16.5391 20.0779 17.3854 19.8486 18.1323 19.4172C18.8792 18.9858 19.5008 18.3673 19.9359 17.6226C20.6763 17.1845 21.2919 16.5637 21.7237 15.8196C22.1565 15.0745 22.3868 14.2292 22.3916 13.3675C22.8213 12.6191 23.0474 11.7712 23.0474 10.9082C23.0474 10.0452 22.8213 9.19732 22.3916 8.44893" fill="#FA8812"/>
</g>
<mask id="mask4_121_349" style="mask-type:luminance" maskUnits="userSpaceOnUse" x="6" y="4" width="14" height="14">
<path d="M11.6919 5.13728C11.5413 5.22649 11.4201 5.35781 11.3432 5.51504C11.2664 5.67227 11.2371 5.84856 11.2592 6.0222V6.20177L11.1323 6.06979C11.0239 5.93276 10.8782 5.83002 10.7127 5.77396C10.5473 5.71791 10.3691 5.71095 10.1998 5.75391C9.65261 6.00819 9.05317 6.12976 8.45017 6.10874L8.417 6.11451C8.43423 6.7278 8.31089 7.33689 8.05641 7.89516C8.01221 8.06522 8.01855 8.24449 8.07465 8.41101C8.13075 8.57752 8.23418 8.72408 8.37229 8.83272L8.49922 8.96181H8.32469C8.15039 8.94014 7.97355 8.96948 7.81559 9.04628C7.65763 9.12309 7.52534 9.24406 7.43475 9.39454C7.22471 9.96117 6.88657 10.4716 6.44673 10.886L6.42581 10.9148C6.8735 11.336 7.21886 11.8541 7.43547 12.4294C7.52552 12.5803 7.65772 12.7017 7.81582 12.7786C7.97393 12.8555 8.15104 12.8845 8.32541 12.8621H8.49849L8.37157 12.9861C8.23368 13.0949 8.13041 13.2415 8.07433 13.408C8.01824 13.5744 8.01177 13.7536 8.05569 13.9237C8.30931 14.4715 8.43014 15.0715 8.40835 15.6748L8.41628 15.7036C9.02995 15.6899 9.63896 15.813 10.199 16.0642C10.3687 16.109 10.5479 16.1028 10.714 16.0462C10.8802 15.9896 11.0259 15.8852 11.133 15.7462L11.2599 15.6207V15.8031C11.2377 15.9761 11.2668 16.1518 11.3438 16.3082C11.4207 16.4647 11.5421 16.595 11.6926 16.683C12.2696 16.8995 12.7896 17.2448 13.2129 17.6927L13.2403 17.671C13.655 17.231 14.1656 16.8924 14.7324 16.6816C14.8834 16.594 15.005 16.4638 15.082 16.3072C15.159 16.1506 15.1879 15.9747 15.1651 15.8017V15.6192L15.2863 15.7447C15.3943 15.8836 15.5407 15.9878 15.7073 16.0444C15.874 16.1009 16.0536 16.1073 16.2238 16.0628C16.7822 15.8119 17.3895 15.6887 18.0015 15.7022L18.0073 15.6733C17.9927 15.0698 18.116 14.4709 18.3679 13.9222C18.4124 13.752 18.406 13.5724 18.3495 13.4058C18.293 13.2391 18.1888 13.0927 18.0499 12.9847L17.9222 12.8606H18.1032C18.2764 12.8827 18.4523 12.8534 18.6091 12.7765C18.7659 12.6996 18.8966 12.5784 18.9852 12.4279C19.2019 11.8527 19.5472 11.3346 19.9949 10.9134L19.9725 10.8845C19.5337 10.4697 19.1964 9.95936 18.9867 9.39309C18.8975 9.24319 18.7666 9.12248 18.61 9.04565C18.4534 8.96882 18.2778 8.93919 18.1047 8.96037H17.9236L18.0513 8.83128C18.1904 8.72344 18.2948 8.57705 18.3513 8.41034C18.4079 8.24362 18.4142 8.06396 18.3693 7.89371C18.1164 7.33494 17.9932 6.72621 18.0087 6.11307L17.9799 6.1073C17.375 6.1285 16.7737 6.00694 16.2245 5.75247C16.0544 5.70938 15.8755 5.71626 15.7092 5.77228C15.5429 5.82831 15.3963 5.93111 15.287 6.06835L15.1658 6.20033V6.02364C15.1885 5.84995 15.1595 5.67345 15.0826 5.51611C15.0056 5.35876 14.8841 5.22752 14.7331 5.13872C14.1657 4.92768 13.6544 4.58886 13.2388 4.14851L13.2114 4.12616C12.7879 4.57382 12.268 4.91912 11.6912 5.13584" fill="white"/>
</mask>
<g mask="url(#mask4_121_349)">
<path d="M19.9948 4.12616H6.42722V17.6948H19.9948V4.12616Z" fill="url(#paint2_radial_121_349)"/>
</g>
<mask id="mask5_121_349" style="mask-type:luminance" maskUnits="userSpaceOnUse" x="3" y="0" width="66" height="48">
<path d="M68.0569 0.554657H3.38474V47.5547H68.0569V0.554657Z" fill="white"/>
</mask>
<g mask="url(#mask5_121_349)">
<path d="M13.2101 13.1166C12.7732 13.1164 12.346 12.9867 11.9828 12.7438C11.6195 12.501 11.3364 12.1558 11.1692 11.7521C11.0021 11.3483 10.9584 10.9041 11.0437 10.4755C11.1289 10.0469 11.3394 9.65325 11.6484 9.34425C11.9574 9.03525 12.351 8.82481 12.7796 8.73952C13.2082 8.65423 13.6524 8.69793 14.0562 8.8651C14.4599 9.03226 14.805 9.31538 15.0479 9.67866C15.2907 10.0419 15.4204 10.4691 15.4206 10.9061C15.4206 11.4923 15.1877 12.0546 14.7732 12.4691C14.3586 12.8837 13.7964 13.1166 13.2101 13.1166Z" fill="white"/>
</g>
<mask id="mask6_121_349" style="mask-type:luminance" maskUnits="userSpaceOnUse" x="11" y="9" width="4" height="4">
<path d="M11.6185 10.9081C11.6176 11.2238 11.7105 11.5327 11.8853 11.7955C12.0601 12.0584 12.309 12.2634 12.6005 12.3847C12.892 12.506 13.2129 12.538 13.5225 12.4767C13.8322 12.4154 14.1167 12.2636 14.34 12.0405C14.5634 11.8174 14.7154 11.533 14.777 11.2234C14.8385 10.9138 14.8068 10.5928 14.6858 10.3013C14.5648 10.0097 14.36 9.76059 14.0973 9.58553C13.8346 9.41047 13.5258 9.31732 13.2102 9.31789C13.0012 9.31771 12.7943 9.3587 12.6012 9.43853C12.4081 9.51836 12.2326 9.63547 12.0848 9.78316C11.937 9.93084 11.8197 10.1062 11.7397 10.2992C11.6597 10.4923 11.6185 10.6992 11.6185 10.9081Z" fill="white"/>
</mask>
<g mask="url(#mask6_121_349)">
<path d="M14.8076 9.31789H11.6185V12.5042H14.8076V9.31789Z" fill="url(#paint3_radial_121_349)"/>
</g>
<mask id="mask7_121_349" style="mask-type:luminance" maskUnits="userSpaceOnUse" x="27" y="4" width="15" height="14">
<path d="M34.4957 4.02299C34.0682 4.47605 33.5438 4.82664 32.9617 5.04854C32.8073 5.13731 32.6828 5.27003 32.6041 5.42981C32.5254 5.58958 32.496 5.76918 32.5197 5.94572V6.1289L32.3906 6.00125C32.2822 5.85963 32.1342 5.75333 31.9654 5.69582C31.7966 5.63831 31.6145 5.63216 31.4422 5.67815C30.8852 5.93416 30.2765 6.05759 29.6638 6.03875L29.6335 6.04308C29.6479 6.66385 29.5229 7.27996 29.2678 7.84608C29.2207 8.01902 29.226 8.20208 29.2831 8.37199C29.3403 8.54189 29.4467 8.69096 29.5888 8.80023L29.7179 8.93077H29.5368C29.3602 8.90693 29.1804 8.93624 29.0205 9.01498C28.8606 9.09372 28.7278 9.21832 28.639 9.37287C28.421 9.94741 28.0758 10.4652 27.6293 10.8874L27.612 10.9162C28.0649 11.3439 28.4154 11.8683 28.6375 12.4502C28.7271 12.604 28.8601 12.7278 29.0199 12.8062C29.1796 12.8846 29.359 12.9141 29.5354 12.8909H29.7164L29.5873 13.0214C29.4455 13.1294 29.3391 13.2773 29.2819 13.4462C29.2247 13.615 29.2193 13.7971 29.2664 13.9691C29.5218 14.526 29.6452 15.1344 29.627 15.7468L29.6342 15.7786C30.2571 15.7615 30.8756 15.8873 31.4422 16.1464C31.6152 16.1903 31.7973 16.1825 31.9658 16.1239C32.1344 16.0653 32.2821 15.9586 32.3906 15.8168L32.5197 15.6884V15.8695C32.4957 16.0471 32.5249 16.2279 32.6036 16.389C32.6822 16.5501 32.8069 16.6843 32.9617 16.7746C33.5428 16.996 34.0671 17.3444 34.4964 17.7943L34.5303 17.7763C34.9482 17.3306 35.4636 16.9878 36.0361 16.7746C36.191 16.684 36.3157 16.5499 36.3948 16.389C36.4739 16.228 36.504 16.0473 36.4811 15.8695V15.6884L36.6117 15.8168C36.7204 15.9586 36.8683 16.0654 37.0372 16.124C37.206 16.1826 37.3883 16.1903 37.5615 16.1464C38.1264 15.8876 38.7432 15.7618 39.3644 15.7786L39.3702 15.7447C39.3551 15.1315 39.4817 14.5232 39.7402 13.9669C39.7827 13.7937 39.7739 13.6119 39.7148 13.4436C39.6558 13.2754 39.5491 13.1279 39.4077 13.0193L39.2836 12.8938H39.4661C39.6425 12.9163 39.8216 12.8866 39.9812 12.8082C40.1408 12.7299 40.2739 12.6064 40.364 12.4531C40.5813 11.8708 40.9292 11.3461 41.3808 10.9191L41.3693 10.8903C40.9216 10.47 40.5775 9.95154 40.364 9.37575C40.2746 9.22173 40.1417 9.09758 39.9819 9.01892C39.8221 8.94026 39.6427 8.91059 39.4661 8.93366H39.2836L39.4091 8.80312C39.5514 8.69291 39.6586 8.54369 39.7177 8.37364C39.7767 8.20359 39.785 8.02005 39.7416 7.84536C39.4818 7.28059 39.3547 6.66383 39.3702 6.04236L39.3363 6.03803C38.7238 6.05676 38.1153 5.93333 37.5586 5.67743C37.386 5.63142 37.2038 5.63756 37.0347 5.69506C36.8657 5.75256 36.7175 5.85886 36.6088 6.00053L36.4782 6.12818V5.945C36.5008 5.76824 36.4706 5.58876 36.3914 5.42913C36.3122 5.2695 36.1876 5.13683 36.0333 5.04782C35.4604 4.83519 34.9449 4.49224 34.5274 4.04607L34.4943 4.02227L34.4957 4.02299Z" fill="white"/>
</mask>
<g mask="url(#mask7_121_349)">
<path d="M41.3809 4.02227H27.6128V17.7965H41.3809V4.02227Z" fill="url(#paint4_radial_121_349)"/>
</g>
<mask id="mask8_121_349" style="mask-type:luminance" maskUnits="userSpaceOnUse" x="3" y="0" width="67" height="48">
<path d="M69.4993 0.554657H3.38474V47.5547H69.4993V0.554657Z" fill="white"/>
</mask>
<g mask="url(#mask8_121_349)">
<path d="M34.4945 13.1166C34.0578 13.1151 33.6313 12.9843 33.2689 12.7407C32.9064 12.497 32.6243 12.1515 32.4582 11.7476C32.292 11.3437 32.2492 10.8997 32.3353 10.4715C32.4213 10.0434 32.6322 9.65032 32.9415 9.34197C33.2507 9.03362 33.6444 8.82382 34.0728 8.73906C34.5012 8.6543 34.9451 8.69838 35.3484 8.86573C35.7518 9.03308 36.0965 9.3162 36.3391 9.67934C36.5817 10.0425 36.7112 10.4694 36.7114 10.9061C36.712 11.1971 36.655 11.4853 36.5437 11.7542C36.4324 12.023 36.269 12.2672 36.0629 12.4727C35.8569 12.6782 35.6122 12.8408 35.343 12.9513C35.0738 13.0618 34.7854 13.118 34.4945 13.1166Z" fill="white"/>
</g>
<mask id="mask9_121_349" style="mask-type:luminance" maskUnits="userSpaceOnUse" x="32" y="9" width="5" height="4">
<path d="M32.9061 10.9081C32.9052 11.224 32.9982 11.5331 33.1733 11.796C33.3483 12.059 33.5975 12.264 33.8893 12.3852C34.181 12.5063 34.5022 12.538 34.812 12.4763C35.1218 12.4146 35.4063 12.2623 35.6294 12.0387C35.8525 11.8151 36.0042 11.5302 36.0652 11.2203C36.1262 10.9103 36.0937 10.5892 35.9719 10.2977C35.8501 10.0062 35.6445 9.75751 35.3812 9.58306C35.1178 9.40861 34.8086 9.31632 34.4927 9.31789C34.284 9.31789 34.0774 9.35905 33.8847 9.43901C33.692 9.51897 33.5169 9.63616 33.3695 9.78388C33.2222 9.93159 33.1054 10.1069 33.0258 10.2998C32.9463 10.4928 32.9056 10.6995 32.9061 10.9081Z" fill="white"/>
</mask>
<g mask="url(#mask9_121_349)">
<path d="M36.0959 9.31789H32.9061V12.5042H36.0959V9.31789Z" fill="url(#paint5_radial_121_349)"/>
</g>
<mask id="mask10_121_349" style="mask-type:luminance" maskUnits="userSpaceOnUse" x="-10" y="-9" width="90" height="61">
<path d="M79.0327 -8.73061H-9.03348V51.2571H79.0327V-8.73061Z" fill="white"/>
</mask>
<g mask="url(#mask10_121_349)">
<path d="M55.0176 32.2075C55.7595 30.3324 56.6367 28.1085 56.6367 28.1085H56.6625L58.4454 32.2075H55.0176ZM61.0163 35.0224C60.9746 35.0126 60.9358 34.9933 60.9029 34.966C60.87 34.9387 60.8439 34.9041 60.8267 34.865C60.8193 34.841 60.8027 34.8116 60.7917 34.784C60.3314 33.7714 57.0408 26.4075 57.0408 26.4075H57.0168C54.7295 32.1403 53.9121 34.1276 53.6608 34.7444C53.6415 34.7871 53.619 34.8283 53.5936 34.8677C53.5784 34.9072 53.5536 34.9422 53.5214 34.9697C53.4893 34.9972 53.4508 35.0162 53.4095 35.0251H53.3285V35.0527H54.1569V35.0224H54.1155C54.0949 35.0223 54.0746 35.0176 54.056 35.0086C54.0374 34.9997 54.021 34.9867 54.0081 34.9707C53.9951 34.9547 53.9859 34.936 53.9811 34.9159C53.9763 34.8959 53.976 34.875 53.9802 34.8548C53.9872 34.8211 53.9964 34.7879 54.0078 34.7554C54.0078 34.7499 54.422 33.7107 54.9172 32.4542H58.5549L59.5444 34.726C59.5675 34.7711 59.5794 34.8125 59.607 34.8631C59.6402 34.9616 59.5242 35.0233 59.4818 35.0233H59.3972V35.0509H61.0899V35.0224H61.0163Z" fill="#67132F"/>
<path d="M37.3491 32.2075C38.1012 30.3324 38.982 28.1085 38.982 28.1085H39.0014L40.7899 32.2075H37.3491ZM43.3469 35.0224C43.3067 35.0111 43.2693 34.9911 43.2375 34.964C43.2058 34.9368 43.1803 34.903 43.1628 34.865C43.1526 34.8369 43.14 34.8098 43.1251 34.784C42.6833 33.7714 39.3797 26.4075 39.3797 26.4075H39.3539C37.0656 32.1403 36.2519 34.1276 35.9942 34.7444C35.9771 34.7871 35.9565 34.8284 35.9325 34.8677C35.9168 34.9069 35.8919 34.9416 35.8598 34.969C35.8277 34.9964 35.7895 35.0157 35.7484 35.0251H35.6601V35.0527H36.4885V35.0224H36.4572C36.4365 35.0215 36.4162 35.0164 36.3976 35.0073C36.379 34.9983 36.3625 34.9855 36.349 34.9698C36.3355 34.9541 36.3255 34.9358 36.3194 34.916C36.3133 34.8962 36.3113 34.8754 36.3136 34.8548C36.32 34.8254 36.3339 34.795 36.3449 34.7554C36.3449 34.7499 36.76 33.7107 37.2589 32.4542H40.8902L41.8788 34.726C41.9048 34.7692 41.9258 34.8152 41.9414 34.8631C41.9846 34.9616 41.8567 35.0233 41.8153 35.0233H41.7324V35.0509H43.4335V35.0224H43.3469Z" fill="#67132F"/>
<path d="M10.5256 32.2075C11.273 30.3324 12.1558 28.1085 12.1558 28.1085H12.1687L13.9599 32.2075H10.5256ZM16.5197 35.0224C16.4786 35.0118 16.4403 34.9922 16.4076 34.9649C16.375 34.9377 16.3488 34.9036 16.331 34.865C16.3145 34.841 16.3071 34.8116 16.2869 34.784C15.8377 33.7714 12.5488 26.4075 12.5488 26.4075H12.5286C10.2347 32.1403 9.41737 34.1276 9.16424 34.7444C9.14669 34.7865 9.12703 34.8276 9.10533 34.8677C9.08862 34.9062 9.06336 34.9404 9.03146 34.9677C8.99956 34.995 8.96186 35.0146 8.92123 35.0251H8.83655V35.0527H9.66497V35.0224H9.63183C9.61102 35.0219 9.59054 35.017 9.57173 35.0081C9.55292 34.9992 9.5362 34.9865 9.52265 34.9707C9.5091 34.9548 9.49904 34.9364 9.49311 34.9164C9.48718 34.8965 9.48552 34.8755 9.48824 34.8548C9.49837 34.8254 9.50205 34.795 9.51586 34.7554C9.5269 34.7499 9.93651 33.7107 10.4363 32.4542H14.0593L15.0479 34.726C15.0709 34.7703 15.0909 34.8161 15.1077 34.8631C15.1464 34.9616 15.0249 35.0233 14.9862 35.0233H14.9098V35.0509H16.5924V35.0224H16.5197Z" fill="#67132F"/>
<path d="M25.9776 27.2313V26.8677C25.9779 26.8307 25.991 26.7949 26.0147 26.7664C26.0383 26.7379 26.071 26.7184 26.1074 26.7112H26.1902V26.6836H25.4952V26.7112H25.579C25.6148 26.7187 25.6469 26.7384 25.6697 26.767C25.6926 26.7955 25.7048 26.8311 25.7042 26.8677V33.5496L19.0197 26.586H18.9884C18.9884 31.1885 19.0004 34.7481 19.0004 34.7545V34.864C18.9994 34.9016 18.9856 34.9376 18.9614 34.9662C18.9371 34.9948 18.9038 35.0143 18.8669 35.0214H18.7896V35.0491H19.491V35.0214H19.4091C19.373 35.014 19.3405 34.9942 19.3174 34.9655C19.2942 34.9368 19.2817 34.9009 19.2821 34.864V28.3966L25.9748 35.374V27.2313H25.9776Z" fill="#67132F"/>
<path d="M35.0976 26.4903V26.5556C35.0917 26.5927 35.0729 26.6265 35.0444 26.651C35.0159 26.6754 34.9796 26.6889 34.9421 26.6891H28.9479C28.9097 26.69 28.8725 26.677 28.8432 26.6524C28.8139 26.6278 28.7945 26.5934 28.7887 26.5556V26.4903H28.7648V27.1402H28.7887V27.0573C28.7959 27.0206 28.8158 26.9876 28.8449 26.9642C28.8741 26.9408 28.9106 26.9285 28.9479 26.9294H31.3642V34.8613C31.3655 34.8977 31.3542 34.9336 31.3323 34.9627C31.3103 34.9919 31.279 35.0126 31.2436 35.0215H31.1654V35.0491H32.7228V35.0215H32.6308C32.596 35.0118 32.5655 34.9908 32.5442 34.9617C32.5228 34.9327 32.5118 34.8973 32.5129 34.8613V26.9294H34.9375C34.9742 26.9295 35.0097 26.9423 35.038 26.9656C35.0664 26.9889 35.0858 27.0213 35.093 27.0573V27.1402H35.1216V26.4903H35.0976Z" fill="#67132F"/>
<path d="M46.8576 30.7264V26.9312H47.5433C48.8918 26.9312 49.6337 27.6372 49.6337 28.8237C49.6337 30.0462 48.8918 30.7292 47.4559 30.7292L46.8576 30.7264ZM51.98 35.0205C51.7969 34.9931 51.6278 34.9065 51.4986 34.7738C50.0774 33.2467 48.1159 30.9437 48.1159 30.9437H48.218C48.4896 30.9405 48.7604 30.9131 49.0271 30.8617C49.5389 30.8178 50.0159 30.5848 50.3651 30.2082C50.7144 29.8315 50.9107 29.3383 50.916 28.8247C50.916 27.4623 49.7055 26.6836 48.1352 26.6836H45.5036V26.7112H45.5901C45.6258 26.7184 45.6578 26.7381 45.6802 26.7668C45.7027 26.7955 45.7141 26.8313 45.7125 26.8677V34.8604C45.7141 34.8972 45.7027 34.9333 45.6803 34.9626C45.6579 34.9919 45.626 35.0124 45.5901 35.0205H45.5036V35.0481H47.0684V35.0205H46.9846C46.9484 35.0119 46.9161 34.9915 46.8927 34.9625C46.8694 34.9335 46.8564 34.8976 46.8558 34.8604V31.0734L50.2072 35.0491H52.0417V35.0214L51.98 35.0205Z" fill="#67132F"/>
</g>
<path fill-rule="evenodd" clip-rule="evenodd" d="M22.24 40.7728L22.7737 41.2355C22.8599 41.3167 22.9269 41.4161 22.9699 41.5264C23.013 41.6367 23.0309 41.7553 23.0225 41.8734C23.0225 42.4367 22.442 42.7027 22.2448 43.1751C22.1834 43.3088 22.1543 43.4551 22.1601 43.6022C22.1645 43.6577 22.1989 43.888 22.266 43.9034C22.3754 43.9413 22.4934 43.9467 22.6058 43.919C22.7182 43.8913 22.8202 43.8317 22.8994 43.7474C22.9787 43.663 23.0319 43.5575 23.0525 43.4436C23.0732 43.3297 23.0605 43.2123 23.0159 43.1054C22.9954 42.9932 22.9487 42.8874 22.8796 42.7967H22.9109L23.4447 43.2673C23.4984 43.3126 23.5417 43.3691 23.5715 43.4328C23.6012 43.4964 23.6168 43.5658 23.6171 43.6361C23.6231 43.7375 23.6084 43.8391 23.574 43.9346C23.5395 44.0302 23.4861 44.1177 23.4168 44.192C23.3475 44.2662 23.2638 44.3256 23.1708 44.3666C23.0779 44.4075 22.9776 44.4291 22.8761 44.4302C22.7148 44.4333 22.5579 44.3775 22.435 44.2731L21.8227 43.7394C21.7432 43.6668 21.6819 43.5767 21.6436 43.4762C21.6053 43.3757 21.5911 43.2676 21.6021 43.1606C21.6021 42.6312 22.0326 42.3224 22.2276 41.8663C22.3037 41.6875 22.3403 41.4942 22.3348 41.2999C22.3554 41.1244 22.3146 40.9471 22.2192 40.7983L22.24 40.7728Z" fill="#F47920"/>
<path fill-rule="evenodd" clip-rule="evenodd" d="M23.5522 45.1529L24.1932 45.7008L24.1615 45.71C23.9835 45.5676 23.7625 45.4899 23.5346 45.4895C23.3122 45.488 23.0917 45.5311 22.8861 45.6161C22.7917 45.6509 22.6978 45.6875 22.6043 45.725C22.4657 45.786 22.3142 45.812 22.1632 45.8009C21.9262 45.7468 21.7105 45.6241 21.543 45.448L21.0238 44.9998C21.026 44.9998 21.0533 44.9905 21.056 44.9914C21.3415 45.1718 21.6821 45.2441 22.0163 45.1952C22.1614 45.1749 22.6969 44.9305 22.8544 44.9142C22.9529 44.8983 23.0536 44.9034 23.1499 44.9292C23.3 44.9737 23.4384 45.0506 23.5554 45.1546" fill="#003974"/>
<path d="M48.0502 44.9677V45.8226C48.0502 45.9405 48.0592 46.0208 48.0771 46.0633C48.0967 46.1059 48.126 46.137 48.1651 46.1567C48.2043 46.1763 48.2809 46.1862 48.395 46.1862V46.2771H47.0918V46.1862C47.1929 46.1829 47.2678 46.1542 47.3167 46.1002C47.3493 46.0625 47.3656 45.9651 47.3656 45.8079V43.3833C47.3656 43.2212 47.3469 43.118 47.3094 43.0738C47.2719 43.0279 47.1994 43.0017 47.0918 42.9952V42.9043H48.0502V43.2064C48.1301 43.0885 48.2116 43.0034 48.2947 42.951C48.4137 42.874 48.5433 42.8355 48.6835 42.8355C48.8514 42.8355 49.0038 42.8887 49.1407 42.9952C49.2792 43.1016 49.3844 43.249 49.4561 43.4374C49.5278 43.624 49.5637 43.8255 49.5637 44.0417C49.5637 44.2742 49.5262 44.4871 49.4512 44.6803C49.3778 44.8719 49.2703 45.0185 49.1285 45.12C48.9883 45.2199 48.8318 45.2699 48.659 45.2699C48.5335 45.2699 48.4162 45.2421 48.3069 45.1864C48.2254 45.1438 48.1399 45.0709 48.0502 44.9677ZM48.0502 44.7196C48.1904 44.9194 48.3404 45.0193 48.5001 45.0193C48.5881 45.0193 48.6607 44.9727 48.7177 44.8793C48.8025 44.7418 48.8448 44.4797 48.8448 44.0932C48.8448 43.6969 48.7984 43.4259 48.7055 43.2801C48.6435 43.1835 48.5604 43.1352 48.4561 43.1352C48.2915 43.1352 48.1562 43.2548 48.0502 43.4939V44.7196Z" fill="#003974"/>
<path d="M46.5857 42.9043V44.7024C46.5857 44.8777 46.602 44.9874 46.6346 45.0316C46.6672 45.0742 46.7332 45.1012 46.8327 45.1127V45.2011H45.9011V44.8941C45.7919 45.0251 45.6827 45.1209 45.5735 45.1815C45.4643 45.2404 45.3421 45.2699 45.2068 45.2699C45.078 45.2699 44.9631 45.2306 44.862 45.152C44.7626 45.0717 44.6958 44.9784 44.6615 44.8719C44.6273 44.7655 44.6102 44.5796 44.6102 44.3143V43.403C44.6102 43.2294 44.5939 43.1213 44.5613 43.0787C44.5303 43.0361 44.4643 43.0083 44.3633 42.9952V42.9043H45.2948V44.474C45.2948 44.6378 45.3021 44.7434 45.3168 44.7909C45.3331 44.8384 45.3575 44.8744 45.3901 44.899C45.4244 44.9235 45.4635 44.9358 45.5075 44.9358C45.5662 44.9358 45.6192 44.9203 45.6664 44.8891C45.7316 44.8466 45.8099 44.7606 45.9011 44.6312V43.403C45.9011 43.2294 45.8848 43.1213 45.8522 43.0787C45.8213 43.0361 45.7553 43.0083 45.6542 42.9952V42.9043H46.5857Z" fill="#003974"/>
<path d="M42.9525 42.8355C43.1514 42.8355 43.3364 42.8871 43.5075 42.9903C43.6787 43.0934 43.8083 43.24 43.8963 43.43C43.9859 43.62 44.0307 43.8279 44.0307 44.0539C44.0307 44.3798 43.9484 44.6525 43.7838 44.8719C43.5849 45.1372 43.3103 45.2699 42.9598 45.2699C42.6159 45.2699 42.351 45.1487 42.1652 44.9063C41.9794 44.664 41.8865 44.3831 41.8865 44.0638C41.8865 43.7346 41.981 43.448 42.1701 43.204C42.3608 42.9583 42.6216 42.8355 42.9525 42.8355ZM42.9623 43.0099C42.8792 43.0099 42.8074 43.0419 42.7471 43.1057C42.6885 43.168 42.6493 43.2924 42.6298 43.4791C42.6118 43.6642 42.6029 43.9221 42.6029 44.2529C42.6029 44.4281 42.6143 44.5919 42.6371 44.7442C42.655 44.8605 42.6933 44.9489 42.752 45.0095C42.8107 45.0701 42.8775 45.1004 42.9525 45.1004C43.0259 45.1004 43.087 45.0799 43.1359 45.039C43.1995 44.9833 43.2418 44.9055 43.263 44.8056C43.2956 44.65 43.3119 44.3356 43.3119 43.8623C43.3119 43.5839 43.2964 43.3931 43.2655 43.29C43.2345 43.1852 43.1889 43.109 43.1285 43.0615C43.0862 43.0271 43.0308 43.0099 42.9623 43.0099Z" fill="#003974"/>
<path d="M40.6909 42.9043V43.4251C40.8425 43.1876 40.9753 43.0304 41.0894 42.9534C41.2035 42.8748 41.3136 42.8355 41.4195 42.8355C41.5108 42.8355 41.5833 42.8642 41.6371 42.9215C41.6925 42.9772 41.7202 43.0566 41.7202 43.1598C41.7202 43.2695 41.6933 43.3547 41.6396 43.4152C41.5874 43.4758 41.5238 43.5061 41.4488 43.5061C41.3625 43.5061 41.2875 43.4783 41.2239 43.4226C41.1603 43.3669 41.1229 43.3358 41.1114 43.3293C41.0951 43.3194 41.0764 43.3145 41.0552 43.3145C41.0079 43.3145 40.9631 43.3325 40.9207 43.3686C40.8539 43.4243 40.8034 43.5037 40.7691 43.6069C40.717 43.7657 40.6909 43.9409 40.6909 44.1325V44.6607L40.6934 44.7983C40.6934 44.8916 40.6991 44.9514 40.7105 44.9776C40.73 45.0218 40.7586 45.0545 40.796 45.0758C40.8352 45.0955 40.9004 45.1078 40.9916 45.1127V45.2011H39.7569V45.1127C39.8564 45.1045 39.9232 45.0775 39.9574 45.0316C39.9933 44.9841 40.0112 44.8605 40.0112 44.6607V43.3907C40.0112 43.2597 40.0047 43.1762 39.9916 43.1401C39.9753 43.0943 39.9517 43.0607 39.9207 43.0394C39.8898 43.0181 39.8352 43.0034 39.7569 42.9952V42.9043H40.6909Z" fill="#003974"/>
<path d="M39.131 41.794V42.9682H39.0405C38.9313 42.6472 38.7675 42.4032 38.5491 42.2361C38.3307 42.0691 38.0919 41.9856 37.8327 41.9856C37.585 41.9856 37.3788 42.056 37.2141 42.1968C37.0495 42.336 36.933 42.5309 36.8645 42.7815C36.796 43.032 36.7618 43.2891 36.7618 43.5528C36.7618 43.8722 36.7993 44.1522 36.8743 44.3929C36.9493 44.6337 37.0699 44.8105 37.2361 44.9235C37.404 45.0365 37.6029 45.093 37.8327 45.093C37.9126 45.093 37.9941 45.0848 38.0772 45.0685C38.162 45.0504 38.2484 45.0251 38.3364 44.9923V44.2996C38.3364 44.1686 38.3274 44.0842 38.3095 44.0466C38.2916 44.0073 38.2541 43.972 38.197 43.9409C38.1416 43.9098 38.0739 43.8943 37.9941 43.8943H37.9085V43.8034H39.5197V43.8943C39.3975 43.9024 39.3119 43.9196 39.263 43.9458C39.2158 43.9704 39.1791 44.0122 39.153 44.0711C39.1383 44.1022 39.131 44.1784 39.131 44.2996V44.9923C38.9191 45.0873 38.6982 45.1585 38.4684 45.206C38.2402 45.2552 38.003 45.2797 37.7569 45.2797C37.4423 45.2797 37.1807 45.2371 36.9721 45.152C36.7651 45.0652 36.5817 44.9522 36.422 44.813C36.2639 44.6721 36.14 44.5141 36.0503 44.3389C35.9362 44.1129 35.8792 43.8599 35.8792 43.5798C35.8792 43.0787 36.0544 42.6554 36.4048 42.3098C36.7553 41.9643 37.1962 41.7915 37.7276 41.7915C37.8922 41.7915 38.0405 41.8046 38.1726 41.8308C38.2443 41.8439 38.36 41.8816 38.5197 41.9438C38.6811 42.0044 38.7765 42.0347 38.8058 42.0347C38.8514 42.0347 38.8938 42.0183 38.9329 41.9856C38.9721 41.9512 39.0079 41.8873 39.0405 41.794H39.131Z" fill="#003974"/>
<path d="M33.4416 43.7935L33.8376 44.5501C33.9746 44.8138 34.083 44.9808 34.1628 45.0513C34.2068 45.0889 34.2671 45.1094 34.3438 45.1127V45.2011H33.0699V45.1127C33.1694 45.1045 33.2305 45.0914 33.2533 45.0734C33.2778 45.0554 33.29 45.0308 33.29 44.9997C33.29 44.9538 33.2639 44.8818 33.2117 44.7835L33.0137 44.4101L32.845 44.6582C32.7684 44.7712 32.7252 44.8384 32.7154 44.8597C32.7024 44.8908 32.6958 44.9186 32.6958 44.9432C32.6958 44.9808 32.7032 45.0128 32.7179 45.039C32.7342 45.0635 32.7553 45.0824 32.7814 45.0955C32.8091 45.1069 32.8588 45.1127 32.9306 45.1127V45.2011H32.0357V45.1127C32.1465 45.1127 32.2476 45.0824 32.3389 45.0218C32.4318 44.9596 32.5663 44.7982 32.7423 44.5379L32.9306 44.2578L32.5369 43.5258C32.4082 43.2867 32.312 43.1401 32.2484 43.0861C32.1848 43.032 32.1139 43.0017 32.0357 42.9952V42.9043H33.3022V42.9952L33.2362 42.9976L33.109 43.0419C33.096 43.0533 33.0895 43.0722 33.0895 43.0984C33.0895 43.1229 33.0936 43.1483 33.1017 43.1745C33.1066 43.186 33.1294 43.2302 33.1702 43.3072L33.3487 43.6412L33.4416 43.5086C33.572 43.3285 33.6372 43.2024 33.6372 43.1303C33.6372 43.0959 33.6225 43.0672 33.5932 43.0443C33.5654 43.0198 33.5149 43.0034 33.4416 42.9952V42.9043H34.2508V42.9952C34.1514 42.9985 34.0585 43.0296 33.9721 43.0885C33.8857 43.1459 33.7887 43.258 33.6812 43.4251L33.4416 43.7935Z" fill="#003974"/>
<path d="M30.8474 44.8621C30.5687 45.1094 30.3185 45.233 30.0968 45.233C29.9664 45.233 29.858 45.1905 29.7716 45.1053C29.6853 45.0185 29.6421 44.9104 29.6421 44.7811C29.6421 44.6058 29.717 44.4486 29.867 44.3094C30.017 44.1686 30.3438 43.9819 30.8474 43.7493V43.5184C30.8474 43.3448 30.8376 43.2359 30.8181 43.1917C30.8002 43.1459 30.7651 43.1066 30.713 43.0738C30.6608 43.0394 30.6021 43.0222 30.5369 43.0222C30.431 43.0222 30.3438 43.046 30.2753 43.0934C30.2329 43.1229 30.2117 43.1573 30.2117 43.1966C30.2117 43.231 30.2346 43.2736 30.2802 43.3244C30.3421 43.3948 30.3731 43.4627 30.3731 43.5282C30.3731 43.6085 30.343 43.6773 30.2826 43.7346C30.224 43.7903 30.1465 43.8181 30.0504 43.8181C29.9477 43.8181 29.8613 43.787 29.7912 43.7248C29.7227 43.6625 29.6885 43.5897 29.6885 43.5061C29.6885 43.3882 29.735 43.276 29.8279 43.1696C29.9208 43.0615 30.0504 42.9788 30.2166 42.9215C30.3829 42.8642 30.5557 42.8355 30.735 42.8355C30.9517 42.8355 31.1229 42.8822 31.2484 42.9755C31.3755 43.0672 31.4579 43.1671 31.4953 43.2752C31.5182 43.344 31.5296 43.502 31.5296 43.7493V44.641C31.5296 44.7458 31.5337 44.8122 31.5418 44.84C31.55 44.8662 31.5622 44.8859 31.5785 44.899C31.5948 44.9121 31.6135 44.9186 31.6347 44.9186C31.6771 44.9186 31.7203 44.8883 31.7643 44.8277L31.8376 44.8867C31.7561 45.0079 31.6714 45.0963 31.5834 45.152C31.497 45.206 31.3984 45.233 31.2875 45.233C31.1571 45.233 31.0553 45.2028 30.9819 45.1422C30.9086 45.0799 30.8637 44.9866 30.8474 44.8621ZM30.8474 44.6828V43.9139C30.6502 44.0302 30.5035 44.1547 30.4073 44.2873C30.3438 44.3757 30.312 44.465 30.312 44.5551C30.312 44.6304 30.3389 44.6967 30.3927 44.754C30.4334 44.7983 30.4905 44.8204 30.5638 44.8204C30.6453 44.8204 30.7399 44.7745 30.8474 44.6828Z" fill="#003974"/>
<path d="M27.0749 44.0662L27.9746 41.8701H29.3243V41.961H29.2167C29.1189 41.961 29.0407 41.9782 28.982 42.0126C28.9412 42.0355 28.9086 42.074 28.8842 42.128C28.8662 42.1674 28.8573 42.2697 28.8573 42.4351V44.6312C28.8573 44.8015 28.8662 44.908 28.8842 44.9506C28.9021 44.9931 28.9388 45.0308 28.9942 45.0635C29.0496 45.0947 29.1238 45.1102 29.2167 45.1102H29.3243V45.2011H27.5932V45.1102H27.7008C27.7986 45.1102 27.8768 45.093 27.9355 45.0586C27.9763 45.0357 28.0089 44.9964 28.0333 44.9407C28.0513 44.9014 28.0602 44.7982 28.0602 44.6312V42.1624L26.7888 45.2011H26.7302L25.4392 42.1845V44.5305C25.4392 44.6943 25.4433 44.795 25.4514 44.8326C25.4726 44.9145 25.5183 44.9817 25.5884 45.0341C25.6601 45.0848 25.7717 45.1102 25.9233 45.1102V45.2011H24.7888V45.1102H24.8231C24.8964 45.1119 24.9649 45.1004 25.0285 45.0758C25.092 45.0496 25.1401 45.0152 25.1727 44.9727C25.2053 44.9301 25.2306 44.8703 25.2485 44.7933C25.2518 44.7753 25.2534 44.6918 25.2534 44.5428V42.4351C25.2534 42.2664 25.2444 42.1616 25.2265 42.1207C25.2086 42.0781 25.1719 42.0413 25.1165 42.0101C25.0611 41.9774 24.9869 41.961 24.894 41.961H24.7888V41.8701H26.1434L27.0749 44.0662Z" fill="#003974"/>
</g>
<defs>
<radialGradient id="paint0_radial_121_349" cx="0" cy="0" r="1" gradientUnits="userSpaceOnUse" gradientTransform="translate(56.2093 10.9114) scale(6.64499 6.64191)">
<stop stop-color="#FC921D"/>
<stop offset="1" stop-color="#E53025"/>
</radialGradient>
<radialGradient id="paint1_radial_121_349" cx="0" cy="0" r="1" gradientUnits="userSpaceOnUse" gradientTransform="translate(56.2256 10.9108) scale(1.62447 1.62667)">
<stop stop-color="#E53025"/>
<stop offset="1" stop-color="#FC921D"/>
</radialGradient>
<radialGradient id="paint2_radial_121_349" cx="0" cy="0" r="1" gradientUnits="userSpaceOnUse" gradientTransform="translate(13.211 10.9105) scale(6.78382 6.78435)">
<stop stop-color="#F26313"/>
<stop offset="0.264" stop-color="#F57B13"/>
<stop offset="0.748" stop-color="#FCA213"/>
<stop offset="1" stop-color="#FFB213"/>
</radialGradient>
<radialGradient id="paint3_radial_121_349" cx="0" cy="0" r="1" gradientUnits="userSpaceOnUse" gradientTransform="translate(13.2116 10.911) scale(1.59454 1.59313)">
<stop stop-color="#F26313"/>
<stop offset="0.264" stop-color="#F57B13"/>
<stop offset="0.748" stop-color="#FCA213"/>
<stop offset="1" stop-color="#FFB213"/>
</radialGradient>
<radialGradient id="paint4_radial_121_349" cx="0" cy="0" r="1" gradientUnits="userSpaceOnUse" gradientTransform="translate(34.4976 10.9094) scale(6.88406 6.88712)">
<stop stop-color="#F16322"/>
<stop offset="0.395" stop-color="#D83F30"/>
<stop offset="0.778" stop-color="#C6243B"/>
<stop offset="1" stop-color="#BF1A40"/>
</radialGradient>
<radialGradient id="paint5_radial_121_349" cx="0" cy="0" r="1" gradientUnits="userSpaceOnUse" gradientTransform="translate(34.4938 10.911) scale(1.5949 1.59313)">
<stop stop-color="#B31A3D"/>
<stop offset="0.229" stop-color="#BC2439"/>
<stop offset="0.624" stop-color="#D4402E"/>
<stop offset="1" stop-color="#F16122"/>
</radialGradient>
<clipPath id="clip0_121_349">
<rect width="69" height="47" fill="white" transform="translate(0.5 0.554657)"/>
</clipPath>
</defs>
</svg>
