<svg width="178" height="178" viewBox="0 0 178 178" fill="none" xmlns="http://www.w3.org/2000/svg">
<g clip-path="url(#clip0_477_369)">
<path d="M68.4052 13.5688C68.4052 13.5688 62.2444 16.4098 62.6674 25.1143V27.5153L61.1067 25.8141C55.1307 19.3321 48.9132 21.6131 48.9132 21.6131C36.2211 27.1749 25.9071 26.2753 25.9071 26.2753L25.5678 26.3576C25.5678 26.3576 26.4082 37.0035 20.8503 49.6467C20.8503 49.6467 18.5724 55.9897 24.9887 61.9322L26.6874 63.5521H24.3291C15.6349 63.0119 12.7952 69.2356 12.7952 69.2356C7.7573 82.0631 -0.17701 88.7045 -0.17701 88.7045L-0.377441 89.049V89.1009C5.42402 94.5959 9.91792 101.326 12.7722 108.793C12.7722 108.793 15.4912 114.976 24.3061 114.556H26.6644L24.9657 116.135C18.5494 122.056 20.8273 128.362 20.8273 128.362C26.3843 141.025 25.5046 151.272 25.5046 151.272L25.5456 151.711C25.5456 151.711 36.1997 150.806 48.891 156.373C48.891 156.373 55.1282 158.676 61.0853 152.211L62.6461 150.566V152.929C62.2271 161.66 68.3839 164.496 68.3839 164.496C80.8698 169.394 87.6927 177.159 88.0755 177.603H88.1395L88.4681 177.462C88.4681 177.462 95.0454 169.539 107.917 164.496C107.917 164.496 114.054 161.655 113.554 152.932V150.57L115.213 152.214C121.128 158.678 127.407 156.376 127.407 156.376C140.099 150.814 150.693 151.714 150.693 151.714L150.775 151.275C150.775 151.275 149.915 141.05 155.352 128.365C155.352 128.365 157.752 122.062 151.175 116.139L149.614 114.559H151.952C160.688 114.979 163.526 108.796 163.526 108.796C168.564 95.9915 176.659 89.0869 176.659 89.0869L176.399 88.7086C176.399 88.7086 168.565 82.0647 163.527 69.2398C163.527 69.2398 160.689 63.016 151.953 63.5562H149.615L151.175 61.9364C157.753 56.016 155.353 49.6508 155.353 49.6508C149.916 37.0051 150.696 26.36 150.696 26.36L150.257 26.2778C150.257 26.2778 140.102 27.1774 127.41 21.6155C127.41 21.6155 121.134 19.3132 115.217 25.8165L113.557 27.5178V25.1168C114.057 16.3933 107.921 13.5713 107.921 13.5713C95.0487 8.50939 88.4714 0.666584 88.4714 0.666584L88.0919 0.425659C88.1116 0.425659 81.2559 8.51021 68.4036 13.5721" fill="#E2D39E" fill-opacity="0.11"/>
<path d="M68.4052 13.5688C68.4052 13.5688 62.2444 16.4098 62.6674 25.1143V27.5153L61.1067 25.8141C55.1307 19.3321 48.9132 21.6131 48.9132 21.6131C36.2211 27.1749 25.9071 26.2753 25.9071 26.2753L25.5678 26.3576C25.5678 26.3576 26.4082 37.0035 20.8503 49.6467C20.8503 49.6467 18.5724 55.9897 24.9887 61.9322L26.6874 63.5521H24.3291C15.6349 63.0119 12.7952 69.2356 12.7952 69.2356C7.7573 82.0631 -0.17701 88.7045 -0.17701 88.7045L-0.377441 89.049V89.1009C5.42402 94.5959 9.91792 101.326 12.7722 108.793C12.7722 108.793 15.4912 114.976 24.3061 114.556H26.6644L24.9657 116.135C18.5494 122.056 20.8273 128.362 20.8273 128.362C26.3843 141.025 25.5046 151.272 25.5046 151.272L25.5456 151.711C25.5456 151.711 36.1997 150.806 48.891 156.373C48.891 156.373 55.1282 158.676 61.0853 152.211L62.6461 150.566V152.929C62.2271 161.66 68.3839 164.496 68.3839 164.496C80.8698 169.394 87.6927 177.159 88.0755 177.603H88.1395L88.4681 177.462C88.4681 177.462 95.0454 169.539 107.917 164.496C107.917 164.496 114.054 161.655 113.554 152.932V150.57L115.213 152.214C121.128 158.678 127.407 156.376 127.407 156.376C140.099 150.814 150.693 151.714 150.693 151.714L150.775 151.275C150.775 151.275 149.915 141.05 155.352 128.365C155.352 128.365 157.752 122.062 151.175 116.139L149.614 114.559H151.952C160.688 114.979 163.526 108.796 163.526 108.796C168.564 95.9915 176.659 89.0869 176.659 89.0869L176.399 88.7086C176.399 88.7086 168.565 82.0647 163.527 69.2398C163.527 69.2398 160.689 63.016 151.953 63.5562H149.615L151.175 61.9364C157.753 56.016 155.353 49.6508 155.353 49.6508C149.916 37.0051 150.696 26.36 150.696 26.36L150.257 26.2778C150.257 26.2778 140.102 27.1774 127.41 21.6155C127.41 21.6155 121.134 19.3132 115.217 25.8165L113.557 27.5178V25.1168C114.057 16.3933 107.921 13.5713 107.921 13.5713C95.0487 8.50939 88.4714 0.666584 88.4714 0.666584L88.0919 0.425659C88.1116 0.425659 81.2559 8.51021 68.4036 13.5721" stroke="#E2D39E"/>
<path d="M91.8318 67.7681H91.5115V108.207H91.8318V67.7681Z" fill="#67132F"/>
<mask id="mask0_477_369" style="mask-type:luminance" maskUnits="userSpaceOnUse" x="73" y="71" width="12" height="12">
<path d="M77.5996 71.942C77.4671 72.0182 77.3602 72.132 77.2922 72.2689C77.2242 72.4059 77.1983 72.5599 77.2176 72.7116V72.8712L77.1133 72.7577C77.0204 72.6365 76.8939 72.5453 76.7496 72.4956C76.6052 72.4459 76.4495 72.4398 76.3017 72.4781C75.8216 72.698 75.2974 72.8043 74.7697 72.7889L74.7476 72.7939C74.7612 73.3276 74.6539 73.8575 74.4338 74.3439C74.3957 74.4921 74.4014 74.6483 74.4503 74.7934C74.4991 74.9384 74.589 75.0662 74.7089 75.1612L74.8223 75.2689H74.6662C74.5151 75.2475 74.361 75.2722 74.224 75.3396C74.087 75.4071 73.9735 75.5142 73.8982 75.6471C73.7131 76.1395 73.4178 76.5828 73.0348 76.943L73.0209 76.9685C73.4088 77.3351 73.7087 77.7849 73.8982 78.2842C73.973 78.4178 74.0862 78.5259 74.2232 78.5942C74.3602 78.6626 74.5146 78.688 74.6662 78.6673H74.8223L74.7089 78.7726C74.589 78.8668 74.4991 78.994 74.4502 79.1386C74.4014 79.2832 74.3956 79.4389 74.4338 79.5866C74.6531 80.0644 74.7596 80.5863 74.7451 81.112V81.1416C75.2803 81.1251 75.8122 81.2314 76.3001 81.4524C76.4476 81.4908 76.6031 81.485 76.7474 81.4357C76.8917 81.3865 77.0183 81.2959 77.1117 81.1753L77.216 81.0659V81.223C77.1966 81.3748 77.2225 81.529 77.2905 81.6661C77.3584 81.8032 77.4654 81.9171 77.5979 81.9934C78.0963 82.1818 78.5456 82.4807 78.9123 82.8675L78.9377 82.8568C79.2969 82.4724 79.7403 82.1768 80.2331 81.9934C80.3653 81.917 80.4717 81.8029 80.5387 81.6657C80.6057 81.5284 80.6303 81.3743 80.6094 81.223V81.0659L80.7194 81.1753C80.8127 81.296 80.9393 81.3866 81.0836 81.4359C81.2279 81.4851 81.3835 81.4909 81.531 81.4524C82.0172 81.2317 82.5475 81.1254 83.0811 81.1416L83.086 81.112C83.0718 80.5871 83.176 80.0657 83.3908 79.5866C83.4311 79.4386 83.4261 79.2819 83.3764 79.1368C83.3268 78.9917 83.2348 78.8648 83.1123 78.7726L83.008 78.6673H83.1632C83.3151 78.6868 83.4693 78.6607 83.6064 78.5925C83.7436 78.5243 83.8574 78.417 83.9337 78.2842C84.1224 77.7852 84.4215 77.3354 84.8086 76.9685L84.7913 76.943C84.411 76.5818 84.1177 76.1386 83.9337 75.6471C83.858 75.514 83.744 75.4068 83.6066 75.3393C83.4692 75.2719 83.3147 75.2473 83.1632 75.2689H83.008L83.1123 75.1612C83.2349 75.0683 83.3269 74.9408 83.3765 74.7952C83.4261 74.6495 83.4311 74.4924 83.3908 74.3439C83.1748 73.8563 83.0688 73.3271 83.0803 72.7939L83.0507 72.7889C82.5267 72.8039 82.0063 72.6976 81.5302 72.4781C81.3824 72.4398 81.2267 72.4459 81.0823 72.4956C80.938 72.5453 80.8115 72.6365 80.7186 72.7577L80.6085 72.8712V72.7116C80.6294 72.5604 80.6048 72.4065 80.5378 72.2693C80.4707 72.1322 80.3644 72.0183 80.2323 71.942C79.7405 71.7586 79.2973 71.4646 78.9369 71.0827L78.9114 71.0663C78.5448 71.4536 78.0955 71.7529 77.5971 71.942" fill="white"/>
</mask>
<g mask="url(#mask0_477_369)">
<path d="M84.8101 71.0663H73.0199V82.8626H84.8101V71.0663Z" fill="url(#paint0_radial_477_369)"/>
</g>
<path d="M78.9188 83.3386C79.3123 82.9201 79.7969 82.5982 80.3349 82.3979C80.4093 82.3588 80.4747 82.3048 80.5272 82.2392C80.6602 82.0758 80.7289 81.8693 80.7202 81.6587V81.3298L80.9075 81.5131C80.9861 81.6116 81.0853 81.6917 81.1981 81.7476C81.3109 81.8036 81.4347 81.8341 81.5605 81.8371C81.6244 81.838 81.6881 81.8295 81.7495 81.8116C82.2462 81.5896 82.7827 81.471 83.3266 81.463H83.4195C83.4195 81.4416 83.4129 81.4029 83.4129 81.3421C83.4226 80.8089 83.5414 80.2833 83.762 79.7979C83.7783 79.7362 83.7858 79.6725 83.7842 79.6087C83.7811 79.4833 83.7508 79.3601 83.6955 79.2475C83.6402 79.135 83.5611 79.0357 83.4638 78.9567L83.2823 78.7741H83.6059C83.8171 78.7827 84.024 78.712 84.1859 78.576C84.2509 78.5237 84.3043 78.4585 84.3428 78.3844C84.5494 77.8451 84.8706 77.3572 85.2841 76.9545C84.8644 76.5643 84.542 76.081 84.3428 75.5434C84.3045 75.4678 84.2511 75.4009 84.1859 75.3469C84.0222 75.2146 83.8161 75.1463 83.6059 75.1545H83.2823L83.4688 74.967C83.5655 74.8866 83.6438 74.7862 83.6981 74.6727C83.7524 74.5591 83.7815 74.4351 83.7834 74.3092C83.7844 74.2463 83.777 74.1835 83.7612 74.1226C83.5397 73.6239 83.4196 73.0861 83.408 72.5405C83.408 72.501 83.4121 72.4731 83.4121 72.4583H83.2897C82.7585 72.4491 82.2347 72.3328 81.7495 72.1162C81.6882 72.0977 81.6245 72.0888 81.5605 72.0899C81.4349 72.092 81.3113 72.1217 81.1984 72.177C81.0855 72.2323 80.9862 72.3117 80.9075 72.4098L80.7202 72.5948V72.2659C80.728 72.0569 80.6593 71.8522 80.5272 71.6903C80.474 71.6239 80.4088 71.5681 80.3349 71.5258C79.7974 71.3273 79.3128 71.0074 78.9188 70.5909C78.5184 71.0021 78.0335 71.3211 77.4977 71.5258C77.4229 71.5687 77.3562 71.6244 77.3005 71.6903C77.1696 71.8531 77.1004 72.0569 77.105 72.2659C77.105 72.2922 77.11 72.3095 77.11 72.335V72.594L76.9235 72.409C76.8444 72.3116 76.7451 72.2326 76.6325 72.1773C76.5199 72.1221 76.3966 72.092 76.2713 72.0891C76.2073 72.0889 76.1435 72.0969 76.0815 72.1129C75.5965 72.3322 75.0718 72.4498 74.5397 72.4583H74.4181V72.5405C74.4104 73.0853 74.2928 73.6228 74.0723 74.1209C74.0548 74.1821 74.0465 74.2456 74.0476 74.3092C74.0482 74.4361 74.0774 74.5612 74.1332 74.6751C74.1889 74.7891 74.2698 74.8889 74.3696 74.967L74.5495 75.1545H74.2292C74.0174 75.1456 73.8095 75.214 73.6443 75.3469C73.5784 75.4 73.5249 75.4668 73.4874 75.5426C73.2871 76.0795 72.9658 76.5629 72.5485 76.9553C72.9585 77.359 73.2778 77.8457 73.4849 78.3827C73.5237 78.4578 73.5781 78.5236 73.6443 78.576C73.8077 78.7128 74.0163 78.7835 74.2292 78.7741H74.5495L74.3696 78.9608C74.271 79.0379 74.1909 79.1361 74.1352 79.2482C74.0795 79.3603 74.0496 79.4835 74.0476 79.6087C74.046 79.6727 74.0543 79.7365 74.0723 79.7979C74.2895 80.2841 74.4055 80.8095 74.4132 81.3421V81.463H74.5019C75.0449 81.4706 75.5807 81.5878 76.0774 81.8075C76.1397 81.8293 76.2053 81.8396 76.2713 81.8379C76.3969 81.8342 76.5202 81.8033 76.6328 81.7474C76.7454 81.6915 76.8445 81.6118 76.9235 81.5139L77.11 81.3306V81.5978C77.11 81.6167 77.105 81.6373 77.105 81.657C77.0996 81.8676 77.1688 82.0733 77.3005 82.2375C77.3545 82.302 77.4199 82.3558 77.4936 82.3962C78.033 82.599 78.5201 82.9205 78.9188 83.3369M78.8843 83.4093C78.4905 82.9914 78.0071 82.6683 77.4706 82.4645C77.3278 82.3861 77.2105 82.2683 77.1327 82.1252C77.0548 81.9821 77.0195 81.8196 77.0311 81.657V81.509L76.9793 81.5674C76.8928 81.6718 76.7849 81.7562 76.6628 81.8151C76.5408 81.874 76.4075 81.9059 76.2721 81.9086C76.1984 81.9091 76.125 81.8986 76.0544 81.8774C75.5652 81.6604 75.0377 81.5436 74.5027 81.5337C74.4626 81.5329 74.4224 81.5357 74.3828 81.5419H74.3442V81.509L74.3376 81.4753C74.3427 81.4322 74.3448 81.3888 74.3442 81.3454C74.3346 80.8228 74.2203 80.3075 74.0082 79.8299C73.9844 79.7598 73.9727 79.6861 73.9737 79.612C73.9777 79.4767 74.0105 79.3439 74.07 79.2223C74.1295 79.1008 74.2143 78.9934 74.3187 78.9074L74.3729 78.8498H74.2316C74.0686 78.8615 73.9057 78.8264 73.7618 78.7488C73.6179 78.6712 73.4991 78.5542 73.4192 78.4115C73.2697 78.0312 73.0642 77.6753 72.8097 77.3557C72.7107 77.227 72.6008 77.107 72.4811 76.9972L72.4581 76.9734L72.4713 76.9438L72.4959 76.9125C72.9078 76.5233 73.2255 76.0453 73.425 75.5147C73.5045 75.3726 73.6229 75.2563 73.7662 75.1792C73.9096 75.1022 74.0719 75.0676 74.2341 75.0797C74.255 75.079 74.276 75.0806 74.2965 75.0846H74.3787L74.3244 75.0279C74.2191 74.9411 74.1336 74.8325 74.0741 74.7096C74.0145 74.5867 73.9823 74.4524 73.9794 74.3158C73.9797 74.2413 73.9913 74.1672 74.014 74.0963C74.2276 73.6073 74.3399 73.08 74.3442 72.5463V72.3974L74.3729 72.3917L74.4099 72.3818H74.4165C74.4165 72.3818 74.4575 72.3818 74.543 72.3818C75.0651 72.3742 75.5801 72.2603 76.0569 72.0472C76.1271 72.0242 76.2008 72.0139 76.2746 72.0167C76.4097 72.0186 76.5428 72.0497 76.6648 72.1077C76.7869 72.1657 76.895 72.2494 76.9818 72.353L77.0336 72.4139L77.0401 72.3317C77.0344 72.3091 77.0322 72.2858 77.0336 72.2626C77.0241 72.0999 77.0602 71.9378 77.1379 71.7945C77.2155 71.6513 77.3316 71.5326 77.473 71.4518C77.8545 71.3083 78.2108 71.1052 78.5286 70.8499C78.6593 70.7487 78.7796 70.6347 78.8876 70.5095L78.913 70.4906L78.9369 70.507L78.9746 70.5334C79.3611 70.9435 79.8375 71.2582 80.3662 71.4527C80.507 71.5341 80.6227 71.6529 80.7004 71.796C80.7781 71.939 80.8148 72.1008 80.8065 72.2634V72.4131L80.8607 72.3522C80.9473 72.2488 81.0548 72.165 81.1762 72.1062C81.2975 72.0474 81.4299 72.0149 81.5646 72.011C81.6386 72.011 81.7121 72.023 81.7823 72.0463C82.2582 72.2605 82.7729 72.3744 83.2946 72.381C83.3767 72.381 83.4244 72.381 83.4244 72.381H83.4359L83.4991 72.3966V72.4303C83.4943 72.4685 83.4921 72.507 83.4926 72.5455C83.502 73.0809 83.6168 73.6093 83.8302 74.1004C83.8549 74.1689 83.8666 74.2414 83.8647 74.3142C83.8621 74.4498 83.8298 74.5833 83.7702 74.7052C83.7106 74.827 83.6251 74.9344 83.5197 75.0197L83.4688 75.083H83.546C83.5671 75.079 83.5886 75.0773 83.61 75.078C83.7722 75.068 83.9339 75.1034 84.0771 75.1803C84.2203 75.2571 84.3393 75.3723 84.4208 75.513C84.5656 75.8901 84.7649 76.2439 85.0122 76.5631C85.1143 76.6915 85.2272 76.8109 85.3498 76.9199L85.3835 76.9726L85.3589 76.9964C84.9431 77.3931 84.6224 77.8789 84.4208 78.4173C84.338 78.5565 84.2187 78.6704 84.0757 78.7463C83.9327 78.8223 83.7716 78.8575 83.61 78.8481H83.4622L83.5131 78.9057C83.618 78.9913 83.7032 79.0986 83.7628 79.2202C83.8223 79.3419 83.8548 79.475 83.8581 79.6104C83.8593 79.6842 83.849 79.7577 83.8277 79.8283C83.6162 80.306 83.5023 80.8213 83.4926 81.3437V81.4737L83.4811 81.5378H83.4474C83.4072 81.5317 83.3665 81.5289 83.3258 81.5296C82.7919 81.539 82.2653 81.6559 81.7774 81.8733C81.7068 81.8947 81.6334 81.9052 81.5597 81.9045C81.4247 81.9022 81.2917 81.8705 81.1702 81.8115C81.0486 81.7526 80.9413 81.6679 80.8557 81.5633L80.8015 81.5049V81.6513C80.8119 81.8138 80.7761 81.9759 80.6981 82.1188C80.6202 82.2617 80.5034 82.3796 80.3612 82.4587C79.985 82.6054 79.633 82.8081 79.3172 83.0598C79.1895 83.1594 79.0702 83.2694 78.9607 83.3887L78.9089 83.4274L78.8843 83.4093Z" fill="#EC5615"/>
<path d="M78.9187 83.9339C79.3496 83.4787 79.8786 83.128 80.4655 82.9086C80.5477 82.8668 80.6197 82.8076 80.6766 82.7351C80.8287 82.5573 80.9074 82.3283 80.8968 82.0945V81.7492L81.0972 81.9506C81.1839 82.0565 81.2926 82.1421 81.4157 82.2016C81.5389 82.2611 81.6735 82.293 81.8102 82.2951C81.8611 82.2967 81.9119 82.2915 81.9614 82.2795C81.9816 82.2773 82.0014 82.2726 82.0205 82.2655C82.5628 82.026 83.1472 81.8969 83.7398 81.8857C83.7745 81.8832 83.8094 81.8832 83.8441 81.8857C83.8441 81.8684 83.8367 81.8199 83.8367 81.7508C83.8515 81.1694 83.9787 80.5964 84.2113 80.0635C84.2366 79.9971 84.2488 79.9265 84.2474 79.8555C84.2435 79.7172 84.2097 79.5815 84.1481 79.4576C84.0865 79.3338 83.9988 79.2249 83.8909 79.1384L83.6913 78.9403H83.9755C83.9974 78.9449 84.0197 78.9469 84.0421 78.946C84.2741 78.9544 84.501 78.8768 84.6795 78.7281C84.7509 78.6693 84.811 78.5979 84.857 78.5176C85.0806 77.9278 85.4312 77.3944 85.8838 76.9553C85.4261 76.5263 85.0746 75.9964 84.857 75.4078C84.8111 75.3265 84.751 75.2541 84.6795 75.194C84.4999 75.0479 84.2734 74.972 84.0421 74.9802H83.6913L83.8983 74.7829C84.0045 74.6958 84.0908 74.5868 84.1512 74.4634C84.2115 74.3399 84.2447 74.2049 84.2483 74.0675C84.2465 73.9981 84.2365 73.9291 84.2187 73.8619C83.9728 73.3192 83.843 72.7311 83.8375 72.1352V72.0291C83.8195 72.0291 83.7718 72.0381 83.7036 72.0381C83.1233 72.0283 82.551 71.9007 82.0213 71.6632C81.9537 71.6402 81.8825 71.6291 81.811 71.6303C81.6742 71.634 81.5397 71.667 81.4167 71.7272C81.2937 71.7873 81.185 71.8732 81.098 71.9789L80.8976 72.1796V71.8326C80.9091 71.5989 80.8302 71.3699 80.6775 71.1929C80.62 71.12 80.5481 71.0599 80.4663 71.0161C79.8802 70.801 79.3524 70.4515 78.9253 69.9956C78.4834 70.4429 77.9513 70.7907 77.3646 71.0161C77.2851 71.0629 77.2141 71.1226 77.1543 71.1929C77.0053 71.3719 76.9278 71.5998 76.9366 71.8326V72.1763L76.7411 71.9757C76.6535 71.8705 76.5447 71.7851 76.4218 71.725C76.299 71.6649 76.1648 71.6315 76.0281 71.627C75.9567 71.6272 75.8857 71.6372 75.817 71.6566C75.288 71.8958 74.7158 72.0245 74.1355 72.0349C74.0607 72.0349 74.018 72.0258 73.9926 72.0258C73.9926 72.0497 73.9975 72.0867 73.9975 72.1319C73.9909 72.7275 73.8617 73.3153 73.618 73.8587C73.6 73.9266 73.5898 73.9964 73.5876 74.0667C73.5922 74.2039 73.6258 74.3385 73.6861 74.4618C73.7464 74.5851 73.8321 74.6943 73.9375 74.7821L74.1396 74.9794H73.7929C73.5603 74.9721 73.3326 75.0479 73.1506 75.1932C73.0796 75.2513 73.0221 75.3243 72.9822 75.407C72.7647 75.9954 72.4128 76.5248 71.9546 76.9529C72.4047 77.3942 72.7551 77.9269 72.9822 78.5152C73.0207 78.5994 73.0783 78.6735 73.1506 78.7314C73.3314 78.8793 73.5596 78.9567 73.7929 78.9493C73.8139 78.9503 73.8349 78.9484 73.8554 78.9436H74.1396L73.9375 79.1458C73.8321 79.2331 73.7464 79.3418 73.686 79.4647C73.6257 79.5876 73.5922 79.7219 73.5876 79.8588C73.5862 79.9293 73.5965 79.9996 73.618 80.0668C73.854 80.5965 73.9812 81.1684 73.9917 81.7483C73.9917 81.8232 73.986 81.8717 73.986 81.8889C74.0221 81.8867 74.0583 81.8867 74.0944 81.8889C74.6889 81.8996 75.2754 82.0287 75.8194 82.2688C75.8877 82.2903 75.959 82.3003 76.0306 82.2984C76.1676 82.2955 76.3024 82.2627 76.4255 82.2023C76.5486 82.142 76.6572 82.0555 76.7436 81.949L76.9391 81.7524V82.0978C76.9311 82.3308 77.0085 82.5586 77.1567 82.7383C77.2146 82.8097 77.2861 82.8687 77.367 82.9118C77.955 83.1372 78.4873 83.4869 78.9278 83.9372M78.8933 84.0153C78.4617 83.5563 77.9309 83.2022 77.3416 82.9801C77.1881 82.8919 77.0622 82.7626 76.978 82.6068C76.8939 82.4509 76.8548 82.2747 76.8651 82.0978C76.8643 82.075 76.8657 82.0521 76.8692 82.0295V81.9358L76.806 82.0016C76.7112 82.1152 76.5935 82.2075 76.4606 82.2722C76.3276 82.337 76.1824 82.3728 76.0347 82.3774C75.9535 82.381 75.8725 82.3681 75.7964 82.3395C75.2619 82.1039 74.6858 81.9775 74.1018 81.9679C74.0582 81.9673 74.0145 81.9695 73.9712 81.9745H73.9359L73.926 81.935L73.9203 81.9021V81.75C73.9155 81.1786 73.7907 80.6146 73.5539 80.0947C73.5332 80.0184 73.5233 79.9395 73.5243 79.8604C73.5263 79.7121 73.5608 79.5661 73.6252 79.4326C73.6896 79.299 73.7825 79.1812 73.8973 79.0875L73.9613 79.0258H73.797C73.6192 79.0377 73.4416 78.9989 73.2849 78.9139C73.1282 78.8289 72.9987 78.7012 72.9115 78.5456C72.7506 78.1292 72.5252 77.7407 72.2437 77.3944C72.1363 77.251 72.0146 77.1187 71.8806 76.9997L71.8535 76.9775L71.8757 76.9463L71.9012 76.9093C72.3517 76.4853 72.6976 75.9623 72.9115 75.3815C73.0001 75.2274 73.13 75.1012 73.2865 75.0171C73.4429 74.9329 73.6198 74.8943 73.797 74.9054H73.9613L73.8973 74.8437C73.7825 74.7499 73.6897 74.6321 73.6253 74.4986C73.5609 74.3651 73.5264 74.2191 73.5243 74.0708C73.5243 73.9907 73.5342 73.9108 73.5539 73.8332C73.7938 73.2999 73.9205 72.7225 73.926 72.1376V72.0028L73.9203 71.9724L73.9556 71.9641L73.9934 71.9567H73.9991C73.9991 71.9567 74.0484 71.9567 74.1421 71.9567C74.7127 71.9482 75.2756 71.8234 75.7964 71.59C75.8729 71.5632 75.9536 71.5504 76.0347 71.5522C76.1817 71.5558 76.3262 71.5913 76.4582 71.6561C76.5902 71.721 76.7066 71.8137 76.7994 71.928L76.8692 71.9979V71.9066C76.8659 71.8826 76.8645 71.8584 76.8651 71.8342C76.8546 71.6568 76.8935 71.4799 76.9777 71.3233C77.0618 71.1668 77.1878 71.0368 77.3416 70.9478C77.7586 70.7833 78.1498 70.5595 78.5031 70.2834C78.6412 70.1701 78.7716 70.0476 78.8933 69.9167L78.9187 69.8904L78.9483 69.9126L78.9803 69.934C79.4043 70.3858 79.9274 70.7329 80.5082 70.9478C80.6609 71.0378 80.7859 71.1681 80.8695 71.3244C80.9531 71.4808 80.9921 71.6572 80.9822 71.8342V71.9987L81.0438 71.9288C81.1381 71.8136 81.2563 71.7204 81.3902 71.6555C81.5241 71.5906 81.6705 71.5556 81.8193 71.553C81.8981 71.5519 81.9765 71.5647 82.0509 71.5908C82.5743 71.8244 83.1397 71.9491 83.7127 71.9576C83.7948 71.9576 83.854 71.9576 83.854 71.9576H83.8614L83.9246 71.9707V72.0036C83.9246 72.0036 83.9246 72.0521 83.9246 72.1385C83.9364 72.7247 84.0637 73.3028 84.2992 73.8397C84.3234 73.9146 84.335 73.993 84.3337 74.0716C84.33 74.2199 84.2945 74.3657 84.2296 74.4991C84.1647 74.6324 84.0719 74.7503 83.9575 74.8446L83.895 74.9062H84.0552C84.2325 74.8941 84.4096 74.9323 84.5662 75.0166C84.7227 75.1008 84.8522 75.2276 84.9399 75.3823C85.0995 75.7954 85.3211 76.1816 85.5971 76.5277C85.7043 76.6699 85.826 76.8005 85.9601 76.9175L86.0004 76.9775L85.9758 76.9997C85.5193 77.4329 85.1664 77.9635 84.9432 78.5522C84.8558 78.7072 84.7263 78.8343 84.5697 78.9187C84.4132 79.0031 84.2359 79.0414 84.0585 79.0291H83.8983L83.9608 79.0908C84.0752 79.185 84.168 79.3028 84.233 79.4362C84.2979 79.5696 84.3334 79.7154 84.337 79.8637C84.3384 79.9429 84.3267 80.0218 84.3025 80.0972C84.067 80.6201 83.9406 81.1856 83.9312 81.759C83.9306 81.8041 83.9333 81.8492 83.9394 81.8939V81.9054H83.9312L83.9213 81.9745H83.8868C83.8432 81.9696 83.7993 81.9674 83.7554 81.9679C83.1699 81.9776 82.5924 82.1054 82.0575 82.3437C81.9825 82.367 81.9043 82.3784 81.8258 82.3774C81.6772 82.3741 81.531 82.3388 81.3972 82.274C81.2634 82.2092 81.1451 82.1163 81.0504 82.0016L80.9888 81.9358V82.1003C81.0002 82.2776 80.9612 82.4545 80.8765 82.6106C80.7918 82.7667 80.6647 82.8956 80.5099 82.9826C80.0998 83.1429 79.7165 83.3647 79.373 83.6404C79.2313 83.7495 79.0991 83.8706 78.9779 84.0022L78.9196 84.0416L78.8933 84.0153Z" fill="#EC5615"/>
<path d="M78.9245 84.5177C79.387 84.0194 79.9595 83.6362 80.5962 83.3986C80.6863 83.352 80.7665 83.288 80.8319 83.2103C80.9882 83.016 81.0688 82.7714 81.0586 82.5221V82.1512L81.2722 82.356C81.3653 82.4724 81.4829 82.5668 81.6167 82.6325C81.7504 82.6982 81.897 82.7335 82.046 82.7359C82.1238 82.7372 82.2014 82.7281 82.2768 82.7087C82.8628 82.446 83.4962 82.3061 84.1382 82.2976C84.176 82.2951 84.2138 82.2951 84.2516 82.2976V82.1504C84.2606 81.5208 84.3978 80.8997 84.6549 80.325C84.6779 80.2519 84.689 80.1755 84.6878 80.0988C84.683 79.9491 84.6464 79.8022 84.5804 79.6678C84.5144 79.5333 84.4205 79.4146 84.305 79.3193L84.0963 79.1088H84.3904C84.415 79.1138 84.4401 79.1157 84.4652 79.1146C84.7176 79.1217 84.9644 79.0389 85.1617 78.8811C85.2388 78.8173 85.3013 78.7376 85.3449 78.6475C85.5907 78.0099 85.9709 77.4327 86.4596 76.9553C85.9627 76.4913 85.581 75.9174 85.3449 75.2795C85.3007 75.1903 85.2383 75.1113 85.1617 75.0476C84.9647 74.8893 84.7177 74.8065 84.4652 74.8141H84.0963L84.305 74.6053C84.4202 74.5105 84.514 74.3923 84.58 74.2585C84.646 74.1246 84.6827 73.9782 84.6878 73.829C84.6899 73.7523 84.6787 73.6758 84.6549 73.6029C84.3938 73.0142 84.2541 72.3788 84.2442 71.7347V71.6171C84.2261 71.6171 84.1752 71.6171 84.0939 71.6171C83.4664 71.6083 82.8474 71.4718 82.2744 71.2159C82.1992 71.1954 82.1214 71.1857 82.0435 71.1871C81.8941 71.1884 81.7468 71.223 81.6124 71.2885C81.4779 71.3539 81.3598 71.4485 81.2664 71.5653L81.0562 71.7701V71.4042C81.0669 71.1533 80.9863 70.907 80.8294 70.711C80.7623 70.6342 80.6826 70.5694 80.5937 70.5194C79.9588 70.2825 79.3869 69.9027 78.9221 69.4093C78.4451 69.897 77.8684 70.2757 77.2315 70.5194C77.1444 70.5709 77.0657 70.6355 76.9982 70.711C76.8383 70.9057 76.755 71.1523 76.7641 71.4042V71.7758L76.5596 71.5653C76.465 71.4482 76.3457 71.3535 76.2102 71.2881C76.0747 71.2227 75.9264 71.1882 75.7759 71.1871C75.7009 71.1863 75.626 71.1954 75.5533 71.2142C74.9782 71.4719 74.3565 71.6093 73.7264 71.618C73.6525 71.618 73.5983 71.618 73.5777 71.618C73.5777 71.6434 73.5777 71.6837 73.5777 71.7355C73.5687 72.3797 73.429 73.0153 73.167 73.6037C73.1456 73.6771 73.1357 73.7534 73.1375 73.8299C73.1415 73.9795 73.1777 74.1266 73.2434 74.2611C73.3092 74.3955 73.403 74.5143 73.5186 74.6094L73.7199 74.8149H73.351C73.1002 74.8052 72.8545 74.8884 72.661 75.0485C72.5828 75.1126 72.5178 75.1914 72.4696 75.2803C72.2377 75.9176 71.8589 76.4912 71.364 76.9545H71.3582C71.8492 77.4293 72.2288 78.0072 72.4696 78.6467C72.5172 78.7366 72.5823 78.816 72.661 78.8802C72.8571 79.0415 73.1057 79.1247 73.3592 79.1138C73.3829 79.1147 73.4067 79.1128 73.4299 79.108H73.7199L73.5186 79.3185C73.4026 79.4132 73.3085 79.5319 73.2427 79.6665C73.1769 79.801 73.141 79.9483 73.1375 80.098C73.1364 80.1744 73.1463 80.2506 73.167 80.3241C73.4245 80.8967 73.5621 81.516 73.5712 82.1438C73.5712 82.2261 73.5662 82.282 73.5662 82.2968C73.6035 82.2944 73.6408 82.2944 73.678 82.2968C74.3203 82.3049 74.954 82.4449 75.5402 82.7079C75.5643 82.7114 75.5881 82.7164 75.6116 82.7227C75.664 82.732 75.7171 82.7358 75.7702 82.7342C75.9206 82.7322 76.0688 82.6971 76.2042 82.6315C76.3396 82.5658 76.459 82.4712 76.5538 82.3543L76.7584 82.1496V82.5204C76.7498 82.7708 76.8331 83.0156 76.9925 83.2087C77.0561 83.2846 77.1329 83.3484 77.2192 83.397C77.8584 83.6428 78.437 84.024 78.9155 84.5144M78.8744 84.5909C78.4067 84.093 77.8308 83.7096 77.1913 83.4702C77.0257 83.3757 76.8899 83.2366 76.7993 83.0687C76.7087 82.9008 76.6669 82.7109 76.6787 82.5204C76.6787 82.4941 76.6861 82.4678 76.6861 82.4382V82.333L76.6039 82.4037C76.5024 82.5287 76.375 82.6302 76.2305 82.7012C76.086 82.7722 75.9278 82.8109 75.7669 82.8148C75.6815 82.8137 75.5968 82.7998 75.5155 82.7737C74.9351 82.5173 74.309 82.3806 73.6747 82.3716C73.6278 82.3714 73.5809 82.3736 73.5342 82.3782H73.5022L73.4981 82.3461L73.489 82.3034V82.2984C73.4958 82.2477 73.4988 82.1966 73.4981 82.1455C73.4888 81.529 73.3564 80.9207 73.1087 80.3562C73.0805 80.2748 73.0666 80.1891 73.0676 80.103C73.0716 79.9428 73.1097 79.7853 73.1794 79.6411C73.2491 79.4969 73.3488 79.3692 73.4718 79.2667L73.5449 79.1976H73.3675C73.1753 79.2111 72.9832 79.1696 72.8136 79.0781C72.6441 78.9865 72.504 78.8486 72.4097 78.6804C72.2341 78.2281 71.9924 77.8044 71.6925 77.4232C71.5706 77.2709 71.4363 77.1289 71.2908 76.9989L71.2687 76.9767L71.2835 76.9454L71.3098 76.9084C71.7977 76.4469 72.1739 75.8799 72.4097 75.2507C72.5039 75.0848 72.6431 74.9489 72.811 74.8586C72.979 74.7683 73.169 74.7272 73.3592 74.7401H73.5449L73.4718 74.671C73.348 74.5686 73.2479 74.4407 73.1781 74.2959C73.1084 74.1511 73.0707 73.993 73.0676 73.8323C73.067 73.7449 73.0809 73.6579 73.1087 73.575C73.3635 72.9956 73.4993 72.3709 73.5079 71.738V71.5974L73.5022 71.5588L73.535 71.5538L73.5745 71.5431L73.5794 71.5481C73.5794 71.5481 73.6353 71.5481 73.7281 71.5481C74.3491 71.5393 74.9619 71.4035 75.5287 71.1493C75.6072 71.1192 75.6911 71.1055 75.7751 71.109C75.9361 71.1126 76.0943 71.1513 76.2389 71.2223C76.3834 71.2933 76.5108 71.3949 76.6122 71.5201L76.6943 71.5925V71.4839C76.6885 71.4591 76.6861 71.4337 76.6869 71.4083C76.6747 71.2168 76.7169 71.0257 76.8084 70.8571C76.9 70.6885 77.0372 70.5492 77.2044 70.4553C77.6551 70.2784 78.0766 70.0344 78.4547 69.7317C78.608 69.6128 78.7512 69.4814 78.8826 69.3386L78.9081 69.3107L78.9377 69.3271L78.9746 69.3534C79.4338 69.8443 80.0008 70.2215 80.6307 70.4553C80.7949 70.5519 80.9294 70.692 81.0194 70.8601C81.1094 71.0282 81.1514 71.2179 81.1408 71.4083V71.5949L81.2163 71.5176C81.3162 71.3928 81.4421 71.2913 81.5853 71.2202C81.7285 71.1492 81.8854 71.1104 82.0452 71.1065C82.1308 71.103 82.2163 71.1167 82.2965 71.1468C82.8631 71.4001 83.4751 71.5357 84.0955 71.5456C84.1982 71.5456 84.2458 71.5456 84.2458 71.5456L84.2499 71.5407L84.254 71.5456L84.3271 71.5555L84.3222 71.5941C84.3222 71.5941 84.3222 71.6402 84.3222 71.7347C84.3327 72.3685 84.4692 72.9938 84.7239 73.5741C84.752 73.6561 84.7659 73.7423 84.765 73.829C84.7613 73.9887 84.7232 74.1458 84.6533 74.2894C84.5834 74.433 84.4833 74.5598 84.36 74.6612L84.2877 74.736H84.4676C84.6588 74.7228 84.8499 74.7641 85.0185 74.8552C85.1872 74.9463 85.3266 75.0835 85.4205 75.2507C85.5947 75.6965 85.8341 76.1139 86.131 76.4891C86.251 76.6405 86.3832 76.7819 86.5261 76.9117L86.5582 76.9718L86.5418 76.994C86.0432 77.4616 85.6596 78.0386 85.4213 78.6796C85.3259 78.8454 85.1862 78.9813 85.0179 79.072C84.8495 79.1626 84.6592 79.2044 84.4684 79.1927H84.2885L84.3608 79.2618C84.4846 79.3637 84.5849 79.4912 84.6548 79.6355C84.7247 79.7799 84.7626 79.9376 84.7658 80.098C84.767 80.1837 84.7531 80.2688 84.7247 80.3496C84.4737 80.9169 84.3401 81.5292 84.3321 82.1496V82.314L84.323 82.3815H84.2885C84.2397 82.3764 84.1906 82.3742 84.1415 82.3749C83.5072 82.3841 82.8812 82.5209 82.3006 82.777C82.2194 82.8028 82.1345 82.8148 82.0493 82.8123C81.8903 82.8109 81.7335 82.7743 81.5902 82.7053C81.447 82.6362 81.3207 82.5363 81.2204 82.4127L81.1449 82.3362V82.5237C81.1565 82.7145 81.1144 82.9048 81.0235 83.0729C80.9327 83.2411 80.7966 83.3804 80.6307 83.4751C80.1842 83.6451 79.7671 83.884 79.3944 84.1831C79.2408 84.3011 79.0994 84.4341 78.9722 84.5802L78.913 84.6172L78.8744 84.5909Z" fill="#EC5615"/>
<path d="M78.9237 85.1056C79.4218 84.5698 80.0393 84.1593 80.726 83.9076C80.8172 83.8488 80.9001 83.778 80.9724 83.6971C81.1476 83.4884 81.2389 83.222 81.2287 82.9496V82.5599L81.4529 82.7778C81.5551 82.9021 81.6823 83.0034 81.8263 83.0751C81.9702 83.1468 82.1277 83.1873 82.2884 83.1938C82.3722 83.1972 82.4559 83.1841 82.5348 83.1552C83.1673 82.8738 83.8503 82.7236 84.5424 82.7136H84.6697C84.6697 82.7005 84.6656 82.6437 84.6656 82.5541C84.6753 81.876 84.824 81.2071 85.1026 80.5889C85.1256 80.5087 85.1364 80.4256 85.1346 80.3422C85.1316 80.1803 85.0933 80.0209 85.0223 79.8754C84.9514 79.7298 84.8496 79.6015 84.7239 79.4994L84.512 79.2798H84.8167C84.8439 79.2843 84.8714 79.2863 84.8989 79.2856C85.1684 79.2955 85.432 79.2047 85.6382 79.0307C85.7216 78.9619 85.7915 78.8783 85.8444 78.784C86.1079 78.0959 86.5173 77.4731 87.0445 76.9586C86.5133 76.4539 86.103 75.8355 85.8444 75.1496C85.7946 75.0521 85.7242 74.9665 85.6382 74.8988C85.4329 74.7229 85.1689 74.6309 84.8989 74.6414H84.5103L84.7223 74.4227C84.848 74.3218 84.95 74.1944 85.021 74.0496C85.0919 73.9048 85.1302 73.7461 85.133 73.5848C85.1351 73.5014 85.1243 73.4182 85.101 73.3381C84.8191 72.7028 84.6685 72.017 84.6582 71.3219C84.6567 71.2802 84.6584 71.2384 84.6631 71.1969C84.6086 71.2033 84.5537 71.206 84.4988 71.2052C83.8224 71.1965 83.1551 71.0478 82.5389 70.7685C82.5166 70.7606 82.4938 70.754 82.4707 70.7488C82.2814 70.7187 82.0876 70.7395 81.909 70.8092C81.7305 70.8788 81.5736 70.9948 81.4546 71.1451L81.2303 71.363V70.9774C81.2412 70.7039 81.1498 70.4362 80.974 70.2267C80.9051 70.1439 80.8216 70.0745 80.7276 70.0219C80.0445 69.7664 79.4283 69.359 78.9254 68.8304V68.8239C78.4114 69.3488 77.7909 69.7573 77.1059 70.0219C77.0095 70.0748 76.923 70.1441 76.8504 70.2267C76.6779 70.4379 76.5883 70.7048 76.5982 70.9774V71.3671L76.3855 71.1492C76.2834 71.0236 76.1552 70.9217 76.0098 70.8507C75.8644 70.7797 75.7053 70.7413 75.5435 70.7381C75.4605 70.7388 75.3779 70.7488 75.2971 70.7677C74.6814 71.0493 74.0139 71.1994 73.3371 71.2084C73.2822 71.2096 73.2273 71.2068 73.1728 71.2002C73.1776 71.2417 73.1792 71.2835 73.1777 71.3252C73.1679 72.0198 73.0164 72.7051 72.7325 73.3389C72.7059 73.4184 72.6932 73.5018 72.6947 73.5856C72.7014 73.7477 72.7424 73.9065 72.8151 74.0516C72.8877 74.1966 72.9903 74.3245 73.1161 74.4268L73.3313 74.6422H72.9395C72.6679 74.6309 72.402 74.7229 72.1953 74.8996C72.111 74.9681 72.0403 75.0518 71.9866 75.1463C71.733 75.8345 71.3223 76.4539 70.7873 76.9553C71.3152 77.4674 71.7246 78.0891 71.9866 78.7766C72.0386 78.8739 72.1095 78.9598 72.1953 79.029C72.403 79.2038 72.6684 79.2947 72.9395 79.284C72.967 79.2847 72.9945 79.2828 73.0217 79.2782H73.3272L73.1104 79.5002C72.9861 79.6032 72.8848 79.7313 72.8132 79.8761C72.7416 80.0209 72.7012 80.1791 72.6947 80.3406C72.6923 80.4225 72.7051 80.5042 72.7325 80.5815C73.0107 81.2011 73.1581 81.8716 73.1654 82.5508C73.1676 82.6057 73.1662 82.6606 73.1613 82.7153H73.2927C73.9843 82.7254 74.6667 82.8756 75.2987 83.1568C75.378 83.184 75.4614 83.1971 75.5451 83.1955C75.7069 83.1891 75.8656 83.1486 76.0107 83.0766C76.1558 83.0047 76.2841 82.9028 76.3871 82.7778L76.5999 82.5615V82.9513C76.5906 83.2228 76.6802 83.4884 76.852 83.6987C76.9226 83.7834 77.0095 83.8531 77.1075 83.9035C77.7936 84.1689 78.4142 84.5795 78.927 85.1073M78.8859 85.178C78.3773 84.6483 77.7575 84.2382 77.0714 83.9775C76.8929 83.875 76.7467 83.7246 76.6493 83.5432C76.5519 83.3618 76.5072 83.1568 76.5202 82.9513C76.5202 82.9217 76.5268 82.9003 76.5268 82.869V82.7416L76.438 82.8304C76.3297 82.9634 76.1935 83.0709 76.0391 83.1454C75.8846 83.2198 75.7157 83.2594 75.5443 83.2613C75.45 83.2638 75.3558 83.2519 75.265 83.2259C74.6439 82.9495 73.9732 82.8018 73.2935 82.7918C73.1966 82.7918 73.1383 82.7918 73.1383 82.7918H73.1005L73.0948 82.758L73.0882 82.7153V82.7095C73.0882 82.7095 73.0882 82.6487 73.0882 82.5451C73.0797 81.8777 72.9343 81.2191 72.661 80.6103C72.6354 80.5207 72.6224 80.428 72.6224 80.3348C72.6244 80.1628 72.664 79.9933 72.7385 79.8383C72.813 79.6833 72.9206 79.5466 73.0537 79.4377L73.1424 79.3555H72.9379C72.7323 79.369 72.5272 79.324 72.3461 79.2258C72.165 79.1276 72.0153 78.9801 71.9143 78.8005C71.7235 78.315 71.4613 77.8607 71.1364 77.4528C71.0081 77.2858 70.8652 77.1306 70.7093 76.989L70.6838 76.9652L70.7019 76.9356L70.7265 76.8985H70.7339C71.2575 76.4007 71.6611 75.7903 71.9143 75.1134C72.0162 74.9348 72.1662 74.7886 72.3472 74.6913C72.5282 74.594 72.7329 74.5497 72.9379 74.5633C72.96 74.5633 72.9921 74.5633 73.02 74.5633H73.1424L73.0537 74.4811C72.9209 74.3718 72.8135 74.2349 72.739 74.0798C72.6645 73.9247 72.6247 73.7552 72.6224 73.5832C72.6215 73.4893 72.6351 73.3958 72.6627 73.3061C72.9399 72.6811 73.088 72.0065 73.0981 71.3227C73.0988 71.2718 73.0955 71.221 73.0882 71.1706V71.1427L73.1219 71.132L73.1646 71.1262H73.1769C73.1769 71.1262 73.2311 71.1262 73.3412 71.1262C74.0086 71.1169 74.6671 70.9714 75.2765 70.6986C75.3647 70.6708 75.4568 70.6575 75.5492 70.6592C75.7206 70.6638 75.8889 70.705 76.0431 70.78C76.1972 70.855 76.3335 70.9621 76.443 71.0941L76.5317 71.1813V71.0654C76.5317 71.0391 76.5251 71.0095 76.5251 70.9831C76.513 70.7778 76.5581 70.573 76.6554 70.3918C76.7527 70.2106 76.8984 70.0601 77.0763 69.9569C77.5652 69.7699 78.0222 69.508 78.4309 69.1807C78.5966 69.0528 78.7505 68.9102 78.8909 68.7548L78.9163 68.7244L78.9459 68.7449L78.9829 68.7745C79.4795 69.3018 80.0912 69.7068 80.7703 69.9578C80.9466 70.062 81.0907 70.213 81.1866 70.3941C81.2824 70.5753 81.3263 70.7794 81.3133 70.984V71.1887L81.402 71.1065C81.5112 70.9733 81.6477 70.8653 81.8024 70.7898C81.9571 70.7143 82.1262 70.6731 82.2982 70.669C82.3905 70.6692 82.4823 70.6825 82.5709 70.7085C83.1801 70.981 83.8383 71.1265 84.5054 71.1361C84.613 71.1361 84.6697 71.1361 84.6697 71.1361H84.6837L84.756 71.1525L84.7519 71.1846C84.7519 71.1846 84.7469 71.2405 84.7469 71.3367C84.7578 72.0212 84.9052 72.6967 85.1806 73.3233C85.21 73.4116 85.2247 73.5041 85.2242 73.5971C85.2202 73.7684 85.1795 73.9367 85.1048 74.0908C85.0301 74.2449 84.9232 74.3811 84.7913 74.4901L84.7026 74.5797H84.8217C84.8496 74.5797 84.8841 74.5797 84.9087 74.5797C85.1134 74.5659 85.3178 74.6102 85.4985 74.7075C85.6791 74.8048 85.8286 74.9512 85.9298 75.1298C86.1164 75.6111 86.3742 76.0615 86.6946 76.466C86.8229 76.6313 86.9658 76.7846 87.1217 76.924L87.1554 76.9849L87.1373 77.0087C86.6029 77.5149 86.1903 78.136 85.9306 78.8251C85.8289 79.0032 85.6792 79.1492 85.4987 79.2464C85.3182 79.3437 85.1141 79.3883 84.9096 79.3752H84.7034L84.7855 79.4575C84.9184 79.5668 85.0262 79.7035 85.1014 79.8583C85.1767 80.0132 85.2177 80.1824 85.2217 80.3545C85.2223 80.4481 85.2076 80.5412 85.1782 80.63C84.9064 81.2397 84.7606 81.8981 84.7494 82.5656C84.7494 82.6643 84.7535 82.7252 84.7535 82.7252V82.7367L84.7404 82.8082H84.7067C84.7067 82.8082 84.6516 82.8082 84.549 82.8082C83.8668 82.8178 83.1938 82.9663 82.5709 83.2448C82.3584 83.2966 82.1356 83.2867 81.9286 83.2162C81.7215 83.1457 81.5389 83.0176 81.402 82.8468L81.3133 82.7646V82.9685C81.3276 83.1738 81.2838 83.3789 81.1871 83.5603C81.0903 83.7418 80.9445 83.8924 80.7662 83.9947C80.2861 84.1833 79.8361 84.4413 79.4306 84.7603C79.2681 84.889 79.1159 85.0303 78.9755 85.1829L78.9163 85.2207L78.8859 85.178Z" fill="#EC5615"/>
<path d="M78.9188 85.7429C79.4706 85.1929 80.1316 84.7649 80.859 84.4865C80.859 84.4865 80.8697 84.4865 80.8722 84.4808C80.8746 84.475 80.9034 84.461 80.9289 84.4454C80.9922 84.4017 81.0489 84.349 81.0973 84.2892C81.2732 84.081 81.3645 83.8142 81.3527 83.5417V82.8469L81.7774 83.277C81.88 83.4026 82.0086 83.5045 82.1545 83.5755C82.3003 83.6465 82.4597 83.6849 82.6219 83.6881C82.6969 83.69 82.7718 83.6815 82.8445 83.6626H82.8519C83.5608 83.352 84.3239 83.1843 85.0977 83.1692H85.1231V83.1018C85.1341 82.3447 85.2996 81.5979 85.6094 80.9072C85.6136 80.8896 85.6166 80.8717 85.6185 80.8537C85.6313 80.7957 85.6379 80.7364 85.6382 80.6769C85.634 80.5135 85.5938 80.353 85.5205 80.2069C85.4473 80.0608 85.3427 79.9327 85.2143 79.8316L84.7905 79.4065H85.4821C85.6675 79.4213 85.8534 79.3844 86.0191 79.3C86.1848 79.2155 86.3239 79.0867 86.421 78.928C86.4251 78.923 86.4309 78.9189 86.4309 78.9165C86.7151 78.1857 87.144 77.5201 87.6918 76.9595C87.1383 76.4105 86.7084 75.7494 86.4309 75.0205C86.4289 75.0142 86.4262 75.0081 86.4227 75.0025C86.4227 74.9926 86.4054 74.9737 86.3939 74.9515C86.3494 74.8878 86.2963 74.8305 86.2362 74.7813C86.0237 74.6085 85.7566 74.5172 85.4829 74.5239C85.4532 74.5233 85.4235 74.5255 85.3942 74.5305H84.7913L85.225 74.0963C85.3511 73.9947 85.4533 73.8665 85.5243 73.7208C85.5953 73.5751 85.6333 73.4156 85.6357 73.2535C85.6364 73.179 85.6264 73.1048 85.6061 73.0331V73.0216C85.2899 72.3139 85.1221 71.5488 85.1133 70.7735V70.7538H85.0426C84.2864 70.7415 83.5405 70.5756 82.8502 70.2662C82.8314 70.2637 82.8129 70.259 82.7952 70.2522C82.7378 70.2425 82.6799 70.2362 82.6219 70.2333C82.4584 70.2369 82.2977 70.2764 82.1511 70.3488C82.0045 70.4213 81.8756 70.525 81.7733 70.6526L81.3535 71.0778V70.3887C81.3669 70.2025 81.3291 70.0162 81.2443 69.8499C81.1594 69.6837 81.0308 69.5438 80.8722 69.4456H80.8631C80.1342 69.1624 79.4721 68.7306 78.9188 68.1776C78.3603 68.7258 77.6966 69.1552 76.9679 69.4398H76.9531L76.9013 69.4776C76.8389 69.5233 76.7811 69.5751 76.7288 69.6322C76.5583 69.8443 76.4684 70.11 76.475 70.3821C76.475 70.406 76.4799 70.4364 76.4799 70.4643V71.0745L76.0487 70.6444C75.9471 70.518 75.8189 70.4156 75.6732 70.3445C75.5275 70.2735 75.3679 70.2355 75.2059 70.2333C75.1314 70.2297 75.0568 70.2394 74.9857 70.2621H74.9759C74.2869 70.5725 73.5421 70.7398 72.7867 70.7538H72.7128V70.7793C72.6997 71.5524 72.5321 72.3151 72.2199 73.0224C72.2183 73.0431 72.2155 73.0637 72.2117 73.0841C72.1947 73.1387 72.1861 73.1955 72.1862 73.2527C72.1914 73.4161 72.2317 73.5765 72.3044 73.723C72.3772 73.8694 72.4806 73.9984 72.6076 74.1012L73.0299 74.5296H72.4236C72.3982 74.5246 72.3723 74.5224 72.3464 74.5231C72.1606 74.5122 71.9753 74.5507 71.8091 74.6345C71.6429 74.7184 71.5018 74.8448 71.4001 75.0008C71.3987 75.0062 71.3987 75.0119 71.4001 75.0173C71.1194 75.7436 70.6921 76.4041 70.145 76.9578C70.6865 77.5222 71.1129 78.187 71.4001 78.9148C71.3989 78.9185 71.3989 78.9226 71.4001 78.9263C71.4134 78.9448 71.4252 78.9643 71.4354 78.9847C71.4796 79.046 71.5315 79.1013 71.5899 79.1492C71.8008 79.3225 72.068 79.4124 72.3407 79.4016H73.0282L72.6035 79.8267C72.478 79.93 72.3758 80.0587 72.3036 80.2044C72.2314 80.3501 72.1908 80.5095 72.1846 80.672C72.1847 80.7467 72.1958 80.8209 72.2175 80.8924V80.9022C72.5275 81.5929 72.693 82.3398 72.7038 83.0969V83.1643H72.7218C73.4967 83.1788 74.261 83.3465 74.9709 83.6577C74.9902 83.6626 75.0092 83.6689 75.0276 83.6766C75.0849 83.6857 75.1429 83.6904 75.2009 83.6906C75.3644 83.6849 75.5249 83.6448 75.6718 83.5728C75.8187 83.5008 75.9488 83.3986 76.0536 83.2728L76.4742 82.8453V83.4537C76.4742 83.4825 76.4692 83.508 76.4692 83.536C76.4567 83.7211 76.4946 83.9062 76.5788 84.0716C76.6629 84.2369 76.7903 84.3763 76.9473 84.475C76.9519 84.4776 76.9569 84.4796 76.9621 84.4808C77.691 84.7624 78.3549 85.1899 78.913 85.7372M78.7906 86.0513C78.7548 86.0061 78.7159 85.9635 78.674 85.9238C78.5919 85.8416 78.4662 85.7257 78.3002 85.5949C77.859 85.2446 77.3682 84.9619 76.8438 84.7562H76.8356C76.6286 84.6372 76.4577 84.4643 76.3411 84.2557C76.2245 84.0472 76.1666 83.811 76.1735 83.5721C75.9167 83.8336 75.5672 83.9831 75.2009 83.9882C75.0879 83.9887 74.9755 83.9721 74.8674 83.9389H74.8633V83.9315C74.188 83.6355 73.4606 83.4773 72.7235 83.4661C72.6216 83.4661 72.5698 83.471 72.5698 83.471L72.4327 83.4801L72.4072 83.3501L72.39 83.2868L72.3998 83.263C72.3998 83.263 72.3998 83.2046 72.3998 83.0911C72.389 82.3727 72.2322 81.6641 71.939 81.0083H71.9332C71.9019 80.897 71.8864 80.7819 71.8872 80.6662C71.888 80.4853 71.9246 80.3064 71.9952 80.1398C72.0657 79.9732 72.1686 79.8223 72.298 79.696C72.0586 79.7034 71.8218 79.6455 71.6128 79.5285C71.4039 79.4114 71.2307 79.2396 71.1118 79.0316V79.0258C70.8507 78.345 70.4576 77.7227 69.9552 77.1946C69.8731 77.1173 69.8213 77.0746 69.8213 77.0746L69.7186 76.9923L69.7917 76.8797L69.8312 76.823L69.846 76.8082C69.846 76.8082 69.887 76.7753 69.9725 76.6906C70.0878 76.5801 70.1941 76.4605 70.2904 76.3329C70.6379 75.8997 70.9152 75.4143 71.1118 74.8947V74.889C71.2317 74.6816 71.405 74.5102 71.6136 74.3927C71.8223 74.2752 72.0586 74.2161 72.298 74.2213C72.1686 74.0951 72.0657 73.9444 71.9952 73.7779C71.9247 73.6115 71.888 73.4326 71.8872 73.2518C71.8861 73.1389 71.9016 73.0264 71.9332 72.918L71.939 72.9106C72.2346 72.239 72.3927 71.5148 72.4039 70.7809C72.4039 70.674 72.3998 70.6165 72.3998 70.6165L72.3867 70.4865L72.5206 70.4561L72.5863 70.4438L72.6109 70.4479C72.6109 70.4479 72.6635 70.4528 72.781 70.4528C73.498 70.4385 74.205 70.2805 74.86 69.9883H74.8641C74.9716 69.9525 75.0844 69.9352 75.1976 69.9373C75.379 69.9375 75.5584 69.9739 75.7254 70.0445C75.8924 70.1151 76.0437 70.2185 76.1702 70.3484C76.1633 70.11 76.2213 69.8742 76.3379 69.6662C76.4545 69.4582 76.6254 69.2859 76.8323 69.1676H76.8372C77.5225 68.9028 78.1485 68.5045 78.6789 67.9959C78.7206 67.9572 78.7596 67.9158 78.7956 67.8717L78.8835 67.7665L78.9944 67.8421L79.0543 67.8767L79.0609 67.8939C79.0609 67.8939 79.0987 67.9375 79.18 68.0222C79.2613 68.1069 79.3813 68.2097 79.5414 68.3363C79.9763 68.6804 80.4589 68.9593 80.974 69.1643H80.9814H80.9864C81.1963 69.2807 81.3702 69.4528 81.4887 69.6617C81.6073 69.8707 81.666 70.1083 81.6583 70.3484C81.9138 70.0891 82.2613 69.9414 82.6251 69.9373C82.7368 69.9354 82.8479 69.9526 82.9537 69.9883H82.9603C83.6166 70.2811 84.325 70.439 85.0435 70.4528C85.1576 70.4528 85.2077 70.4479 85.2077 70.4479L85.2307 70.4438L85.4262 70.4865L85.4164 70.6165C85.4164 70.6165 85.4123 70.6724 85.4123 70.7735C85.422 71.5104 85.5807 72.2376 85.8789 72.9114V72.9213C85.9159 73.0286 85.934 73.1416 85.9323 73.2551C85.932 73.436 85.8955 73.615 85.8249 73.7815C85.7544 73.948 85.6512 74.0987 85.5215 74.2246C85.7604 74.2192 85.9964 74.2784 86.2045 74.3959C86.4127 74.5134 86.5854 74.6849 86.7044 74.8923V74.903C86.9597 75.5727 87.3485 76.1834 87.847 76.698C87.886 76.7405 87.9283 76.7798 87.9735 76.8156L87.9892 76.8304L88.0976 76.9997L87.9933 77.082C87.9933 77.082 87.9481 77.1247 87.8725 77.202C87.7564 77.3205 87.6467 77.4451 87.5439 77.5753C87.191 78.0146 86.9086 78.5061 86.7069 79.0324V79.0398C86.5887 79.2477 86.4161 79.4195 86.2077 79.5365C85.9993 79.6536 85.7629 79.7116 85.524 79.7042C85.653 79.8308 85.7557 79.9817 85.8262 80.1482C85.8967 80.3148 85.9336 80.4936 85.9347 80.6745C85.9371 80.7891 85.919 80.9033 85.8813 81.0116V81.0165C85.5879 81.6723 85.4306 82.3809 85.4189 83.0993C85.4189 83.2128 85.4238 83.2712 85.4238 83.2712V83.2901L85.3852 83.4883L85.2513 83.4792C85.2513 83.4792 85.2012 83.4743 85.0936 83.4743C84.3578 83.4852 83.6316 83.6435 82.9578 83.9397L82.9471 83.9471C82.8409 83.9809 82.73 83.9976 82.6186 83.9964C82.4379 83.9945 82.2595 83.9567 82.0935 83.8853C81.9276 83.8139 81.7774 83.7102 81.6517 83.5804C81.6586 83.82 81.6 84.0569 81.4821 84.2656C81.3643 84.4743 81.1917 84.6468 80.9831 84.7644H80.9707C80.3037 85.0243 79.6943 85.4133 79.1775 85.909C79.0954 85.9913 79.0584 86.0332 79.0584 86.0332L79.0461 86.0513L78.8818 86.159L78.7906 86.0513Z" fill="#EC5615"/>
<mask id="mask1_477_369" style="mask-type:luminance" maskUnits="userSpaceOnUse" x="32" y="67" width="114" height="43">
<path d="M145.09 67.7682H32.0522V109.506H145.09V67.7682Z" fill="white"/>
</mask>
<g mask="url(#mask1_477_369)">
<path d="M78.9123 78.9452C78.5216 78.9441 78.14 78.8271 77.8157 78.6091C77.4914 78.3911 77.2388 78.0818 77.09 77.7202C76.9411 77.3586 76.9026 76.961 76.9793 76.5776C77.0559 76.1941 77.2444 75.842 77.5208 75.5656C77.7972 75.2893 78.1492 75.1011 78.5324 75.0248C78.9155 74.9486 79.3127 74.9876 79.6737 75.1371C80.0347 75.2865 80.3434 75.5397 80.5608 75.8646C80.7782 76.1896 80.8946 76.5717 80.8952 76.9627C80.8951 77.2232 80.8437 77.4812 80.744 77.7218C80.6443 77.9625 80.4982 78.1811 80.314 78.3652C80.1299 78.5493 79.9113 78.6953 79.6708 78.7948C79.4303 78.8943 79.1725 78.9454 78.9123 78.9452Z" fill="white"/>
</g>
<mask id="mask2_477_369" style="mask-type:luminance" maskUnits="userSpaceOnUse" x="77" y="75" width="4" height="4">
<path d="M77.4747 76.9628C77.4747 77.2481 77.5593 77.5271 77.7177 77.7643C77.8761 78.0015 78.1013 78.1864 78.3647 78.2955C78.6282 78.4046 78.918 78.433 79.1975 78.3771C79.4771 78.3213 79.7338 78.1837 79.9352 77.9817C80.1366 77.7798 80.2736 77.5226 80.329 77.2426C80.3843 76.9627 80.3554 76.6726 80.246 76.4091C80.1365 76.1456 79.9515 75.9206 79.7142 75.7624C79.477 75.6042 79.1981 75.52 78.9131 75.5205C78.5314 75.5212 78.1655 75.6734 77.8959 75.9438C77.6262 76.2142 77.4747 76.5807 77.4747 76.9628Z" fill="white"/>
</mask>
<g mask="url(#mask2_477_369)">
<path d="M80.3572 75.5205H77.4747V78.41H80.3572V75.5205Z" fill="url(#paint1_radial_477_369)"/>
</g>
<mask id="mask3_477_369" style="mask-type:luminance" maskUnits="userSpaceOnUse" x="32" y="67" width="114" height="43">
<path d="M145.09 67.7682H32.0522V109.506H145.09V67.7682Z" fill="white"/>
</mask>
<g mask="url(#mask3_477_369)">
<path d="M53.5912 70.8952C52.191 72.2996 51.3206 74.1465 51.128 76.1213C50.9355 78.0961 51.4329 80.0767 52.5354 81.7256C53.6379 83.3745 55.2773 84.5899 57.1745 85.1646C59.0717 85.7394 61.1093 85.638 62.9402 84.8778C64.7711 84.1175 66.2821 82.7454 67.2158 80.9952C68.1495 79.2449 68.4482 77.2248 68.061 75.2788C67.6738 73.3329 66.6246 71.5815 65.0922 70.3229C63.5598 69.0644 61.6389 68.3766 59.6568 68.3766C58.5295 68.3737 57.4129 68.5948 56.3717 69.0272C55.3305 69.4595 54.3854 70.0945 53.5912 70.8952ZM50.7737 76.9627C50.7737 75.204 51.2947 73.4848 52.2707 72.0226C53.2468 70.5603 54.6342 69.4206 56.2574 68.7475C57.8805 68.0745 59.6666 67.8984 61.3898 68.2415C63.1129 68.5846 64.6957 69.4315 65.938 70.6751C67.1804 71.9187 68.0264 73.5031 68.3692 75.228C68.7119 76.9528 68.536 78.7407 67.8637 80.3655C67.1913 81.9903 66.0527 83.3791 64.5919 84.3562C63.1311 85.3332 61.4137 85.8547 59.6568 85.8547C58.4902 85.8549 57.3349 85.6251 56.2571 85.1783C55.1793 84.7315 54.1999 84.0765 53.375 83.2508C52.5501 82.4251 51.8958 81.4447 51.4494 80.3658C51.0031 79.2869 50.7735 78.1305 50.7737 76.9627Z" fill="#C10A29"/>
<path d="M53.9091 71.2175C52.5838 72.5471 51.76 74.2954 51.5779 76.1648C51.3958 78.0341 51.8667 79.9089 52.9104 81.4697C53.9541 83.0305 55.5061 84.1808 57.302 84.7248C59.0979 85.2688 61.0267 85.1727 62.7598 84.4529C64.4929 83.7332 65.9231 82.4343 66.8069 80.7775C67.6907 79.1206 67.9733 77.2084 67.6067 75.3664C67.2401 73.5243 66.2469 71.8665 64.7963 70.6752C63.3457 69.4839 61.5273 68.8329 59.651 68.833C58.584 68.8308 57.5271 69.0404 56.5415 69.4497C55.556 69.859 54.6612 70.4599 53.9091 71.2175ZM51.3503 76.9586C51.3512 75.3141 51.8392 73.7066 52.7526 72.3397C53.6661 70.9728 54.964 69.9077 56.4822 69.2791C58.0004 68.6506 59.6707 68.4869 61.2819 68.8086C62.8931 69.1304 64.3727 69.9232 65.5338 71.0868C66.6948 72.2504 67.4851 73.7325 67.8046 75.3456C68.1241 76.9588 67.9586 78.6306 67.3289 80.1496C66.6992 81.6686 65.6336 82.9666 64.267 83.8793C62.9003 84.7921 61.2939 85.2787 59.651 85.2775C57.4483 85.276 55.3364 84.3987 53.7797 82.8387C52.2231 81.2786 51.3493 79.1636 51.3503 76.9586Z" fill="#C10A29"/>
<path d="M54.2665 71.5661C53.0225 72.8141 52.2492 74.4551 52.0782 76.2097C51.9073 77.9643 52.3492 79.7239 53.3289 81.189C54.3085 82.654 55.7652 83.7338 57.4508 84.2444C59.1365 84.7551 60.9468 84.665 62.5736 83.9895C64.2003 83.314 65.5428 82.0949 66.3724 80.5399C67.2021 78.9848 67.4675 77.19 67.1236 75.461C66.7796 73.732 65.8475 72.1759 64.486 71.0576C63.1246 69.9393 61.4179 69.328 59.6568 69.3279C58.6551 69.3257 57.6629 69.5223 56.7376 69.9065C55.8124 70.2907 54.9725 70.8548 54.2665 71.5661ZM51.8481 76.9627C51.8481 75.4179 52.3057 73.9078 53.163 72.6232C54.0203 71.3387 55.2389 70.3375 56.6646 69.7461C58.0903 69.1548 59.6591 68.9998 61.1728 69.3009C62.6864 69.602 64.0769 70.3456 65.1685 71.4376C66.26 72.5297 67.0035 73.9212 67.3051 75.4362C67.6067 76.9512 67.4527 78.5217 66.8627 79.9492C66.2727 81.3766 65.2731 82.5969 63.9903 83.4558C62.7076 84.3146 61.1992 84.7734 59.656 84.7742C57.586 84.7738 55.601 83.9508 54.1369 82.4861C52.6729 81.0213 51.8497 79.0347 51.8481 76.9627Z" fill="#C10A29"/>
<path d="M54.5836 71.8884C53.4113 73.0626 52.682 74.6073 52.5199 76.2594C52.3577 77.9114 52.7728 79.5687 53.6944 80.9488C54.6159 82.3289 55.987 83.3465 57.574 83.8282C59.161 84.3099 60.8657 84.2259 62.3978 83.5906C63.9299 82.9553 65.1946 81.808 65.9764 80.344C66.7582 78.88 67.0087 77.19 66.6854 75.5618C66.362 73.9337 65.4848 72.4681 64.203 71.4147C62.9213 70.3614 61.3144 69.7855 59.656 69.7851C58.7139 69.7843 57.7808 69.9697 56.9104 70.3306C56.0399 70.6916 55.2492 71.221 54.5836 71.8884ZM52.3657 76.9635C52.3659 75.5202 52.7936 74.1094 53.5948 72.9095C54.3961 71.7095 55.5348 70.7744 56.867 70.2224C58.1992 69.6703 59.665 69.5261 61.079 69.808C62.4931 70.0899 63.7919 70.7853 64.8111 71.8061C65.8303 72.827 66.5242 74.1274 66.8051 75.5431C67.0859 76.9587 66.941 78.4259 66.3888 79.7591C65.8365 81.0924 64.9017 82.2317 63.7025 83.033C62.5034 83.8344 61.0937 84.2618 59.6519 84.2611C58.6948 84.261 57.747 84.0722 56.8628 83.7053C55.9786 83.3385 55.1752 82.8009 54.4986 82.1232C53.822 81.4455 53.2854 80.641 52.9194 79.7557C52.5534 78.8704 52.3653 77.9216 52.3657 76.9635Z" fill="#C10A29"/>
<path d="M54.8834 72.1878C53.7829 73.2921 53.099 74.7442 52.9481 76.2966C52.7972 77.8491 53.1887 79.4058 54.0558 80.7018C54.9229 81.9977 56.2121 82.9526 57.7037 83.4039C59.1952 83.8551 60.797 83.7747 62.236 83.1764C63.675 82.5781 64.8623 81.499 65.5956 80.1227C66.3289 78.7465 66.5628 77.1583 66.2576 75.6287C65.9523 74.0992 65.1268 72.7229 63.9215 71.7343C62.7163 70.7457 61.2059 70.2059 59.6477 70.207C58.7625 70.2076 57.8861 70.3828 57.0686 70.7227C56.2511 71.0626 55.5085 71.5604 54.8834 72.1878ZM52.8215 76.9627C52.8223 75.6101 53.2238 74.288 53.9752 73.1638C54.7265 72.0395 55.794 71.1635 57.0427 70.6465C58.2914 70.1295 59.6652 69.9947 60.9904 70.2592C62.3156 70.5238 63.5327 71.1757 64.4878 72.1325C65.4429 73.0894 66.0931 74.3083 66.3563 75.635C66.6194 76.9618 66.4836 78.3368 65.9661 79.5863C65.4485 80.8359 64.5725 81.9037 63.4487 82.6549C62.325 83.406 61.0039 83.8068 59.6526 83.8065C57.8403 83.8052 56.1027 83.0835 54.8217 81.8002C53.5408 80.5169 52.8213 78.7769 52.8215 76.9627Z" fill="#C10A29"/>
<path d="M55.6589 72.9649C54.7344 73.8905 54.1591 75.1083 54.031 76.4109C53.9029 77.7134 54.2299 79.0202 54.9563 80.1085C55.6827 81.1968 56.7635 81.9993 58.0147 82.3794C59.2659 82.7595 60.61 82.6937 61.8181 82.193C63.0262 81.6924 64.0236 80.788 64.6403 79.6339C65.257 78.4798 65.4549 77.1473 65.2003 75.8635C64.9457 74.5797 64.2544 73.424 63.244 72.5932C62.2337 71.7624 60.9668 71.3079 59.6593 71.3072C58.9162 71.3058 58.1802 71.4516 57.4937 71.7361C56.8071 72.0206 56.1836 72.4382 55.6589 72.9649ZM53.9429 76.9628C53.944 75.8321 54.2799 74.7271 54.9082 73.7875C55.5365 72.8479 56.4289 72.1158 57.4727 71.6837C58.5165 71.2516 59.6648 71.1389 60.7726 71.3599C61.8803 71.5809 62.8978 72.1256 63.6964 72.9252C64.495 73.7249 65.0388 74.7435 65.2593 75.8524C65.4797 76.9613 65.3668 78.1108 64.9349 79.1555C64.5029 80.2002 63.7713 81.0934 62.8324 81.722C61.8936 82.3506 60.7896 82.6866 59.6601 82.6874C58.9092 82.6873 58.1657 82.5391 57.472 82.2514C56.7783 81.9636 56.148 81.5419 55.6171 81.0104C55.0862 80.4788 54.6651 79.8477 54.3778 79.1532C54.0906 78.4588 53.9428 77.7144 53.9429 76.9628Z" fill="#C10A29"/>
<path d="M48.7275 78.8581C48.6886 78.1936 48.4987 77.5467 48.1722 76.9668C48.4997 76.3874 48.6897 75.7403 48.7275 75.0756C49.0315 75.6596 49.1902 76.3083 49.1902 76.9668C49.1902 77.6253 49.0315 78.2741 48.7275 78.8581ZM48.6347 79.0316L48.61 79.0916V79.1113C48.2577 79.7025 47.7668 80.1989 47.1799 80.5577C47.1644 79.8489 46.9766 79.1547 46.6328 78.5349C47.2422 78.1738 47.7507 77.6648 48.1114 77.0548C48.4423 77.6607 48.6213 78.3379 48.633 79.0283V79.034M48.058 81.181C47.7274 81.7522 47.2642 82.2353 46.7076 82.5895C47.0076 81.9938 47.1678 81.3374 47.1758 80.6703C47.7485 80.3315 48.2356 79.8653 48.5994 79.3078C48.5709 79.9663 48.3853 80.6091 48.058 81.181ZM46.5384 82.6964L46.4858 82.7449C46.4858 82.7449 46.4858 82.7449 46.4809 82.7556C45.8808 83.0891 45.2087 83.2714 44.5225 83.2868C44.8619 82.6645 45.0449 81.9688 45.0557 81.2599C45.7629 81.2509 46.457 81.0673 47.0764 80.7254C47.0627 81.4128 46.8811 82.0864 46.5474 82.6874C46.5425 82.6874 46.5425 82.6874 46.5384 82.6956M44.9727 84.2653C44.4019 84.5937 43.7608 84.7804 43.1031 84.8096C43.6616 84.447 44.1277 83.9588 44.4642 83.3838C45.1316 83.3739 45.7879 83.2117 46.3831 82.9094C46.0268 83.467 45.5431 83.9318 44.9719 84.2653M42.9084 84.8162H42.8977L42.8295 84.8343C42.8282 84.8349 42.8269 84.8351 42.8254 84.8351C42.824 84.8351 42.8226 84.8349 42.8213 84.8343C42.134 84.8239 41.4597 84.6452 40.8573 84.3138C41.4662 83.9494 41.9745 83.4383 42.3359 82.8271C42.9525 83.1753 43.6463 83.3633 44.3541 83.374C43.9954 83.9629 43.5 84.4565 42.9101 84.8129M40.7644 85.3885C40.1066 85.3874 39.4586 85.228 38.8751 84.9239C39.5391 84.8865 40.1856 84.6966 40.7644 84.3689C41.3436 84.6959 41.9899 84.8858 42.6538 84.9239C42.0693 85.2254 41.422 85.3845 40.7644 85.3885ZM38.6238 84.8154C38.0317 84.4596 37.5357 83.9641 37.1788 83.3723C37.8869 83.3634 38.5814 83.1768 39.1988 82.8296C39.561 83.4382 40.0667 83.9486 40.6716 84.3163C40.0718 84.6469 39.4004 84.8262 38.7158 84.8384L38.6238 84.8154ZM36.5628 84.2645C35.9925 83.9323 35.5109 83.4672 35.1589 82.9086C35.7519 83.2113 36.4065 83.3736 37.0721 83.383C37.4091 83.9554 37.8724 84.4431 38.4266 84.8088C37.7704 84.7786 37.1308 84.592 36.5611 84.2645M35.0497 82.7433L34.9938 82.6948V82.689C34.6556 82.0887 34.4719 81.4137 34.4591 80.7246C35.0801 81.0675 35.7763 81.2511 36.4855 81.2591C36.4877 81.9691 36.6709 82.6667 37.0178 83.286C36.3305 83.2717 35.657 83.0893 35.0562 82.7548C35.0562 82.7482 35.0562 82.7482 35.0562 82.7441M33.4815 81.1818C33.1555 80.6093 32.9695 79.9677 32.9386 79.3095C33.3026 79.8673 33.7903 80.3336 34.3638 80.672C34.3683 81.34 34.5301 81.9975 34.8361 82.5912C34.2797 82.2354 33.8155 81.7518 33.4815 81.1818ZM32.9147 79.0365C32.9147 79.0365 32.9147 79.0365 32.9098 79.0299C32.9192 78.3419 33.0981 77.6669 33.4306 77.0647C33.7945 77.6699 34.3032 78.1749 34.9108 78.5341C34.5616 79.1517 34.3729 79.8472 34.3621 80.5569C33.7741 80.2006 33.2816 79.7065 32.9271 79.1171L32.9147 79.0365ZM32.3512 76.9586C32.3522 76.3004 32.5105 75.6519 32.8129 75.0674C32.8484 75.7323 33.0379 76.3797 33.3665 76.9586C33.0389 77.5398 32.8502 78.1891 32.8153 78.8556C32.512 78.2693 32.3529 77.6189 32.3512 76.9586ZM32.9073 74.9029L32.9271 74.8207C33.279 74.2262 33.7719 73.7277 34.3621 73.3694C34.3727 74.0804 34.5614 74.7773 34.9108 75.3963C34.2988 75.7548 33.7871 76.2622 33.4232 76.8714C33.0903 76.2682 32.9114 75.592 32.9024 74.9029C32.9073 74.9029 32.9073 74.9029 32.9073 74.9029ZM33.4741 72.7511C33.8098 72.1829 34.2737 71.7013 34.8287 71.345C34.5223 71.9361 34.3604 72.5916 34.3564 73.2576C33.7837 73.5994 33.2963 74.0673 32.9312 74.6258C32.9621 73.9668 33.1481 73.3244 33.4741 72.7511ZM34.9938 71.2414L35.0497 71.1822C35.0501 71.1797 35.0501 71.1772 35.0497 71.1748C35.6503 70.8395 36.3237 70.656 37.0113 70.6403C36.6647 71.2588 36.4814 71.9556 36.479 72.6647C35.7695 72.6763 35.0737 72.8618 34.4525 73.2049C34.4637 72.5162 34.6475 71.8413 34.9872 71.2422M36.5603 69.6643C37.1301 69.3363 37.77 69.1497 38.4266 69.1199C37.8702 69.4855 37.4058 69.9749 37.0696 70.5498C36.4041 70.5528 35.7486 70.7128 35.1565 71.0169C35.5068 70.4578 35.9888 69.9934 36.5603 69.6643ZM38.6303 69.1125L38.6985 69.0952C38.7051 69.0952 38.7051 69.0952 38.7141 69.0878C39.399 69.0976 40.0709 69.2767 40.67 69.6092C40.0655 69.978 39.5605 70.4892 39.1988 71.0983C38.5816 70.7508 37.8877 70.5623 37.1797 70.5498C37.5371 69.958 38.0359 69.4644 38.6312 69.1133M40.7669 68.5377C41.4246 68.5356 42.0729 68.6933 42.6562 68.9974C41.992 69.0329 41.3452 69.2227 40.7669 69.5516C40.1888 69.2221 39.5419 69.0323 38.8776 68.9974C39.4608 68.6932 40.1092 68.5354 40.7669 68.5377ZM42.8345 69.0961L42.9166 69.1133C43.5066 69.4687 44.0021 69.9615 44.3607 70.5498C43.6529 70.5619 42.9592 70.7504 42.3424 71.0983C41.9811 70.4867 41.4728 69.9751 40.8638 69.61C41.4657 69.2771 42.1403 69.098 42.8279 69.0887C42.8279 69.0961 42.8328 69.0961 42.8361 69.0961M44.9776 69.6643C45.5499 69.9945 46.0341 70.4583 46.3889 71.0161C45.7946 70.712 45.1373 70.552 44.47 70.549C44.1348 69.9721 43.6685 69.4825 43.1088 69.1199C43.7667 69.149 44.4079 69.336 44.9784 69.6651M46.4924 71.183L46.5449 71.2348C46.549 71.2422 46.549 71.2422 46.554 71.243C46.8897 71.8435 47.072 72.5177 47.0846 73.2058C46.4654 72.8627 45.7715 72.6771 45.0639 72.6655C45.0534 71.9568 44.8689 71.2616 44.5266 70.6411C45.2143 70.658 45.8876 70.8414 46.4891 71.1756C46.4905 71.1762 46.4918 71.1773 46.4926 71.1786C46.4935 71.1799 46.494 71.1814 46.494 71.183M48.0662 72.7453C48.3935 73.318 48.5791 73.9609 48.6076 74.6201C48.2428 74.0619 47.756 73.594 47.184 73.2518C47.1758 72.5869 47.0156 71.9326 46.7158 71.3392C47.271 71.694 47.734 72.176 48.0662 72.7453ZM46.5055 78.5012C46.1025 78.7273 45.6647 78.8846 45.2101 78.9666C45.2313 78.9936 45.2495 79.0228 45.2643 79.0538C45.7147 78.9647 46.1483 78.8051 46.549 78.5809C46.8993 79.1998 47.0872 79.8974 47.0953 80.6087C46.4761 80.9604 45.7782 81.1499 45.0663 81.1596C44.939 81.1596 44.9842 81.1242 44.9719 81.2139C44.9624 81.9385 44.7738 82.6495 44.4231 83.2835C43.712 83.2792 43.0137 83.0926 42.395 82.7416C42.6192 82.3427 42.7762 81.9097 42.8599 81.4597C42.8348 81.4378 42.8072 81.4188 42.7778 81.403C42.697 81.8568 42.5398 82.2936 42.3129 82.6948C42.1044 82.5719 41.9071 82.431 41.7231 82.2738C41.6894 82.2902 41.6615 82.3091 41.6302 82.3223C41.8263 82.4936 42.0384 82.6456 42.2636 82.7762C41.9015 83.3901 41.3893 83.9017 40.7751 84.2628C40.16 83.9022 39.646 83.3916 39.2809 82.7786C39.5089 82.6512 39.7221 82.499 39.9167 82.3247C39.8871 82.3116 39.8559 82.2919 39.8231 82.2762C39.6407 82.4314 39.4465 82.5722 39.2423 82.6972C39.0142 82.296 38.8549 81.8594 38.7708 81.4054C38.7418 81.4218 38.7143 81.4408 38.6887 81.4622C38.7766 81.9109 38.9335 82.3434 39.1536 82.7441C38.5377 83.0956 37.8418 83.2822 37.1328 83.286C36.7783 82.6492 36.5865 81.9345 36.5743 81.2056C36.534 81.1958 36.5521 81.1958 36.534 81.1629C35.8084 81.1549 35.0962 80.9656 34.4623 80.612C34.4669 79.9013 34.652 79.2035 35.0004 78.5842C35.3999 78.8074 35.8317 78.9669 36.2802 79.057C36.3031 79.0304 36.3226 79.0012 36.3385 78.9699C35.8854 78.8878 35.4495 78.729 35.0497 78.5004C35.1739 78.2952 35.3128 78.0992 35.4653 77.9141C35.4505 77.8845 35.4382 77.8516 35.4218 77.8261C35.2503 78.0214 35.0974 78.2322 34.9651 78.456C34.3495 78.0914 33.8368 77.5761 33.475 76.9586C33.839 76.3471 34.3491 75.8357 34.9593 75.4703C35.0913 75.6968 35.2442 75.9104 35.416 76.1084C35.4316 76.078 35.4448 76.0492 35.4596 76.0188C35.3078 75.8322 35.1689 75.6355 35.0439 75.43C35.4448 75.2029 35.8802 75.0431 36.3328 74.9572C36.3148 74.9288 36.2953 74.9014 36.2744 74.875C35.8258 74.9636 35.394 75.1224 34.9946 75.3453C34.646 74.728 34.4608 74.0317 34.4566 73.3225C35.0891 72.9643 35.8016 72.7714 36.5283 72.7617C36.58 72.779 36.6975 72.7083 36.5759 72.7083C36.5878 71.9851 36.7768 71.2759 37.1263 70.6428C37.8355 70.6444 38.532 70.8312 39.147 71.1846C38.9265 71.5859 38.7694 72.0188 38.6813 72.4682C38.7059 72.4822 38.7404 72.5019 38.7634 72.5208C38.8475 72.0672 39.0068 71.6308 39.2349 71.2299C39.4388 71.3557 39.634 71.4952 39.819 71.6476C39.8506 71.6345 39.8809 71.6182 39.9093 71.5991C39.7141 71.4292 39.5037 71.2776 39.2809 71.146C39.6458 70.5351 40.1586 70.0261 40.7718 69.6659C41.385 70.0254 41.8971 70.5346 42.2603 71.146C42.0377 71.2806 41.826 71.4323 41.627 71.5999C41.6548 71.6214 41.6862 71.6378 41.7198 71.6484C41.9047 71.4933 42.1019 71.3536 42.3096 71.2307C42.5353 71.6307 42.6916 72.0661 42.772 72.5184C42.8033 72.4994 42.8287 72.4797 42.8542 72.4657C42.7708 72.0144 42.6138 71.5799 42.3893 71.1797C43.0075 70.8274 43.706 70.6407 44.4174 70.6378C44.7673 71.2706 44.9558 71.9801 44.9661 72.7034C45.0318 72.7437 45.0236 72.7034 45.0236 72.7034C45.0187 72.7114 45.0156 72.7204 45.0144 72.7298C45.0133 72.7391 45.0142 72.7486 45.0171 72.7576C45.7442 72.7672 46.4573 72.9601 47.0904 73.3184C47.0825 74.0281 46.8946 74.7242 46.5441 75.3412C46.1435 75.1172 45.7098 74.9584 45.2594 74.8709C45.2449 74.9005 45.2267 74.9281 45.2052 74.9531C45.6599 75.0388 46.0975 75.1985 46.5006 75.4259C46.3746 75.6324 46.2335 75.8292 46.0784 76.0146C46.0921 76.0458 46.1083 76.0758 46.1268 76.1043C46.2968 75.9054 46.4488 75.6919 46.5811 75.4662C47.1926 75.8313 47.7024 76.3445 48.0638 76.9586C47.7048 77.5746 47.194 78.0881 46.5803 78.4502C46.4477 78.2272 46.2957 78.0165 46.126 77.8203C46.1067 77.8478 46.0905 77.8773 46.0775 77.9083C46.2343 78.0931 46.3755 78.2906 46.4998 78.4987M48.6109 74.8207L48.6355 74.8955C48.6247 75.584 48.4456 76.2593 48.1139 76.8624C47.752 76.2546 47.2437 75.7474 46.6353 75.3873C46.979 74.7666 47.1668 74.0715 47.1824 73.362C47.77 73.7199 48.261 74.2165 48.6125 74.8084L48.6109 74.8207ZM48.9115 74.7755C48.9068 74.0109 48.7017 73.261 48.3168 72.6006C47.9345 71.9392 47.3881 71.3878 46.7306 70.9996C46.3412 70.34 45.7905 69.7905 45.1304 69.4028C44.4667 69.022 43.7161 68.8192 42.9511 68.814C42.285 68.4369 41.5327 68.2386 40.7673 68.2386C40.002 68.2386 39.2497 68.4369 38.5835 68.814C37.8178 68.816 37.066 69.0188 36.403 69.4023C35.74 69.7858 35.189 70.3365 34.8049 70.9996C34.1453 71.3864 33.5977 71.9384 33.2159 72.6013C32.834 73.2642 32.6312 74.0152 32.6272 74.7804C32.2521 75.4471 32.0551 76.1992 32.0551 76.9644C32.0551 77.7295 32.2521 78.4817 32.6272 79.1483C32.6326 79.9145 32.8371 80.6661 33.2204 81.3292C33.6038 81.9924 34.153 82.5443 34.8139 82.9308C35.1976 83.5909 35.7462 84.1397 36.4059 84.5235C37.0695 84.9047 37.82 85.1084 38.5852 85.1147C39.2513 85.4919 40.0036 85.6901 40.769 85.6901C41.5343 85.6901 42.2866 85.4919 42.9528 85.1147C43.7179 85.1105 44.4688 84.9067 45.1314 84.5236C45.7939 84.1405 46.3454 83.5913 46.7314 82.9299C47.3886 82.5403 47.9348 81.9882 48.3176 81.3265C48.7017 80.6644 48.9059 79.9131 48.9099 79.1475C49.2911 78.4829 49.4917 77.7299 49.4917 76.9635C49.4917 76.1972 49.2911 75.4442 48.9099 74.7796" fill="#FA8812"/>
</g>
<mask id="mask4_477_369" style="mask-type:luminance" maskUnits="userSpaceOnUse" x="34" y="70" width="13" height="13">
<path d="M39.4206 71.8376C39.2872 71.917 39.1799 72.0337 39.1119 72.1734C39.0439 72.313 39.0181 72.4696 39.0378 72.6237V72.7832L38.9253 72.6656C38.8291 72.5438 38.6997 72.4524 38.5528 72.4027C38.4058 72.3529 38.2476 72.3468 38.0973 72.3852C37.6117 72.611 37.0798 72.7189 36.5448 72.7001L36.5152 72.7051C36.5306 73.2497 36.4213 73.7905 36.1956 74.2863C36.1567 74.4371 36.1624 74.596 36.2122 74.7437C36.2619 74.8913 36.3535 75.0212 36.4758 75.1176L36.5883 75.2319H36.4347C36.2799 75.2129 36.1229 75.2394 35.9827 75.308C35.8426 75.3766 35.7254 75.4844 35.6453 75.6184C35.459 76.1216 35.159 76.575 34.7688 76.9431L34.7507 76.9685C35.1473 77.3423 35.4533 77.8019 35.6453 78.3121C35.7249 78.4465 35.8421 78.5546 35.9824 78.6231C36.1227 78.6916 36.2799 78.7176 36.4347 78.6978H36.5883L36.4758 78.808C36.3536 78.9046 36.2621 79.0347 36.2124 79.1824C36.1627 79.3302 36.1568 79.4891 36.1956 79.6401C36.4207 80.1266 36.5279 80.6593 36.5086 81.195L36.516 81.2205C37.0606 81.2081 37.601 81.3174 38.0981 81.5404C38.2486 81.58 38.4075 81.5743 38.5547 81.524C38.702 81.4736 38.8312 81.381 38.9261 81.2575L39.0387 81.1457V81.3101C39.0189 81.4636 39.0446 81.6194 39.1127 81.7583C39.1808 81.8972 39.2881 82.013 39.4215 82.0913C39.9341 82.2836 40.396 82.5908 40.7719 82.9892L40.7965 82.9703C41.1643 82.5794 41.6172 82.2786 42.1199 82.0913C42.254 82.0138 42.3622 81.8982 42.4308 81.7592C42.4994 81.6201 42.5252 81.4639 42.5051 81.3101V81.1457L42.6128 81.2575C42.7085 81.381 42.8385 81.4737 42.9864 81.524C43.1343 81.5743 43.2937 81.58 43.4449 81.5404C43.9403 81.3177 44.4791 81.2084 45.022 81.2205L45.027 81.195C45.0139 80.6591 45.1232 80.1273 45.3465 79.6401C45.386 79.489 45.3804 79.3297 45.3303 79.1817C45.2802 79.0338 45.1879 78.9039 45.0648 78.808L44.9514 78.6978H45.1157C45.2696 78.7173 45.4258 78.6912 45.565 78.6226C45.7041 78.5541 45.8201 78.4461 45.8985 78.3121C46.0885 77.8022 46.3922 77.3424 46.7865 76.9677L46.7668 76.9422C46.3774 76.5738 46.078 76.1205 45.892 75.6176C45.8131 75.484 45.6971 75.3763 45.558 75.3076C45.419 75.239 45.263 75.2124 45.1091 75.2311H44.9448L45.0582 75.1168C45.1813 75.0211 45.2737 74.8913 45.3238 74.7435C45.3738 74.5957 45.3795 74.4364 45.3399 74.2855C45.1157 73.7893 45.0065 73.2487 45.0204 72.7043L44.9949 72.6993C44.4572 72.7188 43.9224 72.6109 43.4342 72.3844C43.2832 72.3461 43.1245 72.3522 42.9769 72.4019C42.8293 72.4517 42.6992 72.5429 42.6021 72.6648L42.4945 72.7824V72.6229C42.5145 72.4684 42.4886 72.3115 42.4201 72.1717C42.3516 72.0319 42.2435 71.9154 42.1092 71.8368C41.6067 71.6494 41.154 71.3489 40.7859 70.9586L40.7612 70.9388C40.3856 71.3369 39.9243 71.6439 39.4124 71.8368" fill="white"/>
</mask>
<g mask="url(#mask4_477_369)">
<path d="M46.7864 70.9398H34.7498V82.9894H46.7864V70.9398Z" fill="url(#paint2_radial_477_369)"/>
</g>
<mask id="mask5_477_369" style="mask-type:luminance" maskUnits="userSpaceOnUse" x="32" y="67" width="114" height="43">
<path d="M145.09 67.7682H32.0522V109.506H145.09V67.7682Z" fill="white"/>
</mask>
<g mask="url(#mask5_477_369)">
<path d="M40.7694 78.9255C40.3816 78.9255 40.0025 78.8104 39.68 78.5947C39.3576 78.3791 39.1063 78.0725 38.9579 77.7139C38.8094 77.3552 38.7706 76.9606 38.8463 76.5798C38.9219 76.1991 39.1087 75.8494 39.3829 75.5749C39.6571 75.3004 40.0065 75.1134 40.3868 75.0377C40.7672 74.962 41.1614 75.0009 41.5197 75.1494C41.878 75.298 42.1843 75.5495 42.3997 75.8723C42.6152 76.1951 42.7302 76.5746 42.7302 76.9628C42.7302 77.2205 42.6794 77.4757 42.5809 77.7139C42.4824 77.952 42.3379 78.1684 42.1559 78.3506C41.9738 78.5329 41.7576 78.6775 41.5197 78.7761C41.2818 78.8747 41.0269 78.9255 40.7694 78.9255Z" fill="white"/>
</g>
<mask id="mask6_477_369" style="mask-type:luminance" maskUnits="userSpaceOnUse" x="39" y="75" width="4" height="4">
<path d="M39.3573 76.966C39.3573 77.2462 39.4404 77.5201 39.5959 77.753C39.7515 77.9859 39.9726 78.1674 40.2313 78.2745C40.4899 78.3815 40.7745 78.4094 41.049 78.3545C41.3235 78.2996 41.5755 78.1644 41.7732 77.9661C41.9709 77.7677 42.1054 77.5151 42.1596 77.2402C42.2138 76.9653 42.1853 76.6805 42.0777 76.4219C41.9702 76.1632 41.7884 75.9423 41.5553 75.7871C41.3223 75.6319 41.0484 75.5494 40.7685 75.5501C40.5829 75.5499 40.3991 75.5865 40.2276 75.6577C40.0561 75.7288 39.9003 75.8332 39.7692 75.9647C39.6381 76.0963 39.5343 76.2524 39.4636 76.4243C39.3929 76.5961 39.3568 76.7802 39.3573 76.966Z" fill="white"/>
</mask>
<g mask="url(#mask6_477_369)">
<path d="M42.1863 75.55H39.3573V78.3795H42.1863V75.55Z" fill="url(#paint3_radial_477_369)"/>
</g>
<mask id="mask7_477_369" style="mask-type:luminance" maskUnits="userSpaceOnUse" x="53" y="70" width="13" height="14">
<path d="M59.651 70.8484C59.2717 71.2509 58.8064 71.5624 58.2899 71.7595C58.1528 71.8382 58.0422 71.9561 57.9723 72.098C57.9024 72.2399 57.8763 72.3994 57.8972 72.5562V72.7207L57.7822 72.6072C57.6861 72.4814 57.5549 72.387 57.4052 72.3359C57.2554 72.2848 57.0939 72.2794 56.9411 72.3203C56.4468 72.5475 55.9067 72.657 55.3631 72.6401H55.3368C55.3486 73.1925 55.2363 73.7404 55.0082 74.2435C54.9664 74.397 54.9711 74.5595 55.0217 74.7103C55.0723 74.8611 55.1665 74.9934 55.2924 75.0905L55.4074 75.2064H55.2432C55.0866 75.1853 54.9273 75.2114 54.7855 75.2812C54.6438 75.3511 54.526 75.4616 54.4472 75.5986C54.2543 76.1085 53.9487 76.568 53.5534 76.9431L53.5378 76.9685C53.941 77.348 54.2532 77.8138 54.4513 78.331C54.5307 78.4675 54.6486 78.5775 54.7902 78.6471C54.9318 78.7167 55.0908 78.7429 55.2473 78.7224H55.4116L55.2965 78.8384C55.1709 78.9343 55.0767 79.0656 55.026 79.2155C54.9754 79.3654 54.9706 79.527 55.0123 79.6796C55.2379 80.1744 55.3464 80.7147 55.3294 81.2583L55.3368 81.2879C55.8897 81.2733 56.4385 81.3858 56.9411 81.6168C57.0945 81.6559 57.256 81.6489 57.4056 81.5969C57.5551 81.5448 57.6861 81.45 57.7822 81.3241L57.9013 81.209V81.3734C57.8802 81.5312 57.9062 81.6917 57.9761 81.8347C58.046 81.9776 58.1566 82.0967 58.294 82.1768C58.8093 82.3732 59.2743 82.6822 59.6551 83.0813L59.6847 83.0657C60.0553 82.6699 60.5125 82.3654 61.0204 82.176C61.1577 82.0956 61.2684 81.9766 61.3386 81.8338C61.4089 81.6909 61.4356 81.5306 61.4155 81.3726V81.2082L61.5313 81.3216C61.6278 81.4476 61.7591 81.5424 61.9089 81.5945C62.0587 81.6465 62.2204 81.6534 62.3741 81.6144C62.8756 81.3836 63.4233 81.2711 63.9751 81.2855L63.98 81.2559C63.9668 80.7113 64.0792 80.171 64.3086 79.6771C64.3463 79.5234 64.3385 79.362 64.2861 79.2126C64.2337 79.0632 64.1391 78.9324 64.0137 78.8359L63.9028 78.72H64.0671C64.2236 78.74 64.3825 78.7136 64.5242 78.644C64.6658 78.5744 64.7839 78.4647 64.8639 78.3286C65.0571 77.8113 65.3662 77.3452 65.7675 76.9661L65.7576 76.9406C65.3604 76.5675 65.0551 76.1073 64.8655 75.5962C64.7854 75.4587 64.6662 75.3483 64.5231 75.2789C64.3801 75.2094 64.2196 75.1842 64.0622 75.2064H63.8979L64.0088 75.0905C64.1346 74.993 64.2294 74.8611 64.2817 74.7108C64.3341 74.5605 64.3417 74.3981 64.3037 74.2435C64.0732 73.7412 63.9608 73.1927 63.9751 72.6401H63.9455C63.4022 72.657 62.8623 72.5475 62.3683 72.3203C62.2153 72.2794 62.0535 72.2848 61.9035 72.3359C61.7535 72.387 61.622 72.4814 61.5255 72.6072L61.4097 72.7207V72.5562C61.4297 72.3992 61.4028 72.2398 61.3325 72.098C61.2622 71.9563 61.1516 71.8385 61.0146 71.7595C60.5065 71.5706 60.0492 71.266 59.6789 70.8698L59.6494 70.8484H59.651Z" fill="white"/>
</mask>
<g mask="url(#mask7_477_369)">
<path d="M65.7601 70.8475H53.5453V83.0788H65.7601V70.8475Z" fill="url(#paint4_radial_477_369)"/>
</g>
<mask id="mask8_477_369" style="mask-type:luminance" maskUnits="userSpaceOnUse" x="32" y="67" width="114" height="43">
<path d="M145.09 67.7682H32.0522V109.506H145.09V67.7682Z" fill="white"/>
</mask>
<g mask="url(#mask8_477_369)">
<path d="M59.6518 78.9255C59.2643 78.9242 58.8859 78.808 58.5643 78.5915C58.2427 78.3751 57.9924 78.0681 57.845 77.7093C57.6976 77.3506 57.6597 76.9561 57.7361 76.5758C57.8125 76.1955 57.9998 75.8464 58.2742 75.5726C58.5487 75.2987 58.8981 75.1124 59.2783 75.0372C59.6585 74.962 60.0524 75.0013 60.4103 75.15C60.7682 75.2988 61.074 75.5504 61.2892 75.873C61.5044 76.1956 61.6192 76.5748 61.6192 76.9627C61.6196 77.2212 61.569 77.4771 61.4702 77.7159C61.3714 77.9547 61.2264 78.1715 61.0435 78.3539C60.8607 78.5364 60.6436 78.6808 60.4047 78.7789C60.1659 78.877 59.91 78.9268 59.6518 78.9255Z" fill="white"/>
</g>
<mask id="mask9_477_369" style="mask-type:luminance" maskUnits="userSpaceOnUse" x="58" y="75" width="4" height="4">
<path d="M58.2423 76.966C58.2417 77.2464 58.3242 77.5207 58.4794 77.7541C58.6347 77.9875 58.8557 78.1695 59.1144 78.277C59.3731 78.3845 59.6578 78.4127 59.9326 78.3581C60.2073 78.3034 60.4597 78.1683 60.6576 77.9699C60.8556 77.7716 60.9902 77.5188 61.0445 77.2437C61.0988 76.9686 61.0703 76.6836 60.9626 76.4248C60.8549 76.1659 60.6728 75.9449 60.4394 75.7898C60.2061 75.6347 59.932 75.5524 59.6519 75.5534C59.4667 75.5535 59.2833 75.5901 59.1122 75.6611C58.9411 75.7322 58.7857 75.8363 58.6548 75.9675C58.5239 76.0986 58.4201 76.2543 58.3494 76.4257C58.2786 76.597 58.2422 76.7806 58.2423 76.966Z" fill="white"/>
</mask>
<g mask="url(#mask9_477_369)">
<path d="M61.0722 75.5499H58.2423V78.3794H61.0722V75.5499Z" fill="url(#paint5_radial_477_369)"/>
</g>
<mask id="mask10_477_369" style="mask-type:luminance" maskUnits="userSpaceOnUse" x="32" y="67" width="114" height="43">
<path d="M145.09 67.7682H32.0522V109.506H145.09V67.7682Z" fill="white"/>
</mask>
<g mask="url(#mask10_477_369)">
<path d="M74.014 96.2515C74.5298 94.9474 75.1393 93.3999 75.1393 93.3999H75.1591L76.3978 96.2515H74.014ZM78.1836 98.2094C78.1545 98.2029 78.1274 98.1896 78.1044 98.1706C78.0814 98.1516 78.0632 98.1274 78.0514 98.1C78.0464 98.0827 78.0349 98.063 78.0267 98.0433C77.7088 97.3394 75.4195 92.2134 75.4195 92.2134H75.403C73.8127 96.2022 73.2451 97.5844 73.0701 98.0137C73.0565 98.0422 73.0409 98.0696 73.0233 98.0959C73.0129 98.123 72.996 98.1472 72.9741 98.1663C72.9522 98.1853 72.9259 98.1987 72.8976 98.2053H72.8409V98.2242H73.416V98.2053H73.3872C73.3729 98.2051 73.3588 98.2017 73.346 98.1955C73.3331 98.1892 73.3218 98.1801 73.3129 98.169C73.3039 98.1578 73.2976 98.1448 73.2942 98.1309C73.2909 98.117 73.2907 98.1025 73.2936 98.0885C73.2984 98.0651 73.3047 98.042 73.3125 98.0194C73.3125 98.0194 73.6 97.2925 73.945 96.4176H76.4734L77.1609 97.998C77.1765 98.0293 77.1856 98.0581 77.2045 98.0934C77.2275 98.1625 77.147 98.2044 77.1174 98.2044H77.0582V98.2233H78.2345V98.2044L78.1836 98.2094Z" fill="#67132F"/>
<path d="M61.7325 96.2515C62.255 94.9474 62.8678 93.3999 62.8678 93.3999H62.8817L64.1254 96.2515H61.7325ZM65.9022 98.2094C65.8737 98.2019 65.8472 98.1882 65.8247 98.1693C65.8021 98.1504 65.784 98.1267 65.7716 98.1C65.7645 98.0804 65.7557 98.0614 65.7453 98.0433C65.4381 97.3394 63.1421 92.2134 63.1421 92.2134H63.124C61.5337 96.2022 60.9678 97.5844 60.7887 98.0137C60.7767 98.0422 60.7624 98.0697 60.746 98.0959C60.735 98.1231 60.7177 98.1473 60.6953 98.1663C60.673 98.1854 60.6464 98.1987 60.6178 98.2053H60.5579V98.2242H61.1329V98.2053H61.1115C61.0971 98.2047 61.083 98.2011 61.07 98.1948C61.057 98.1885 61.0455 98.1796 61.0361 98.1687C61.0267 98.1577 61.0196 98.145 61.0153 98.1312C61.0111 98.1174 61.0097 98.1028 61.0113 98.0885C61.0154 98.0679 61.0253 98.0474 61.0327 98.0194C61.0327 98.0194 61.321 97.2925 61.6685 96.4176H64.1927L64.8795 97.998C64.8975 98.0281 64.9121 98.0601 64.923 98.0934C64.9526 98.1625 64.8639 98.2044 64.8351 98.2044H64.7776V98.2233H65.9605V98.2044L65.9022 98.2094Z" fill="#67132F"/>
<path d="M43.0875 96.2515C43.6074 94.9474 44.2202 93.3999 44.2202 93.3999H44.2293L45.4746 96.2515H43.0875ZM47.2538 98.2094C47.2252 98.202 47.1986 98.1884 47.1758 98.1695C47.1531 98.1506 47.1348 98.1268 47.1224 98.1C47.1109 98.0827 47.106 98.063 47.092 98.0433C46.7799 97.3394 44.4938 92.2134 44.4938 92.2134H44.4806C42.8862 96.2022 42.3186 97.5844 42.142 98.0137C42.1296 98.0417 42.1159 98.0692 42.1009 98.0959C42.089 98.1228 42.0712 98.1467 42.0487 98.1656C42.0262 98.1846 41.9997 98.1981 41.9711 98.2053H41.912V98.2242H42.487V98.2053H42.464C42.4495 98.205 42.4351 98.2017 42.422 98.1956C42.4088 98.1894 42.3971 98.1805 42.3876 98.1695C42.3781 98.1584 42.3711 98.1455 42.367 98.1315C42.3629 98.1176 42.3618 98.1029 42.3638 98.0885C42.3704 98.0679 42.3728 98.0474 42.3827 98.0194C42.3909 98.0194 42.6751 97.2925 43.0226 96.4176H45.546L46.2328 97.998C46.2489 98.0289 46.2629 98.0607 46.2747 98.0934C46.3018 98.1625 46.2172 98.2044 46.1925 98.2044H46.14V98.2233H47.3064V98.2044L47.2538 98.2094Z" fill="#67132F"/>
<path d="M53.8286 92.789V92.5365C53.8289 92.5108 53.838 92.4859 53.8545 92.4662C53.871 92.4464 53.8937 92.4329 53.919 92.428H53.9765V92.4091H53.4935V92.428H53.5551C53.5799 92.4331 53.6022 92.4468 53.6181 92.4666C53.634 92.4864 53.6425 92.5111 53.6421 92.5365V97.1856L48.9985 92.3408H48.9763C48.9763 95.5427 48.9846 98.0202 48.9846 98.0243V98.1008C48.9839 98.1269 48.9743 98.152 48.9574 98.1719C48.9405 98.1918 48.9174 98.2053 48.8917 98.2102H48.8375V98.2291H49.3255V98.2102H49.268C49.243 98.2049 49.2206 98.1911 49.2046 98.1712C49.1885 98.1512 49.1799 98.1264 49.1801 98.1008V93.6014L53.8319 98.4527V92.7873L53.8286 92.789Z" fill="#67132F"/>
<path d="M60.1669 92.2734V92.3195C60.1628 92.3452 60.1498 92.3686 60.1301 92.3857C60.1104 92.4027 60.0853 92.4121 60.0593 92.4124H55.8929C55.8663 92.4131 55.8404 92.404 55.8199 92.3869C55.7995 92.3698 55.7861 92.3458 55.7821 92.3195V92.2743H55.7656V92.7265H55.7821V92.669C55.7871 92.6434 55.801 92.6205 55.8213 92.6042C55.8416 92.588 55.867 92.5795 55.8929 92.5801H57.5728V98.0984C57.5736 98.1235 57.566 98.1481 57.5511 98.1682C57.5362 98.1884 57.5149 98.2029 57.4907 98.2094H57.4364V98.2283H58.5191V98.2094H58.4526C58.4284 98.2028 58.4072 98.1882 58.3923 98.1681C58.3774 98.148 58.3697 98.1234 58.3704 98.0984V92.5801H60.0552C60.0806 92.5804 60.1051 92.5893 60.1247 92.6055C60.1443 92.6217 60.1577 92.6441 60.1628 92.669V92.7265H60.1825V92.2743L60.1669 92.2734Z" fill="#67132F"/>
<path d="M68.3418 95.2213V92.5785H68.8183C69.7555 92.5785 70.2714 93.0719 70.2714 93.8941C70.2714 94.7444 69.7555 95.2196 68.7575 95.2196L68.3418 95.2213ZM71.9028 98.2086C71.7756 98.1894 71.6581 98.1291 71.5685 98.0367C70.5827 96.9744 69.2167 95.3718 69.2167 95.3718H69.2873C69.4762 95.3697 69.6645 95.3507 69.85 95.315C70.206 95.2848 70.5379 95.1227 70.781 94.8606C71.024 94.5985 71.1607 94.255 71.1643 93.8974C71.1643 92.9493 70.3232 92.4075 69.2315 92.4075H67.4021V92.4264H67.4621C67.4862 92.4321 67.5076 92.4461 67.5226 92.4659C67.5376 92.4857 67.5453 92.5101 67.5442 92.5349V98.0959C67.5454 98.1211 67.5378 98.1458 67.5229 98.1661C67.5079 98.1863 67.4864 98.2007 67.4621 98.2069H67.4021V98.2258H68.4913V98.2069H68.433C68.4079 98.2011 68.3854 98.187 68.3692 98.1669C68.3529 98.1467 68.3439 98.1218 68.3435 98.0959V95.4606L70.6731 98.2267H71.948V98.2078L71.9028 98.2086Z" fill="#67132F"/>
</g>
<path fill-rule="evenodd" clip-rule="evenodd" d="M46.6091 102.211L47.3828 102.883C47.5077 103.001 47.6049 103.145 47.6673 103.305C47.7296 103.466 47.7557 103.638 47.7435 103.809C47.7435 104.627 46.9015 105.014 46.6156 105.7C46.5267 105.894 46.4848 106.107 46.4933 106.32C46.4998 106.402 46.549 106.731 46.6468 106.758C46.8056 106.813 46.9771 106.822 47.1406 106.782C47.3041 106.742 47.4526 106.656 47.568 106.533C47.6834 106.41 47.7607 106.257 47.7907 106.091C47.8207 105.925 47.802 105.754 47.7369 105.599C47.7075 105.435 47.6397 105.28 47.5389 105.148H47.585L48.3588 105.831C48.4361 105.897 48.4982 105.979 48.5408 106.071C48.5833 106.164 48.6053 106.264 48.6051 106.366C48.6136 106.513 48.5922 106.661 48.5421 106.799C48.492 106.938 48.4143 107.065 48.3137 107.172C48.2132 107.28 48.0919 107.366 47.9572 107.425C47.8224 107.485 47.6771 107.516 47.5299 107.517C47.2969 107.521 47.0704 107.44 46.8925 107.29L46.0044 106.515C45.8888 106.41 45.7995 106.279 45.7435 106.133C45.6876 105.987 45.6667 105.83 45.6825 105.675C45.6825 104.904 46.3067 104.459 46.586 103.796C46.6964 103.536 46.7495 103.256 46.7414 102.974C46.7721 102.719 46.714 102.462 46.577 102.246L46.6091 102.211Z" fill="#F47920"/>
<path fill-rule="evenodd" clip-rule="evenodd" d="M48.5181 108.136L49.4471 108.931L49.4011 108.944C49.1429 108.737 48.8224 108.625 48.4918 108.624C48.1692 108.622 47.8494 108.685 47.5513 108.808C47.4141 108.859 47.2785 108.912 47.1405 108.966C46.9389 109.055 46.7186 109.093 46.499 109.076C46.1535 108.998 45.839 108.819 45.5954 108.562L44.8422 107.911C44.8422 107.911 44.8849 107.898 44.889 107.899C45.3041 108.162 45.7995 108.267 46.2854 108.195C46.4957 108.165 47.2712 107.813 47.4987 107.784C47.6416 107.761 47.7877 107.768 47.9275 107.806C48.1453 107.871 48.3461 107.983 48.5156 108.135" fill="#003974"/>
<path d="M51.5964 104.91L52.1355 103.6H52.9441V103.654H52.8796C52.821 103.654 52.7742 103.664 52.739 103.685C52.7146 103.699 52.6951 103.722 52.6804 103.754C52.6697 103.777 52.6643 103.838 52.6643 103.937V105.246C52.6643 105.348 52.6697 105.411 52.6804 105.437C52.6912 105.462 52.7131 105.485 52.7463 105.504C52.7795 105.523 52.824 105.532 52.8796 105.532H52.9441V105.586H51.907V105.532H51.9714C52.03 105.532 52.0769 105.522 52.1121 105.501C52.1365 105.488 52.156 105.464 52.1707 105.431C52.1814 105.408 52.1868 105.346 52.1868 105.246V103.774L51.425 105.586H51.3899L50.6165 103.787V105.186C50.6165 105.284 50.6189 105.344 50.6238 105.367C50.6365 105.415 50.6638 105.455 50.7058 105.487C50.7488 105.517 50.8157 105.532 50.9065 105.532V105.586H50.2268V105.532H50.2473C50.2913 105.533 50.3323 105.526 50.3704 105.512C50.4084 105.496 50.4373 105.475 50.4568 105.45C50.4763 105.425 50.4915 105.389 50.5022 105.343C50.5042 105.332 50.5051 105.283 50.5051 105.194V103.937C50.5051 103.836 50.4998 103.774 50.489 103.749C50.4783 103.724 50.4563 103.702 50.4231 103.683C50.3899 103.664 50.3455 103.654 50.2898 103.654H50.2268V103.6H51.0383L51.5964 104.91ZM53.8567 105.384C53.6897 105.532 53.5398 105.605 53.407 105.605C53.3289 105.605 53.2639 105.58 53.2122 105.529C53.1604 105.477 53.1345 105.413 53.1345 105.336C53.1345 105.231 53.1794 105.138 53.2693 105.055C53.3591 104.971 53.5549 104.859 53.8567 104.721V104.583C53.8567 104.479 53.8508 104.414 53.8391 104.388C53.8284 104.361 53.8074 104.337 53.7761 104.318C53.7449 104.297 53.7097 104.287 53.6707 104.287C53.6072 104.287 53.5549 104.301 53.5139 104.329C53.4885 104.347 53.4758 104.368 53.4758 104.391C53.4758 104.411 53.4895 104.437 53.5168 104.467C53.554 104.509 53.5725 104.55 53.5725 104.589C53.5725 104.637 53.5544 104.678 53.5183 104.712C53.4832 104.745 53.4368 104.762 53.3792 104.762C53.3176 104.762 53.2659 104.743 53.2239 104.706C53.1829 104.669 53.1624 104.625 53.1624 104.576C53.1624 104.505 53.1902 104.438 53.2458 104.375C53.3015 104.31 53.3792 104.261 53.4788 104.227C53.5784 104.193 53.6819 104.176 53.7893 104.176C53.9192 104.176 54.0217 104.203 54.0969 104.259C54.1731 104.314 54.2224 104.373 54.2449 104.438C54.2585 104.479 54.2654 104.573 54.2654 104.721V105.252C54.2654 105.315 54.2678 105.354 54.2727 105.371C54.2776 105.387 54.2849 105.398 54.2947 105.406C54.3044 105.414 54.3157 105.418 54.3284 105.418C54.3538 105.418 54.3796 105.4 54.406 105.364L54.45 105.399C54.4011 105.471 54.3503 105.524 54.2976 105.557C54.2458 105.589 54.1868 105.605 54.1204 105.605C54.0422 105.605 53.9812 105.587 53.9373 105.551C53.8933 105.514 53.8665 105.458 53.8567 105.384ZM53.8567 105.277V104.819C53.7385 104.888 53.6506 104.962 53.593 105.041C53.5549 105.094 53.5359 105.147 53.5359 105.201C53.5359 105.246 53.552 105.286 53.5842 105.32C53.6086 105.346 53.6428 105.359 53.6868 105.359C53.7356 105.359 53.7922 105.332 53.8567 105.277ZM55.4109 104.747L55.6482 105.198C55.7302 105.355 55.7952 105.455 55.843 105.497C55.8694 105.519 55.9055 105.532 55.9514 105.534V105.586H55.1882V105.534C55.2478 105.529 55.2844 105.521 55.2981 105.51C55.3127 105.499 55.3201 105.485 55.3201 105.466C55.3201 105.439 55.3044 105.396 55.2732 105.337L55.1545 105.115L55.0535 105.263C55.0076 105.33 54.9817 105.37 54.9758 105.383C54.968 105.401 54.9641 105.418 54.9641 105.432C54.9641 105.455 54.9685 105.474 54.9773 105.49C54.9871 105.504 54.9998 105.516 55.0154 105.523C55.032 105.53 55.0618 105.534 55.1047 105.534V105.586H54.5686V105.534C54.635 105.534 54.6956 105.516 54.7502 105.479C54.8059 105.442 54.8865 105.346 54.9919 105.191L55.1047 105.024L54.8689 104.587C54.7917 104.445 54.7341 104.357 54.696 104.325C54.658 104.293 54.6155 104.275 54.5686 104.271V104.217H55.3274V104.271L55.2878 104.272L55.2117 104.299C55.2039 104.306 55.2 104.317 55.2 104.332C55.2 104.347 55.2024 104.362 55.2073 104.378C55.2102 104.385 55.2239 104.411 55.2483 104.457L55.3552 104.656L55.4109 104.577C55.489 104.47 55.5281 104.394 55.5281 104.351C55.5281 104.331 55.5193 104.314 55.5017 104.3C55.4851 104.286 55.4548 104.276 55.4109 104.271V104.217H55.8958V104.271C55.8362 104.273 55.7805 104.291 55.7288 104.327C55.677 104.361 55.6189 104.428 55.5544 104.527L55.4109 104.747ZM52.2366 106.555V107.255H52.1824C52.1169 107.063 52.0188 106.918 51.8879 106.818C51.7571 106.719 51.614 106.669 51.4587 106.669C51.3103 106.669 51.1868 106.711 51.0881 106.795C50.9895 106.878 50.9197 106.994 50.8787 107.143C50.8376 107.293 50.8171 107.446 50.8171 107.603C50.8171 107.794 50.8396 107.961 50.8845 108.104C50.9294 108.248 51.0017 108.353 51.1013 108.421C51.2019 108.488 51.321 108.522 51.4587 108.522C51.5066 108.522 51.5554 108.517 51.6052 108.507C51.656 108.496 51.7078 108.481 51.7605 108.462V108.049C51.7605 107.971 51.7551 107.92 51.7444 107.898C51.7336 107.874 51.7112 107.853 51.677 107.835C51.6438 107.816 51.6033 107.807 51.5554 107.807H51.5042V107.753H52.4695V107.807C52.3962 107.812 52.345 107.822 52.3157 107.838C52.2874 107.852 52.2654 107.877 52.2498 107.912C52.241 107.931 52.2366 107.976 52.2366 108.049V108.462C52.1096 108.518 51.9773 108.561 51.8396 108.589C51.7029 108.619 51.5608 108.633 51.4133 108.633C51.2249 108.633 51.0681 108.608 50.9431 108.557C50.8191 108.505 50.7092 108.438 50.6135 108.355C50.5188 108.271 50.4446 108.177 50.3909 108.072C50.3225 107.937 50.2883 107.786 50.2883 107.62C50.2883 107.321 50.3933 107.068 50.6033 106.862C50.8132 106.656 51.0774 106.553 51.3958 106.553C51.4944 106.553 51.5833 106.561 51.6624 106.577C51.7053 106.584 51.7747 106.607 51.8704 106.644C51.967 106.68 52.0242 106.698 52.0417 106.698C52.0691 106.698 52.0945 106.688 52.1179 106.669C52.1414 106.648 52.1628 106.61 52.1824 106.555H52.2366ZM53.1711 107.217V107.527C53.262 107.386 53.3416 107.292 53.4099 107.246C53.4783 107.199 53.5442 107.176 53.6077 107.176C53.6624 107.176 53.7058 107.193 53.738 107.227C53.7712 107.26 53.7878 107.307 53.7878 107.369C53.7878 107.434 53.7717 107.485 53.7395 107.521C53.7083 107.557 53.6702 107.576 53.6252 107.576C53.5735 107.576 53.5286 107.559 53.4905 107.526C53.4524 107.493 53.4299 107.474 53.4231 107.47C53.4133 107.464 53.4021 107.461 53.3894 107.461C53.3611 107.461 53.3342 107.472 53.3088 107.494C53.2688 107.527 53.2385 107.574 53.218 107.636C53.1868 107.73 53.1711 107.835 53.1711 107.949V108.264L53.1726 108.346C53.1726 108.402 53.176 108.437 53.1829 108.453C53.1946 108.479 53.2117 108.499 53.2341 108.512C53.2576 108.523 53.2966 108.531 53.3513 108.534V108.586H52.6116V108.534C52.6711 108.529 52.7112 108.513 52.7317 108.485C52.7532 108.457 52.7639 108.383 52.7639 108.264V107.507C52.7639 107.429 52.76 107.379 52.7522 107.357C52.7424 107.33 52.7283 107.31 52.7097 107.297C52.6912 107.285 52.6584 107.276 52.6116 107.271V107.217H53.1711ZM54.5261 107.176C54.6453 107.176 54.7561 107.206 54.8586 107.268C54.9612 107.329 55.0388 107.417 55.0916 107.53C55.1453 107.643 55.1721 107.767 55.1721 107.902C55.1721 108.097 55.1228 108.259 55.0242 108.39C54.905 108.548 54.7405 108.627 54.5305 108.627C54.3245 108.627 54.1658 108.555 54.0544 108.411C53.9431 108.266 53.8875 108.099 53.8875 107.908C53.8875 107.712 53.9441 107.541 54.0574 107.395C54.1716 107.249 54.3279 107.176 54.5261 107.176ZM54.532 107.28C54.4822 107.28 54.4392 107.299 54.4031 107.337C54.3679 107.374 54.3445 107.448 54.3328 107.559C54.322 107.67 54.3167 107.824 54.3167 108.021C54.3167 108.125 54.3235 108.223 54.3372 108.314C54.3479 108.383 54.3708 108.436 54.406 108.472C54.4412 108.508 54.4812 108.526 54.5261 108.526C54.5701 108.526 54.6067 108.514 54.636 108.49C54.6741 108.456 54.6995 108.41 54.7122 108.35C54.7317 108.258 54.7415 108.07 54.7415 107.788C54.7415 107.622 54.7322 107.508 54.7136 107.447C54.6951 107.384 54.6677 107.339 54.6316 107.31C54.6062 107.29 54.573 107.28 54.532 107.28ZM56.7029 107.217V108.289C56.7029 108.393 56.7126 108.459 56.7322 108.485C56.7517 108.511 56.7913 108.527 56.8508 108.534V108.586H56.2927V108.403C56.2273 108.481 56.1619 108.538 56.0964 108.575C56.031 108.61 55.9578 108.627 55.8767 108.627C55.7996 108.627 55.7307 108.604 55.6702 108.557C55.6106 108.509 55.5706 108.453 55.55 108.39C55.5295 108.327 55.5193 108.216 55.5193 108.057V107.514C55.5193 107.411 55.5095 107.346 55.49 107.321C55.4714 107.295 55.4319 107.279 55.3713 107.271V107.217H55.9294V108.153C55.9294 108.25 55.9338 108.313 55.9426 108.342C55.9524 108.37 55.967 108.391 55.9866 108.406C56.0071 108.421 56.0305 108.428 56.0569 108.428C56.092 108.428 56.1238 108.419 56.1521 108.4C56.1912 108.375 56.238 108.324 56.2927 108.246V107.514C56.2927 107.411 56.283 107.346 56.2634 107.321C56.2449 107.295 56.2053 107.279 56.1448 107.271V107.217H56.7029ZM57.5803 108.447V108.957C57.5803 109.027 57.5857 109.075 57.5964 109.1C57.6082 109.126 57.6257 109.144 57.6492 109.156C57.6726 109.168 57.7185 109.174 57.7869 109.174V109.228H57.0061V109.174C57.0667 109.172 57.1116 109.155 57.1409 109.122C57.1604 109.1 57.1702 109.042 57.1702 108.948V107.502C57.1702 107.406 57.1589 107.344 57.1365 107.318C57.114 107.29 57.0706 107.275 57.0061 107.271V107.217H57.5803V107.397C57.6282 107.327 57.677 107.276 57.7268 107.245C57.7981 107.199 57.8757 107.176 57.9597 107.176C58.0603 107.176 58.1516 107.207 58.2336 107.271C58.3167 107.334 58.3796 107.422 58.4226 107.535C58.4656 107.646 58.4871 107.766 58.4871 107.895C58.4871 108.034 58.4646 108.161 58.4197 108.276C58.3757 108.39 58.3113 108.477 58.2263 108.538C58.1423 108.598 58.0486 108.627 57.9451 108.627C57.8699 108.627 57.7996 108.611 57.7341 108.578C57.6853 108.552 57.634 108.509 57.5803 108.447ZM57.5803 108.299C57.6643 108.418 57.7542 108.478 57.8499 108.478C57.9026 108.478 57.946 108.45 57.9802 108.394C58.031 108.312 58.0564 108.156 58.0564 107.926C58.0564 107.689 58.0286 107.528 57.9729 107.441C57.9358 107.383 57.886 107.354 57.8235 107.354C57.7249 107.354 57.6438 107.426 57.5803 107.568V108.299Z" fill="#023974"/>
<path d="M107.75 94.7394H102.297V93.9525C102.636 93.9661 102.974 93.9332 103.304 93.8546C103.403 93.827 103.489 93.7651 103.547 93.6798C103.605 93.5946 103.631 93.4916 103.62 93.3892C103.618 93.2106 103.583 93.0338 103.517 92.8679L102.971 91.5021H99.2167L98.9349 92.2537C98.8076 92.544 98.7269 92.8526 98.6959 93.1681C98.6779 93.3054 98.7074 93.4448 98.7796 93.563C98.8518 93.6812 98.9623 93.7711 99.0926 93.8176C99.3916 93.914 99.7044 93.9601 100.018 93.9541V94.7402H96.0336V93.9525C96.3145 93.9611 96.5932 93.8995 96.8443 93.7732C97.1118 93.6062 97.331 93.3721 97.4801 93.094C97.7376 92.6424 97.9561 92.1695 98.1332 91.6806L101.469 82.9341H102.277L105.801 91.9544C106.057 92.5925 106.245 93.0239 106.364 93.2486C106.475 93.4658 106.646 93.6466 106.857 93.77C107.132 93.9068 107.437 93.97 107.744 93.9533L107.75 94.7394ZM102.664 90.6634L101.068 86.6244L99.5493 90.6634H102.664Z" fill="#C4082A"/>
<path d="M120.66 90.1692C120.405 90.1867 120.153 90.2398 119.913 90.3271C119.832 90.3598 119.76 90.4096 119.7 90.473C119.64 90.5364 119.595 90.612 119.567 90.6946C119.493 90.957 119.461 91.2296 119.473 91.5021V94.2156C118.571 94.2248 117.672 94.3337 116.794 94.5404C116.099 94.6944 115.579 94.8013 115.233 94.8611C114.826 94.9256 114.413 94.9555 114.001 94.9507C112.865 94.983 111.746 94.6768 110.784 94.0708C109.919 93.5156 109.224 92.7323 108.775 91.8071C108.337 90.9229 108.108 89.9498 108.105 88.9629C108.093 87.8924 108.367 86.8381 108.898 85.909C109.412 85.005 110.157 84.2543 111.057 83.734C111.957 83.2138 112.979 82.9428 114.018 82.9488C115.337 82.9515 116.61 83.4353 117.598 84.3097C117.752 83.9911 117.859 83.6514 117.913 83.3016H118.741L118.823 87.0947H118.038C117.921 86.5278 117.692 85.9902 117.363 85.5143C117.045 85.0462 116.623 84.6575 116.131 84.3779C115.635 84.098 115.074 83.9536 114.505 83.9594C114.071 83.9596 113.641 84.0362 113.234 84.1855C112.791 84.3552 112.392 84.6241 112.069 84.9716C111.67 85.4093 111.373 85.9299 111.198 86.4961C110.96 87.2679 110.85 88.0733 110.87 88.8807C110.867 89.6652 110.953 90.4475 111.126 91.2126C111.286 91.9384 111.646 92.6044 112.167 93.1343C112.462 93.4131 112.811 93.6282 113.192 93.7664C113.574 93.9046 113.98 93.9629 114.385 93.9376C114.975 93.9738 115.564 93.8515 116.092 93.5832C116.438 93.3935 116.706 93.0862 116.846 92.7166C116.967 92.3473 117.026 91.9605 117.021 91.572C117.034 91.2786 117.004 90.9851 116.932 90.7004C116.897 90.606 116.842 90.5207 116.769 90.4511C116.697 90.3816 116.609 90.3296 116.514 90.2991C116.187 90.1983 115.844 90.1549 115.503 90.1708V89.3831H120.66V90.1692Z" fill="#C4082A"/>
<path d="M131.55 90.929L131.456 94.7378H121.148V93.9517C121.627 94.013 122.114 93.9042 122.522 93.6442C122.758 93.3444 122.868 92.9646 122.829 92.5851V85.3088C122.839 85.0476 122.806 84.7865 122.731 84.5359C122.689 84.4349 122.627 84.3439 122.547 84.2688C122.468 84.1937 122.374 84.1362 122.27 84.1001C121.91 83.9762 121.529 83.9226 121.148 83.9422V83.1561H130.748L130.901 86.1632H130.116C130.008 85.6509 129.801 85.1649 129.506 84.7324C129.315 84.4719 129.041 84.2849 128.729 84.2029C128.303 84.1258 127.87 84.093 127.437 84.105H125.269V88.1958H126.446C126.751 88.2086 127.056 88.1725 127.349 88.0889C127.445 88.0566 127.532 88.0033 127.604 87.933C127.677 87.8628 127.732 87.7773 127.768 87.6827C127.867 87.379 127.923 87.0624 127.932 86.7429H128.753V90.5952H127.968C127.966 90.2731 127.908 89.9537 127.797 89.6512C127.758 89.557 127.699 89.4721 127.625 89.4022C127.551 89.3323 127.462 89.279 127.366 89.2459C127.072 89.1647 126.767 89.1301 126.462 89.1431H125.268V91.8681C125.268 92.3236 125.279 92.6569 125.302 92.868C125.316 93.056 125.379 93.2371 125.485 93.3934C125.607 93.5478 125.779 93.655 125.971 93.6968C126.286 93.7691 126.609 93.8006 126.931 93.7905H127.861C128.24 93.7922 128.618 93.7419 128.983 93.6409C129.401 93.4966 129.766 93.2285 130.028 92.8721C130.432 92.298 130.68 91.6282 130.745 90.929H131.55Z" fill="#C4082A"/>
<path d="M139.887 93.4583H140.203C140.151 94.4324 139.673 94.9192 138.769 94.9186C138.435 94.9372 138.107 94.8271 137.852 94.6111C137.606 94.3648 137.451 94.0425 137.412 93.6967C136.924 94.0537 136.401 94.3601 135.851 94.6111C135.457 94.7983 135.029 94.903 134.593 94.9186C134.15 94.9289 133.718 94.7834 133.372 94.5075C133.207 94.38 133.075 94.2152 132.986 94.0267C132.897 93.8382 132.854 93.6313 132.86 93.4229C132.87 93.1165 132.952 92.8168 133.101 92.5492C133.251 92.2815 133.462 92.0538 133.718 91.8853C134.45 91.359 135.246 90.9285 136.086 90.6042L137.409 90.0664V89.7252C137.422 89.3723 137.391 89.0192 137.315 88.6743C137.228 88.4284 137.056 88.2222 136.829 88.0938C136.517 87.9096 136.158 87.8205 135.796 87.8372C134.943 87.8372 134.468 88.122 134.371 88.6916C134.28 89.2727 134.041 89.5632 133.654 89.5632C133.307 89.5632 133.133 89.3987 133.133 89.0698C133.165 88.8556 133.244 88.6509 133.363 88.4702C133.483 88.2894 133.64 88.1368 133.824 88.0231C134.404 87.6974 135.051 87.5084 135.714 87.4707C136.378 87.4329 137.042 87.5473 137.655 87.8052C137.994 87.9732 138.271 88.2455 138.445 88.5822C138.595 89.0098 138.66 89.4625 138.637 89.9151V92.7429C138.616 93.1679 138.652 93.5938 138.744 94.0092C138.775 94.0995 138.836 94.1765 138.916 94.2277C138.997 94.2789 139.092 94.3013 139.187 94.2912C139.563 94.2912 139.796 94.0122 139.887 93.4542M137.412 90.4644L136.482 90.8402C135.015 91.4382 134.281 92.1898 134.281 93.0948C134.266 93.4087 134.366 93.7173 134.563 93.9623C134.652 94.0692 134.765 94.1543 134.892 94.2113C135.019 94.2683 135.158 94.2956 135.297 94.2912C135.623 94.2753 135.941 94.1847 136.227 94.0265C136.649 93.804 137.046 93.5378 137.413 93.2322L137.412 90.4644Z" fill="#C4082A"/>
<path d="M141.09 94.9614V92.664H141.422C141.809 93.9912 142.5 94.6545 143.496 94.6539C143.676 94.6674 143.858 94.639 144.026 94.5708C144.193 94.5026 144.343 94.3965 144.463 94.2609C144.669 94.0205 144.783 93.7148 144.784 93.3983C144.79 93.2336 144.763 93.0693 144.704 92.9152C144.645 92.7611 144.557 92.6204 144.443 92.5012C144.034 92.155 143.577 91.8702 143.086 91.6559C142.523 91.4071 142.008 91.0599 141.567 90.6306C141.26 90.2996 141.094 89.8612 141.106 89.4095C141.114 88.9259 141.288 88.4598 141.599 88.0897C141.764 87.8822 141.977 87.717 142.219 87.6079C142.46 87.4988 142.725 87.4489 142.99 87.4623C143.282 87.4582 143.571 87.523 143.833 87.6516C144.096 87.7802 144.324 87.9689 144.5 88.2024C144.644 88.0137 144.756 87.8033 144.833 87.5791H145.148V89.74H144.833C144.731 89.245 144.503 88.7845 144.172 88.403C144.033 88.2295 143.857 88.0892 143.657 87.9923C143.457 87.8955 143.237 87.8445 143.015 87.8431C142.863 87.8365 142.711 87.8612 142.569 87.9155C142.426 87.9697 142.296 88.0526 142.187 88.1588C142.087 88.2533 142.008 88.3673 141.953 88.4937C141.899 88.6201 141.871 88.7563 141.872 88.8939C141.871 89.0436 141.901 89.1917 141.962 89.3286C142.022 89.4656 142.111 89.5881 142.222 89.6882C142.612 90.0163 143.053 90.2788 143.527 90.4653C144.234 90.7039 144.853 91.1504 145.302 91.7464C145.506 92.1189 145.617 92.5348 145.627 92.9592C145.637 93.2353 145.589 93.5105 145.485 93.7666C145.381 94.0227 145.225 94.2539 145.025 94.4451C144.823 94.6361 144.585 94.7853 144.325 94.8841C144.065 94.9829 143.788 95.0293 143.511 95.0207C143.185 95.0174 142.863 94.9449 142.568 94.808C142.272 94.671 142.009 94.4728 141.795 94.2263C141.619 94.4411 141.491 94.6916 141.42 94.9606L141.09 94.9614Z" fill="#C4082A"/>
<path d="M150.742 93.4147L152.364 89.5278C152.505 89.2213 152.622 88.9044 152.714 88.5797C152.714 88.2952 152.398 88.1472 151.767 88.1357V87.7427H154.225V88.1357C153.917 88.1245 153.617 88.2333 153.388 88.4391C153.107 88.8113 152.885 89.2249 152.731 89.6651L149.619 97.1906C149.43 97.7148 149.165 98.2085 148.833 98.6558C148.745 98.772 148.631 98.8671 148.501 98.9343C148.372 99.0016 148.229 99.0393 148.083 99.0448C147.713 99.0448 147.528 98.8768 147.528 98.5407C147.528 98.1537 147.824 97.8262 148.415 97.5581C148.665 97.4614 148.899 97.329 149.111 97.1651C149.266 96.9945 149.383 96.7938 149.457 96.5755L150.122 94.9096L147.494 89.2721C147.358 88.9269 147.161 88.6086 146.914 88.3322C146.682 88.1792 146.405 88.1098 146.128 88.1357V87.7427H149.337V88.1357C148.773 88.1527 148.492 88.2695 148.492 88.486C148.568 88.7775 148.68 89.0586 148.824 89.3231L150.742 93.4147Z" fill="#C4082A"/>
</g>
<defs>
<radialGradient id="paint0_radial_477_369" cx="0" cy="0" r="1" gradientUnits="userSpaceOnUse" gradientTransform="translate(78.9133 76.9644) scale(5.89508 5.89814)">
<stop stop-color="#FC921D"/>
<stop offset="1" stop-color="#E53025"/>
</radialGradient>
<radialGradient id="paint1_radial_477_369" cx="0" cy="0" r="1" gradientUnits="userSpaceOnUse" gradientTransform="translate(78.9348 76.9652) scale(1.44122 1.44473)">
<stop stop-color="#E53025"/>
<stop offset="1" stop-color="#FC921D"/>
</radialGradient>
<radialGradient id="paint2_radial_477_369" cx="0" cy="0" r="1" gradientUnits="userSpaceOnUse" gradientTransform="translate(40.7681 76.9646) scale(6.0183 6.02477)">
<stop stop-color="#F26313"/>
<stop offset="0.264" stop-color="#F57B13"/>
<stop offset="0.748" stop-color="#FCA213"/>
<stop offset="1" stop-color="#FFB213"/>
</radialGradient>
<radialGradient id="paint3_radial_477_369" cx="0" cy="0" r="1" gradientUnits="userSpaceOnUse" gradientTransform="translate(40.7702 76.9648) scale(1.41452 1.41471)">
<stop stop-color="#F26313"/>
<stop offset="0.264" stop-color="#F57B13"/>
<stop offset="0.748" stop-color="#FCA213"/>
<stop offset="1" stop-color="#FFB213"/>
</radialGradient>
<radialGradient id="paint4_radial_477_369" cx="0" cy="0" r="1" gradientUnits="userSpaceOnUse" gradientTransform="translate(59.6535 76.9632) scale(6.10742 6.11563)">
<stop stop-color="#F16322"/>
<stop offset="0.395" stop-color="#D83F30"/>
<stop offset="0.778" stop-color="#C6243B"/>
<stop offset="1" stop-color="#BF1A40"/>
</radialGradient>
<radialGradient id="paint5_radial_477_369" cx="0" cy="0" r="1" gradientUnits="userSpaceOnUse" gradientTransform="translate(59.649 76.9646) scale(1.41493 1.41471)">
<stop stop-color="#B31A3D"/>
<stop offset="0.229" stop-color="#BC2439"/>
<stop offset="0.624" stop-color="#D4402E"/>
<stop offset="1" stop-color="#F16122"/>
</radialGradient>
<clipPath id="clip0_477_369">
<rect width="178" height="178" fill="white" transform="translate(-0.788208 0.0136719)"/>
</clipPath>
</defs>
</svg>
