<svg width="23" height="25" viewBox="0 0 23 25" fill="none" xmlns="http://www.w3.org/2000/svg">
<path d="M21.7045 24.1664C21.9964 24.4603 22.4712 24.462 22.7652 24.1701C23.0591 23.8783 23.0608 23.4034 22.7689 23.1095L21.7045 24.1664ZM20.0524 11.113H19.3024C19.3024 15.9367 15.4211 19.838 10.6445 19.838V20.588V21.338C16.2596 21.338 20.8024 16.7551 20.8024 11.113H20.0524ZM10.6445 20.588V19.838C5.86799 19.838 1.98672 15.9367 1.98672 11.113H1.23672H0.486725C0.486725 16.7551 5.02951 21.338 10.6445 21.338V20.588ZM1.23672 11.113H1.98672C1.98672 6.28922 5.86799 2.38792 10.6445 2.38792V1.63792V0.887924C5.02951 0.887924 0.486725 5.47088 0.486725 11.113H1.23672ZM10.6445 1.63792V2.38792C15.4211 2.38792 19.3024 6.28922 19.3024 11.113H20.0524H20.8024C20.8024 5.47088 16.2596 0.887924 10.6445 0.887924V1.63792ZM16.9785 18.3421L16.4463 18.8705L21.7045 24.1664L22.2367 23.6379L22.7689 23.1095L17.5107 17.8137L16.9785 18.3421Z" fill="#EB6723"/>
</svg>
