<svg width="21" height="21" viewBox="0 0 21 21" fill="none" xmlns="http://www.w3.org/2000/svg">
<path d="M11.0627 0.254395C11.3027 0.455097 11.5327 0.665835 11.7727 0.856502C14.6127 3.17462 17.4527 5.50276 20.2927 7.82088C20.3327 7.86102 20.3727 7.90116 20.4327 7.95133C17.3027 10.5203 14.1827 13.0692 11.0327 15.6483V10.8716C10.5127 10.9418 10.0127 10.9819 9.52273 11.0923C6.14273 11.845 3.59273 13.7215 1.97273 16.8123C1.43273 17.8359 1.03273 18.9398 0.572729 20.0035C0.532729 20.0838 0.502729 20.1641 0.422729 20.2444C0.422729 20.1942 0.422729 20.134 0.422729 20.0838C0.422729 18.8194 0.422729 17.5449 0.422729 16.2805C0.422729 11.8149 2.96273 7.86102 7.00273 5.99448C8.20273 5.44255 9.46273 5.12143 10.7827 5.03111C10.8327 5.03111 10.8827 5.03111 10.9427 5.01104C10.9627 5.01104 10.9827 5.00101 11.0127 4.99097V0.254395C11.0127 0.254395 11.0427 0.254395 11.0527 0.254395H11.0627ZM12.2027 6.18515C9.58273 6.09484 7.25273 6.81736 5.24273 8.49323C3.23273 10.1691 2.06273 12.3166 1.68273 14.9558C4.32273 11.3934 7.80273 9.64727 12.2127 9.69744V13.1596C14.3527 11.4034 16.4627 9.67737 18.5827 7.93126C16.4527 6.18515 14.3427 4.46915 12.2027 2.713V6.16508V6.18515Z" fill="white"/>
</svg>
