<svg width="21" height="23" viewBox="0 0 21 23" fill="none" xmlns="http://www.w3.org/2000/svg">
<g clip-path="url(#clip0_890_435)">
<path d="M10.6551 1.38792C11.0317 1.46539 11.3268 1.51082 11.6151 1.57835L11.9247 1.66234H11.9256C14.0876 2.33834 15.5657 4.42817 15.492 6.54027L15.4803 6.74437C15.289 9.05809 13.5977 10.9342 11.3289 11.3782L11.1073 11.4162C8.23145 11.8537 5.64712 10.0744 5.08286 7.39964L5.03403 7.13792C4.61958 4.51642 6.57529 1.88704 9.33774 1.4641L9.33676 1.46312C9.49368 1.43939 9.65786 1.41219 9.80649 1.38792H10.6551Z" stroke="#EB6723" stroke-width="1.5"/>
<path d="M11.6166 14.2812C15.0573 14.3139 18.0816 16.5106 19.1059 19.6279L19.1986 19.9316C19.3562 20.4913 19.45 21.0585 19.4779 21.6328L19.4857 21.8798C19.4858 21.8817 19.4848 21.8839 19.4848 21.8857C19.4763 21.886 19.4672 21.8876 19.4574 21.8876H1.03946C1.02016 21.8876 1.00303 21.8845 0.987701 21.8837L0.986725 21.8583C1.03626 18.2809 3.69204 15.1702 7.3461 14.4326L7.70255 14.3691C7.95617 14.3294 8.21712 14.3048 8.48087 14.2929L8.74551 14.2851C9.22334 14.2785 9.70178 14.2749 10.1801 14.2744L11.6166 14.2812Z" stroke="#EB6723" stroke-width="1.5"/>
</g>
<defs>
<clipPath id="clip0_890_435">
<rect width="20" height="22" fill="white" transform="translate(0.236725 0.637924)"/>
</clipPath>
</defs>
</svg>
