<svg width="37" height="38" viewBox="0 0 37 38" fill="none" xmlns="http://www.w3.org/2000/svg">
<path d="M14.3148 3.45802C13.9055 3.70053 13.5761 4.05748 13.3671 4.48489C13.1581 4.9123 13.0787 5.39151 13.1386 5.86349V6.35165L12.7936 5.99288C12.499 5.62038 12.1029 5.34109 11.6531 5.18872C11.2034 5.03636 10.7191 5.01742 10.2588 5.13421C8.77143 5.82542 7.14196 6.15589 5.50284 6.09874L5.41267 6.11443C5.4595 7.78154 5.12421 9.43725 4.43247 10.9548C4.31231 11.4171 4.32955 11.9044 4.48205 12.357C4.63455 12.8097 4.91572 13.208 5.29112 13.5034L5.63615 13.8543H5.16173C4.68794 13.7954 4.20723 13.8751 3.77785 14.0839C3.34847 14.2927 2.98886 14.6215 2.7426 15.0306C2.17165 16.5708 1.25248 17.9583 0.0568503 19.0848L0 19.1632C1.21695 20.3081 2.15576 21.7164 2.74456 23.2801C2.98934 23.6906 3.3487 24.0206 3.77848 24.2295C4.20825 24.4385 4.68971 24.5173 5.16369 24.4564H5.63419L5.28916 24.7936C4.91435 25.0894 4.63362 25.4878 4.48117 25.9403C4.32872 26.3928 4.31112 26.8799 4.43051 27.3422C5.11993 28.8314 5.44837 30.4622 5.38914 32.1021L5.41071 32.1806C7.07884 32.1432 8.73433 32.4781 10.2568 33.1608C10.7181 33.2826 11.2051 33.2656 11.6567 33.1118C12.1083 32.958 12.5045 32.6743 12.7955 32.2962L13.1406 31.9551V32.4511C13.0801 32.9212 13.1594 33.3988 13.3686 33.8241C13.5777 34.2494 13.9075 34.6038 14.3168 34.8429C15.8853 35.4312 17.2987 36.37 18.4493 37.5875L18.5238 37.5287C19.6512 36.3324 21.0392 35.412 22.5799 34.8389C22.9902 34.601 23.3209 34.2469 23.5303 33.8212C23.7396 33.3956 23.8182 32.9175 23.7561 32.4472V31.9512L24.0855 32.2923C24.3791 32.67 24.7771 32.9532 25.2301 33.1068C25.6831 33.2605 26.1712 33.2779 26.634 33.1569C28.1519 32.4748 29.8027 32.1399 31.4664 32.1766L31.4821 32.0982C31.4423 30.4576 31.7776 28.8296 32.4623 27.3383C32.5833 26.8755 32.5659 26.3873 32.4123 25.9343C32.2586 25.4813 31.9754 25.0833 31.5977 24.7897L31.2507 24.4525H31.7428C32.2137 24.5124 32.6918 24.4328 33.1179 24.2238C33.5441 24.0147 33.8995 23.6852 34.1404 23.2762C34.7292 21.7125 35.668 20.3043 36.8849 19.1593L36.8242 19.0808C35.6314 17.9532 34.7144 16.5659 34.1443 15.0266C33.9018 14.6192 33.546 14.291 33.1203 14.0822C32.6946 13.8733 32.2174 13.7928 31.7467 13.8504H31.2547L31.6017 13.4994C31.9799 13.2063 32.2636 12.8084 32.4173 12.3552C32.571 11.902 32.588 11.4136 32.4662 10.9509C31.7787 9.43195 31.4436 7.77723 31.486 6.11051L31.4076 6.09483C29.7634 6.15245 28.1287 5.82202 26.636 5.13028C26.1736 5.01315 25.6872 5.03186 25.2352 5.18416C24.7832 5.33646 24.3847 5.61589 24.0874 5.98896L23.7581 6.34772V5.86741C23.8196 5.39528 23.7409 4.9155 23.5317 4.48779C23.3226 4.06007 22.9922 3.70332 22.5819 3.46194C21.0393 2.88825 19.6494 1.96725 18.5199 0.770247L18.4454 0.709473C17.2942 1.92636 15.881 2.86498 14.3129 3.4541" fill="#F39200"/>
<g clip-path="url(#clip0_121_67)">
<path d="M18.4424 16.487C17.1074 16.487 15.7724 16.487 14.4374 16.487C14.1624 16.487 14.0924 16.4171 14.0924 16.1375C14.0924 14.7544 14.0924 13.3762 14.0924 11.993C14.0924 11.7184 14.1624 11.6485 14.4374 11.6485C17.1074 11.6485 19.7774 11.6485 22.4474 11.6485C22.7274 11.6485 22.7974 11.7184 22.7974 11.998C22.7974 13.3812 22.7974 14.7594 22.7974 16.1425C22.7974 16.4221 22.7274 16.492 22.4474 16.492C21.1124 16.492 19.7774 16.492 18.4424 16.492V16.487ZM22.3024 15.9977V12.1428H18.6224C19.0524 12.2677 19.3274 12.5173 19.3824 12.9268C19.4224 13.2114 19.4074 13.511 19.3724 13.7956C19.3374 14.0753 19.1574 14.28 18.9174 14.4198C18.8324 14.4697 18.7424 14.4997 18.6224 14.5496C18.8874 14.5496 19.1224 14.5496 19.3574 14.5496C19.8274 14.5496 20.1274 14.8542 20.1274 15.3286C20.1274 15.5483 20.1274 15.768 20.1274 15.9927H22.2924L22.3024 15.9977ZM18.2324 12.1428H14.5824V15.9927H16.7474C16.7474 15.758 16.7474 15.5333 16.7474 15.3086C16.7474 14.8592 17.0574 14.5546 17.5074 14.5496C17.7474 14.5496 17.9874 14.5496 18.2274 14.5496C17.8174 14.4098 17.5524 14.1502 17.4824 13.7207C17.4574 13.5609 17.4724 13.4012 17.4724 13.2364C17.4724 12.6472 17.6674 12.3625 18.2324 12.1428ZM19.4174 15.5183V15.9927H19.6524C19.6524 15.748 19.6524 15.5133 19.6524 15.2737C19.6524 15.1289 19.5574 15.034 19.4124 15.034C18.7674 15.034 18.1224 15.034 17.4774 15.034C17.3424 15.034 17.2474 15.1139 17.2424 15.2437C17.2274 15.4934 17.2424 15.743 17.2424 15.9877H17.4874V15.5233H17.9724V15.9877H18.9374V15.5133C19.0674 15.5133 19.1824 15.5133 19.2974 15.5133C19.3324 15.5133 19.3674 15.5133 19.4224 15.5133L19.4174 15.5183ZM17.9624 13.3313C17.9624 13.4211 17.9624 13.511 17.9624 13.6009C17.9774 13.8605 18.1924 14.0653 18.4474 14.0603C18.6974 14.0603 18.9124 13.8605 18.9274 13.6059C18.9374 13.4261 18.9374 13.2414 18.9274 13.0616C18.9174 12.807 18.7024 12.6122 18.4524 12.6072C18.1924 12.6072 17.9824 12.807 17.9674 13.0666C17.9674 13.1515 17.9674 13.2364 17.9674 13.3213L17.9624 13.3313Z" fill="white"/>
<path d="M17.3824 21.8299C16.8924 21.2756 16.9224 20.6215 17.0574 19.9824C17.2024 19.2833 17.9124 18.8239 18.6024 18.9138C19.3324 19.0087 19.8774 19.5979 19.8974 20.3169C19.8974 20.4967 19.8974 20.6814 19.8974 20.8612C19.8924 21.2307 19.7574 21.5453 19.5074 21.8299C19.5774 21.8549 19.6374 21.8748 19.7024 21.8948C20.3874 22.1195 20.8524 22.7487 20.8674 23.4627C20.8724 23.7873 20.8674 24.1069 20.8674 24.4314C20.8674 24.6212 20.7774 24.7111 20.5874 24.7111C19.1624 24.7111 17.7374 24.7111 16.3124 24.7111C16.1474 24.7111 16.0374 24.6362 16.0374 24.4964C16.0374 24.0919 16.0024 23.6874 16.0574 23.288C16.1524 22.544 16.5924 22.0746 17.3124 21.8649C17.3374 21.8599 17.3574 21.8449 17.3874 21.8349L17.3824 21.8299ZM20.3724 24.2217C20.3724 23.9371 20.3924 23.6625 20.3724 23.3878C20.3224 22.7836 19.8174 22.3093 19.2174 22.2943C18.7024 22.2843 18.1874 22.2793 17.6774 22.2943C17.1724 22.3143 16.8124 22.5689 16.6074 23.0333C16.4374 23.4178 16.5324 23.8222 16.5124 24.2167H16.9974V23.268H17.4824V24.2117H19.4174V23.263H19.8974V24.2167H20.3724V24.2217ZM19.4074 20.6065C19.4074 20.5117 19.4074 20.4168 19.4074 20.3219C19.3874 19.8426 19.0124 19.4431 18.5324 19.3981C18.0474 19.3532 17.5874 19.6728 17.5024 20.1571C17.4574 20.4118 17.4624 20.6814 17.4774 20.9361C17.5124 21.4454 17.9624 21.8249 18.4724 21.8099C18.9724 21.795 19.3824 21.3805 19.4024 20.8762C19.4024 20.7863 19.4024 20.6964 19.4024 20.6065H19.4074Z" fill="white"/>
<path d="M12.3024 23.7673C11.8124 23.2081 11.8374 22.549 11.9774 21.9048C12.1274 21.2157 12.8324 20.7613 13.5174 20.8462C14.2424 20.9361 14.7874 21.5203 14.8124 22.2344C14.8174 22.4241 14.8174 22.6189 14.8124 22.8086C14.8024 23.1681 14.6674 23.4827 14.4224 23.7673C14.4674 23.7823 14.5074 23.7973 14.5424 23.8073C15.2674 24.012 15.7674 24.6611 15.7824 25.4151C15.7874 25.7347 15.7824 26.0493 15.7824 26.3689C15.7824 26.5586 15.6924 26.6485 15.5074 26.6485C14.0774 26.6485 12.6474 26.6485 11.2174 26.6485C11.0574 26.6485 10.9524 26.5636 10.9524 26.4188C10.9524 26.0094 10.9224 25.5999 10.9774 25.1954C11.0774 24.4714 11.5124 24.012 12.2124 23.8023C12.2424 23.7923 12.2674 23.7823 12.3074 23.7673H12.3024ZM15.2974 26.1592C15.2974 25.8945 15.3024 25.6448 15.2974 25.3952C15.2774 24.756 14.7574 24.2417 14.1224 24.2317C13.6174 24.2217 13.1124 24.2167 12.6124 24.2317C12.1274 24.2467 11.7724 24.4814 11.5524 24.9158C11.3524 25.3153 11.4574 25.7397 11.4324 26.1542H11.9224V25.2004H12.4024V26.1492H14.3374V25.2004H14.8174V26.1542H15.2974V26.1592ZM14.3324 22.539C14.3324 22.4491 14.3324 22.3592 14.3324 22.2693C14.3174 21.78 13.9424 21.3755 13.4574 21.3306C12.9724 21.2856 12.5124 21.6102 12.4324 22.0896C12.3874 22.3442 12.3924 22.6139 12.4074 22.8685C12.4424 23.3729 12.8824 23.7524 13.3874 23.7424C13.8874 23.7324 14.3074 23.3279 14.3324 22.8236C14.3324 22.7287 14.3324 22.6339 14.3324 22.539Z" fill="white"/>
<path d="M24.5774 23.7673C24.6524 23.7923 24.7124 23.8123 24.7774 23.8323C25.4574 24.057 25.9274 24.6861 25.9424 25.4002C25.9474 25.7247 25.9424 26.0443 25.9424 26.3689C25.9424 26.5586 25.8524 26.6485 25.6624 26.6485C24.2374 26.6485 22.8124 26.6485 21.3874 26.6485C21.2224 26.6485 21.1124 26.5686 21.1124 26.4288C21.1124 26.0193 21.0824 25.6099 21.1324 25.2054C21.2274 24.4764 21.6674 24.012 22.3724 23.7973C22.4024 23.7873 22.4274 23.7773 22.4624 23.7623C21.9774 23.2081 22.0024 22.554 22.1374 21.9098C22.2824 21.2157 22.9774 20.7613 23.6674 20.8412C24.4024 20.9211 24.9574 21.5203 24.9724 22.2494C24.9724 22.3442 24.9724 22.4391 24.9724 22.534C24.9974 22.9884 24.9074 23.4078 24.5774 23.7574V23.7673ZM22.5524 26.1542H24.4924V25.2054H24.9774V26.1542H25.4524C25.4524 25.8945 25.4574 25.6448 25.4524 25.3952C25.4324 24.756 24.9124 24.2417 24.2774 24.2267C23.7724 24.2167 23.2674 24.2117 22.7674 24.2267C22.2824 24.2417 21.9274 24.4764 21.7074 24.9108C21.5074 25.3103 21.6124 25.7347 21.5874 26.1492H22.0774V25.1954H22.5524V26.1442V26.1542ZM22.5474 22.529C22.5474 22.529 22.5524 22.529 22.5574 22.529C22.5574 22.6139 22.5574 22.6988 22.5574 22.7837C22.5674 23.283 22.9374 23.6924 23.4324 23.7424C23.9274 23.7923 24.3824 23.4578 24.4674 22.9584C24.5024 22.7387 24.4924 22.509 24.4874 22.2793C24.4824 21.78 24.0974 21.3705 23.6074 21.3306C23.1174 21.2856 22.6724 21.6152 22.5774 22.1095C22.5524 22.2444 22.5574 22.3892 22.5474 22.529Z" fill="white"/>
<path d="M10.9424 15.019C10.9424 14.3249 10.9424 13.6308 10.9424 12.9318C10.9424 12.762 11.0024 12.6621 11.1674 12.6022C11.9274 12.3076 12.6874 11.998 13.4474 11.6934C13.7024 11.5936 13.8474 11.6934 13.8474 11.9681C13.8474 13.3662 13.8474 14.7693 13.8474 16.1675C13.8474 16.3372 13.7824 16.4371 13.6274 16.497C12.8624 16.8016 12.0974 17.1112 11.3324 17.4158C11.0974 17.5107 10.9474 17.4058 10.9474 17.1512C10.9474 16.4421 10.9474 15.733 10.9474 15.019H10.9424ZM11.4424 13.0167V16.8516C12.0674 16.6019 12.6774 16.3572 13.2924 16.1175C13.3874 16.0826 13.3674 16.0127 13.3674 15.9478C13.3674 14.7643 13.3674 13.5809 13.3674 12.3925C13.3674 12.3525 13.3674 12.3076 13.3574 12.2527C12.7074 12.5123 12.0724 12.767 11.4424 13.0167Z" fill="white"/>
<path d="M25.9424 15.034C25.9424 15.733 25.9424 16.4321 25.9424 17.1362C25.9424 17.4108 25.7974 17.5107 25.5424 17.4108C24.7824 17.1062 24.0224 16.7966 23.2624 16.497C23.1024 16.4321 23.0374 16.3372 23.0374 16.1675C23.0374 14.7693 23.0374 13.3662 23.0374 11.9681C23.0374 11.6884 23.1824 11.5936 23.4374 11.6934C24.1874 11.993 24.9424 12.2926 25.6924 12.5922C25.9124 12.6821 25.9424 12.7221 25.9424 12.9667C25.9424 13.6558 25.9424 14.3449 25.9424 15.039V15.034ZM25.4474 16.8466C25.4474 16.8466 25.4574 16.8116 25.4574 16.8016C25.4574 15.5733 25.4574 14.3399 25.4574 13.1115C25.4574 13.0266 25.4174 13.0017 25.3524 12.9767C24.8674 12.787 24.3824 12.5922 23.8924 12.3975C23.7724 12.3476 23.6524 12.3026 23.5274 12.2527C23.5224 12.2776 23.5174 12.2876 23.5174 12.2976C23.5174 13.526 23.5174 14.7593 23.5174 15.9877C23.5174 16.0726 23.5574 16.0976 23.6224 16.1225C24.0774 16.3023 24.5274 16.482 24.9824 16.6668C25.1374 16.7267 25.2874 16.7866 25.4424 16.8466H25.4474Z" fill="white"/>
<path d="M16.0274 19.3882C16.0274 19.538 16.0274 19.6728 16.0274 19.8076C16.0274 19.9274 16.0074 20.0273 15.8874 20.0872C15.7674 20.1471 15.6774 20.0972 15.5824 20.0273C15.3324 19.8376 15.0774 19.6428 14.8224 19.4581C14.7724 19.4181 14.6974 19.3981 14.6324 19.3931C14.3774 19.3882 14.1174 19.3931 13.8624 19.3931C13.4374 19.3882 13.1324 19.0786 13.1274 18.6541C13.1274 18.3346 13.1274 18.02 13.1274 17.7004C13.1324 17.286 13.4424 16.9764 13.8574 16.9714C14.6574 16.9714 15.4574 16.9714 16.2574 16.9714C16.6824 16.9714 16.9874 17.286 16.9924 17.7104C16.9924 18.015 16.9924 18.3146 16.9924 18.6192C16.9924 19.0886 16.6874 19.3882 16.2124 19.3931C16.1574 19.3931 16.1024 19.3931 16.0224 19.3931L16.0274 19.3882ZM15.5424 19.3882C15.5424 19.3083 15.5424 19.2583 15.5424 19.2084C15.5424 18.9887 15.6274 18.9088 15.8424 18.9038C15.9674 18.9038 16.0924 18.9038 16.2224 18.9038C16.4174 18.9038 16.5074 18.8139 16.5074 18.6192C16.5074 18.3246 16.5074 18.035 16.5074 17.7403C16.5074 17.5406 16.4174 17.4557 16.2224 17.4557C15.4474 17.4557 14.6724 17.4557 13.8974 17.4557C13.6974 17.4557 13.6124 17.5456 13.6124 17.7403C13.6124 18.035 13.6124 18.3246 13.6124 18.6192C13.6124 18.8189 13.7024 18.9038 13.8974 18.9088C14.1774 18.9088 14.4624 18.9038 14.7424 18.9088C14.8374 18.9088 14.9374 18.9487 15.0174 18.9987C15.1874 19.1085 15.3474 19.2433 15.5424 19.3882Z" fill="white"/>
<path d="M20.8624 17.6954C20.8624 17.5456 20.8624 17.4108 20.8624 17.271C20.8624 17.1512 20.8874 17.0513 21.0024 16.9914C21.1224 16.9315 21.2124 16.9864 21.3074 17.0563C21.5574 17.246 21.8024 17.4358 22.0574 17.6155C22.1174 17.6605 22.2024 17.6854 22.2724 17.6904C22.5224 17.7004 22.7774 17.6904 23.0274 17.6904C23.4524 17.6954 23.7574 18.005 23.7624 18.4295C23.7624 18.749 23.7624 19.0636 23.7624 19.3832C23.7574 19.7976 23.4474 20.1072 23.0324 20.1072C22.2324 20.1072 21.4324 20.1072 20.6324 20.1072C20.2124 20.1072 19.9024 19.7926 19.8974 19.3682C19.8974 19.0686 19.8974 18.774 19.8974 18.4744C19.8974 17.99 20.1974 17.6904 20.6774 17.6904C20.7324 17.6904 20.7874 17.6904 20.8674 17.6904L20.8624 17.6954ZM21.3474 17.6954C21.3474 17.7703 21.3474 17.8103 21.3474 17.8502C21.3474 18.0999 21.2674 18.1748 21.0224 18.1748C20.9074 18.1748 20.7924 18.1748 20.6724 18.1748C20.4624 18.1748 20.3774 18.2597 20.3774 18.4694C20.3774 18.759 20.3774 19.0436 20.3774 19.3333C20.3774 19.543 20.4624 19.6279 20.6724 19.6279C21.4424 19.6279 22.2124 19.6279 22.9824 19.6279C23.1924 19.6279 23.2774 19.543 23.2774 19.3333C23.2774 19.0436 23.2774 18.759 23.2774 18.4694C23.2774 18.2597 23.1924 18.1748 22.9824 18.1748C22.7274 18.1748 22.4674 18.1648 22.2124 18.1748C22.0574 18.1798 21.9274 18.1448 21.8124 18.045C21.6724 17.9251 21.5174 17.8203 21.3424 17.6904L21.3474 17.6954Z" fill="white"/>
<path d="M14.5624 18.4194H14.1024V17.9501H14.5624V18.4194Z" fill="white"/>
<path d="M14.8275 17.9451H15.2875V18.4145H14.8275V17.9451Z" fill="white"/>
<path d="M16.0174 18.4145H15.5524V17.9451H16.0174V18.4145Z" fill="white"/>
<path d="M20.8674 19.1385V18.6741H21.3374V19.1385H20.8674Z" fill="white"/>
<path d="M21.5924 19.1385V18.6741H22.0574V19.1385H21.5924Z" fill="white"/>
<path d="M22.3174 19.1385V18.6741H22.7874V19.1385H22.3174Z" fill="white"/>
</g>
<defs>
<clipPath id="clip0_121_67">
<rect width="15" height="15" fill="white" transform="translate(10.9424 11.6485)"/>
</clipPath>
</defs>
</svg>
