<svg width="16" height="16" viewBox="0 0 16 16" fill="none" xmlns="http://www.w3.org/2000/svg">
<g clip-path="url(#clip0_121_284)">
<path d="M15.5312 0.436523C14.7137 1.36806 13.8962 2.30694 13.0712 3.23848C12.0662 4.38273 11.0537 5.53432 10.0412 6.67858C10.0112 6.71525 9.98123 6.74459 9.94373 6.7886C11.9612 9.66391 13.9787 12.5319 16.0112 15.4219C15.9587 15.4219 15.9212 15.4292 15.8837 15.4292C14.4812 15.4292 13.0787 15.4292 11.6762 15.4292C11.5787 15.4292 11.5262 15.3925 11.4737 15.3192C10.1762 13.4634 8.87123 11.6077 7.56623 9.75926C7.53623 9.71525 7.49873 9.66391 7.45373 9.60523C7.07123 10.038 6.70373 10.4561 6.32873 10.8815C5.02373 12.3632 3.71873 13.8522 2.41373 15.3338C2.36873 15.3852 2.28623 15.4219 2.21873 15.4219C1.82873 15.4292 1.43873 15.4219 1.01123 15.4219C2.97623 13.192 4.91873 10.9769 6.86873 8.76171C6.83873 8.7177 6.81623 8.68102 6.78623 8.63701C4.91123 5.97442 3.02123 3.28982 1.13873 0.612563C1.10123 0.553883 1.07123 0.495203 1.03373 0.436523C2.51873 0.436523 4.01123 0.436523 5.49623 0.436523C5.51123 0.458528 5.51873 0.480533 5.53373 0.502538C6.79373 2.29227 8.04623 4.082 9.30623 5.87173C9.32123 5.90107 9.33623 5.93041 9.35873 5.95975C10.9937 4.09667 12.6062 2.27026 14.2187 0.436523C14.6612 0.436523 15.0962 0.436523 15.5387 0.436523H15.5312ZM14.2037 14.4976C14.1587 14.4316 14.1287 14.3876 14.0987 14.3436C13.2887 13.214 12.4787 12.0771 11.6687 10.9475C9.43373 7.8155 7.19873 4.6908 4.96373 1.56611C4.88123 1.44875 4.79123 1.40474 4.64873 1.40474C4.09373 1.41207 3.53873 1.40474 2.98373 1.40474C2.93873 1.40474 2.89373 1.40474 2.82623 1.41207C2.86373 1.46342 2.88623 1.50009 2.90873 1.53677C5.96873 5.82039 9.03623 10.1113 12.0962 14.395C12.1487 14.4756 12.2087 14.4976 12.3062 14.4976C12.8837 14.4976 13.4612 14.4976 14.0462 14.4976C14.0912 14.4976 14.1287 14.4976 14.2037 14.4903V14.4976Z" fill="white"/>
</g>
<defs>
<clipPath id="clip0_121_284">
<rect width="15" height="15" fill="white" transform="translate(0.568848 0.154297)"/>
</clipPath>
</defs>
</svg>
