<svg width="16" height="11" viewBox="0 0 16 11" fill="none" xmlns="http://www.w3.org/2000/svg">
<g clip-path="url(#clip0_121_286)">
<path d="M1.01904 5.05243C1.03875 4.75251 1.04698 4.45148 1.08051 4.15266C1.12846 3.72628 1.16375 3.2955 1.25964 2.87792C1.47935 1.92289 2.14112 1.38215 3.16026 1.21418C3.42468 1.17047 3.69204 1.14078 3.95851 1.10999C4.13852 1.0891 4.28587 1.19769 4.30352 1.35439C4.32028 1.50421 4.20734 1.62764 4.02969 1.65321C3.73057 1.6961 3.4288 1.72853 3.13232 1.78379C2.39201 1.92152 1.94788 2.35642 1.81965 3.03874C1.72435 3.54539 1.67317 4.06222 1.64288 4.57629C1.57347 5.75509 1.59111 6.93471 1.69876 8.11159C1.722 8.36588 1.76288 8.62017 1.82053 8.86951C1.99024 9.60296 2.49172 10.0315 3.27673 10.1217C4.1541 10.2223 5.03648 10.315 5.91914 10.3367C7.49299 10.3752 9.06832 10.3584 10.6428 10.3633C10.8357 10.3639 10.9601 10.4324 10.9954 10.5687C11.0275 10.6921 10.9642 10.8299 10.8392 10.8774C10.7734 10.9024 10.6969 10.9118 10.6251 10.9126C9.63715 10.9225 8.64919 10.9451 7.66153 10.933C6.72768 10.9217 5.79296 10.8928 4.86147 10.8343C4.20969 10.7933 3.55439 10.7268 2.91555 10.6044C2.04642 10.4381 1.49493 9.9048 1.29022 9.10345C1.17522 8.65315 1.13669 8.18499 1.0811 7.72287C1.04463 7.41965 1.03875 7.11313 1.01934 6.80826C1.01934 6.22298 1.01934 5.6377 1.01934 5.05215L1.01904 5.05243Z" fill="white"/>
<path d="M9.26298 0.937312C10.5827 0.959854 11.9419 0.98817 13.2945 1.13085C13.5754 1.16054 13.856 1.2048 14.1313 1.26418C15.0096 1.45414 15.5699 1.96904 15.779 2.78138C15.8905 3.21381 15.9631 3.66301 15.9796 4.10698C16.0172 5.12964 16.0246 6.15366 16.0149 7.17687C16.0093 7.77891 15.9661 8.38151 15.8216 8.97365C15.5816 9.95672 14.9169 10.5085 13.8666 10.6723C13.6163 10.7113 13.3636 10.7397 13.1113 10.7649C12.921 10.7842 12.7828 10.6836 12.7639 10.5266C12.7463 10.3776 12.8533 10.2533 13.036 10.2264C13.3063 10.1868 13.5807 10.1684 13.8481 10.1167C14.7043 9.95177 15.1537 9.54024 15.2757 8.70864C15.3793 8.00433 15.4246 7.29013 15.451 6.57867C15.4887 5.56426 15.4578 4.54931 15.3428 3.53848C15.3216 3.35292 15.2846 3.1679 15.2402 2.98564C15.069 2.28325 14.5907 1.86787 13.8375 1.76423C13.1857 1.67434 12.5277 1.61083 11.8701 1.5718C10.063 1.46513 8.25355 1.46458 6.44381 1.51324C6.38116 1.51489 6.31469 1.51489 6.25557 1.49812C6.12586 1.46101 6.05027 1.33538 6.06733 1.2059C6.08556 1.06817 6.20263 0.97195 6.37733 0.967826C6.9297 0.955181 7.48236 0.944185 8.03501 0.937862C8.4312 0.933188 8.82738 0.937037 9.26298 0.937037V0.937312Z" fill="white"/>
<path d="M6.86995 5.93628C6.86995 5.25973 6.86906 4.58319 6.87024 3.90664C6.87053 3.68864 6.98966 3.55806 7.17936 3.57235C7.23966 3.57703 7.30319 3.60067 7.35554 3.63091C8.54145 4.31323 9.72647 4.99692 10.91 5.68281C11.1624 5.82906 11.1583 6.05476 10.903 6.20266C9.72736 6.88278 8.54998 7.5607 7.37437 8.24109C7.25848 8.30817 7.14495 8.34363 7.01789 8.27381C6.89759 8.20755 6.86965 8.10089 6.86965 7.98021C6.87053 7.29899 6.86995 6.61804 6.86995 5.93683V5.93628ZM7.46613 4.33769V7.54228C8.3988 7.00374 9.31117 6.47674 10.2406 5.93985C9.30823 5.40158 8.39674 4.87514 7.46613 4.33742V4.33769Z" fill="white"/>
<path d="M11.8904 10.3155C12.0516 10.3177 12.1749 10.4337 12.1754 10.584C12.176 10.7366 12.039 10.8639 11.879 10.8598C11.7231 10.8557 11.5922 10.7314 11.5913 10.5868C11.5901 10.4339 11.7234 10.3133 11.8907 10.3155H11.8904Z" fill="white"/>
<path d="M5.47659 1.29556C5.4757 1.44593 5.33541 1.57211 5.17423 1.56744C5.0157 1.56304 4.89187 1.44236 4.89246 1.29281C4.89305 1.13886 5.02834 1.0157 5.19158 1.02065C5.34688 1.02533 5.47747 1.15123 5.47659 1.29556Z" fill="white"/>
</g>
<defs>
<clipPath id="clip0_121_286">
<rect width="15" height="10" fill="white" transform="translate(0.568848 0.654297)"/>
</clipPath>
</defs>
</svg>
